<mxfile host="app.diagrams.net" modified="2023-03-02T12:41:23.476Z" agent="5.0 (Macintosh; Intel Mac OS X 10_15_7) AppleWebKit/537.36 (KHTML, like Gecko) Chrome/109.0.0.0 Safari/537.36" etag="IMT0D6ZapFINve8LUSHH" version="20.8.23" type="github">
  <diagram name="第 1 页" id="7UHrrgLT2WA2OZVe5u0d">
    <mxGraphModel dx="2855" dy="1460" grid="1" gridSize="10" guides="1" tooltips="1" connect="1" arrows="1" fold="1" page="1" pageScale="1" pageWidth="827" pageHeight="1169" math="0" shadow="0">
      <root>
        <mxCell id="0" />
        <mxCell id="1" parent="0" />
        <mxCell id="SBjkh8qZUJ7-Q7mnqAF4-1" value="" style="shape=image;verticalLabelPosition=bottom;labelBackgroundColor=default;verticalAlign=top;aspect=fixed;imageAspect=0;image=data:image/png,iVBORw0KGgoAAAANSUhEUgAAA6UAAAMZCAIAAAB3SwUfAAAAAXNSR0IArs4c6QAAAKZlWElmTU0AKgAAAAgABgESAAMAAAABAAEAAAEaAAUAAAABAAAAVgEbAAUAAAABAAAAXgEoAAMAAAABAAIAAAExAAIAAAAVAAAAZodpAAQAAAABAAAAfAAAAAAAAABIAAAAAQAAAEgAAAABUGl4ZWxtYXRvciBQcm8gMi4zLjUAAAADoAEAAwAAAAEAAQAAoAIABAAAAAEAAAOloAMABAAAAAEAAAMZAAAAABloQYMAAAAJcEhZcwAACxMAAAsTAQCanBgAAANuaVRYdFhNTDpjb20uYWRvYmUueG1wAAAAAAA8eDp4bXBtZXRhIHhtbG5zOng9ImFkb2JlOm5zOm1ldGEvIiB4OnhtcHRrPSJYTVAgQ29yZSA2LjAuMCI+CiAgIDxyZGY6UkRGIHhtbG5zOnJkZj0iaHR0cDovL3d3dy53My5vcmcvMTk5OS8wMi8yMi1yZGYtc3ludGF4LW5zIyI+CiAgICAgIDxyZGY6RGVzY3JpcHRpb24gcmRmOmFib3V0PSIiCiAgICAgICAgICAgIHhtbG5zOmV4aWY9Imh0dHA6Ly9ucy5hZG9iZS5jb20vZXhpZi8xLjAvIgogICAgICAgICAgICB4bWxuczp4bXA9Imh0dHA6Ly9ucy5hZG9iZS5jb20veGFwLzEuMC8iCiAgICAgICAgICAgIHhtbG5zOnRpZmY9Imh0dHA6Ly9ucy5hZG9iZS5jb20vdGlmZi8xLjAvIj4KICAgICAgICAgPGV4aWY6UGl4ZWxZRGltZW5zaW9uPjc5MzwvZXhpZjpQaXhlbFlEaW1lbnNpb24+CiAgICAgICAgIDxleGlmOlBpeGVsWERpbWVuc2lvbj45MzM8L2V4aWY6UGl4ZWxYRGltZW5zaW9uPgogICAgICAgICA8eG1wOkNyZWF0b3JUb29sPlBpeGVsbWF0b3IgUHJvIDIuMy41PC94bXA6Q3JlYXRvclRvb2w+CiAgICAgICAgIDx4bXA6TWV0YWRhdGFEYXRlPjIwMjMtMDMtMDJUMjA6Mjg6MzkrMDg6MDA8L3htcDpNZXRhZGF0YURhdGU+CiAgICAgICAgIDx0aWZmOlhSZXNvbHV0aW9uPjcyMDAwMC8xMDAwMDwvdGlmZjpYUmVzb2x1dGlvbj4KICAgICAgICAgPHRpZmY6UmVzb2x1dGlvblVuaXQ+MjwvdGlmZjpSZXNvbHV0aW9uVW5pdD4KICAgICAgICAgPHRpZmY6WVJlc29sdXRpb24+NzIwMDAwLzEwMDAwPC90aWZmOllSZXNvbHV0aW9uPgogICAgICAgICA8dGlmZjpPcmllbnRhdGlvbj4xPC90aWZmOk9yaWVudGF0aW9uPgogICAgICA8L3JkZjpEZXNjcmlwdGlvbj4KICAgPC9yZGY6UkRGPgo8L3g6eG1wbWV0YT4KZcI17gAAQABJREFUeAHsnQeUFFX2xqt7cmIGQRgkCgIqYFoDCoZFURGEYVEwYBYDyn9x1VUXFVFZc9jFXcGAaXVldQFhUDBgAkFdlSgigkNmkDQ59HT3/6uu2N1V1TU91T09zVdnz8yr9+5Lv/Kc/Xhz370uv98v8CEBEiABEiABEiABEiCBJCXgTtJ9cVskQAIkQAIkQAIkQAIkIBKg3uV/ByRAAiRAAiRAAiRAAslMgHo3mb8u90YCJEACJEACJEACJEC9y/8GSIAESIAESIAESIAEkpkA9W4yf13ujQRIgARIgARIgARIgHqX/w2QAAmQAAmQAAmQAAkkMwHq3WT+utwbCZAACZAACZAACZAA9S7/GyABEiABEiABEiABEkhmAtS7yfx1uTcSIAESIAESIAESIIFUZxFUVVW9+uqr//vf/9auXVtXV3ds4Bk8ePAxxxzj7EQcjQRIgARIgARIgARIgATsEHA5mE/4nXfeufXWW3fv3h0+8d///nc0uVyu8CbWkAAJkAAJkAAJkAAJkEDsCDimdyF2R48ebbFQ6N1p06ZZGLCJBEiABEiABEiABEiABBwn4Ize/eabb0455RQsLi8v76qrrurSpcvWrVvnzJmzbds2/YqXLl162mmn6WtYJgESIAESIAESIAESIIGYEnBA78IjAip2+fLlN9xww5NPPgnJK624srLyzjvvnD59urqB66677qWXXlJfWSABEiABEiABEiABEiCBWBNwID7DvHnzIHbvuuuuGTNmqGIX687NzX3uuecGDBig7uGHH35QyyyQAAmQAAmQAAmQAAmQQBwIOKB3q6urL7vssocffjh8uSkpKQ888IBajxNftcwCCZAACZAACZAACZAACcSBgAP+DNar3LJlS9euXSUb+jNYs2IrCZAACZAACZAACZCA4wQcON+1XtNvv/2mGkyYMEEts0ACJEACJEACJEACJEACcSAQc727ZMkSaRvIOoHsE3HYEqcgARIgARIgARIgARIgAZVAzPXuggULMFn37t1ff/11dVYWSIAESIAESIAESIAESCA+BGKrd1944YWPPvqoXbt2ixcvLiwsjM+WOAsJkAAJkAAJkAAJkAAJqARipXcbGhqmTJly4403YqaCgoKqqip1SkcKSE1s53FkLg5CAiRAAiRAAiRAAiTQcgk4H58BQXbffvvtV199dffu3XoukL/333+/vqYpZYhdO92RC8OOGW1IgARIgARIgARIgASSlUCqsxubPXv2qFGjDMecPHky6h2UvIazsJIESIAESIAESIAESIAE9AQcPt9F7okVK1bgiPfrr79etGhRyBEvJv72229PPPFE/QqiK6vnuzzBjQ4ge5EACZAACZAACZDAQULAYb2rp1ZbW/vEE0+EHOiOHDkSZ8B6s+jK1LvRcWMvEiABEiABEiABEjjYCMRQ70oo169ff9JJJ1VUVKhkPR5PampT/Siod1WeLJAACZAACZAACZAACVgQiFV8BnXK3r17IyqZ+orC1q1b9a8skwAJkAAJkAAJkAAJkEDsCMRc72Lpl1xySadOndQ9lJaWqmUWSIAESIAESIAESIAESCCmBOKhd7GBs88+W93GYYcdppZZIAESIAESIAESIAESIIGYEoiT3u3fv7+6jc6dO6tlFkiABEiABEiABEiABEggpgTipHczMzOlbQwYMEC9ahbTjXFwEiABEiABEiABEiABEgCBOOndVatWSbgvuugicicBEiABEiABEiABEiCBuBGIeTwy7GTLli1du3ZFoVevXqtXr05PT2/69tRDYuabaDpMjkACJEACJEACJEACSUygqXFwgQZnty+++KLX6x00aFBRUVFIbF1kXLv++uslgs8//7wjYjeJvwe3RgIkQAIkQAIkQAIk4CyBpp7vQuZ269Zt27Zt0rJwgjtp0qQxY8ZkZGQ0NDT873//u+qqq37++We0Tps27dZbb3Vq9TzfdYokxyEBEiABEiABEiCB5CbgsN5VYXXv3n3Tpk3Sa15e3iuvvDJq1Ci1tekF6t2mM+QIJEACJEACJEACJHAwEGiq3gWj+fPnDx8+3BDW0UcfPXbsWBzrQvIaGkRdSb0bNTp2JAESIAESIAESIIGDioADehe8Kisrv/vuu927dyN3Gjwc2gSefv366dOqOYuVetdZnhyNBEiABEiABEiABJKVgDN6N/50qHfjz5wzkgAJkAAJkAAJkEBLJBCn+LstEQ3XTAIkQAIkQAIkQAIkkAQEqHeT4CNyCyRAAiRAAiRAAiRAAqYEqHdN0bCBBEiABEiABEiABEggCQhQ7ybBR+QWSIAESIAESIAESIAETAlQ75qiYQMJkAAJkAAJkAAJkEASEKDeTYKPyC2QAAmQAAmQAAmQAAmYEqDeNUXDBhIgARIgARIgARIggSQgQL2bBB+RWyABEiABEiABEiABEjAlQL1rioYNJEACJEACJEACJEACSUCAejcJPiK3QAIkQAIkQAIkQAIkYEqAetcUDRtIgARIgARIgARIgASSgAD1bhJ8RG6BBEiABEiABEiABEjAlAD1rikaNpAACZAACZAACZAACSQBAerdJPiI3AIJkAAJkAAJkAAJkIApAepdUzRsIAESIAESIAESIAESSAIC1LtJ8BG5BRIgARIgARIgARIgAVMC1LumaNhAAiRAAiRAAiRAAiSQBASod5PgI3ILJEACJEACJEACJEACpgSod03RsIEESIAESIAESIAESCAJCFDvJsFH5BZIgARIgARIgARIgARMCVDvmqJhAwmQAAmQAAmQAAmQQBIQoN5Ngo/ILZAACZAACZAACZAACZgSoN41RcMGEiABEiABEiABEiCBJCBAvZsEH5FbIAESIAESIAESIAESMCVAvWuKhg0kQAIkQAIkQAIkQAJJQIB6Nwk+IrdAAiRAAiRAAiRAAiRgSoB61xQNG0iABEiABEiABEiABJKAAPVuEnxEboEESIAESIAESIAESMCUAPWuKRo2kAAJkAAJkAAJkAAJJAEB6t0k+IjcAgmQAAmQAAmQAAmQgCkB6l1TNGwgARIgARIgARIgARJIAgLUu0nwEbkFEiABEiABEiABEiABUwLUu6Zo2EACJEACJEACJEACJJAEBKh3k+AjcgskQAIkQAIkQAIkQAKmBKh3TdGwgQRIgARIgARIgARIIAkIUO8mwUfkFkiABEiABEiABEiABEwJUO+aomEDCZAACZAACZAACZBAEhCg3k2Cj8gtkAAJkAAJkAAJkAAJmBKg3jVFwwYSIAESIAESIAESIIEkIEC9mwQfkVsgARIgARIgARIgARIwJUC9a4qGDSRAAiRAAiRAAiRAAklAgHo3CT4it0ACJEACJEACJEACJGBKgHrXFA0bSIAESIAESIAESIAEkoAA9W4SfERugQRIgARIgARIgARIwJQA9a4pGjaQAAmQAAmQAAmQAAkkAQHq3ST4iNwCCZAACZAACZAACZCAKQHqXVM0bCABEiABEiABEiABEkgCAtS7SfARuQUSIAESIAESIAESIAFTAtS7pmjYQAIkQAIkQAIkQAIkkAQEqHeT4CNyCyRAAiRAAiRAAiRAAqYEqHdN0bCBBEiABEiABEiABEggCQhQ7ybBR+QWSIAESIAESIAESIAETAlQ75qiYQMJkAAJkAAJkAAJkEASEKDeTYKPyC2QAAmQAAmQAAmQAAmYEqDeNUXDBhIgARIgARIgARIggSQgQL2bBB+RWyABEiABEiABEiABEjAlQL1rioYNJEACJEACJEACJEACSUCAejcJPiK3QAIkQAIkQAIkQAIkYEqAetcUDRtIgARIgARIgARIgASSgAD1bhJ8RG6BBEiABEiABEiABEjAlAD1rikaNpAACZAACZAACZAACSQBAerdJPiI3AIJkAAJkAAJkAAJkIApAepdUzRsIAESIAESIAESIAESSAIC1LtJ8BG5BRIgARIgARIgARIgAVMC1LumaNhAAiRAAiRAAiRAAiSQBASod5PgI3ILJEACJEACJEACJEACpgSod03RsIEESIAESIAESIAESCAJCFDvJsFH5BZIgARIgARIgARIgARMCVDvmqJhAwmQAAmQAAmQAAmQQBIQoN5Ngo/ILZAACZAACZAACZAACZgSoN41RcMGEiABEiABEiABEiCBJCBAvZsEH5FbIAESIAESIAESIAESMCVAvWuKhg0kQAIkQAIkQAIkQAJJQIB6Nwk+IrdAAiRAAiRAAiRAAiRgSoB61xQNG0iABEiABEiABEiABJKAAPVuEnxEboEESIAESIAESIAESMCUAPWuKRo2kAAJkAAJkAAJkAAJJAEB6t0k+IjcAgmQAAmQAAmQAAmQgCkB6l1TNGwgARIgARIgARIgARJIAgLUu0nwEbkFEiABEiABEiABEiABUwLUu6Zo2EACJEACJEACJEACJJAEBKh3k+AjcgskQAIkQAIkQAIkQAKmBKh3TdGwgQRIgARIgARIgARIIAkIUO8mwUfkFkiABEiABEiABEiABEwJUO+aomEDCZAACZAACZAACZBAEhCg3k2Cj8gtkAAJkAAJkAAJkAAJmBKg3jVFwwYSIAESIAESIAESIIEkIEC9mwQfkVsgARIgARIgARIgARIwJUC9a4qGDSRAAiRAAiRAAiRAAklAINXZPezcuXP27Nlr1qxZsWJFdXX1Mccc069fv9NOO23gwIHOTsTRSIAESIAESIAESIAESMAOAZff77djF9HG5/O9+uqrEydOrKioCDe+7LLLnnnmmXbt2oU3RVfjcrmkjk6tP7plsBcJkAAJkAAJkAAJkECCE3BM7958883Tp0+32G1eXt7SpUtx3GthY7+Jetc+K1qSAAmQAAmQAAmQwMFMwBm9O2/evBEjRqgcu3fvXllZuXv3brVGKhx99NHffvttdnZ2SH0Ur9S7UUBjFxIgARIgARIgARI4CAk4cF9t//79Y8eOBTuc4D7++OPl5eUbN24sDTwTJkzQM/3xxx8feOABfQ3LJEACJEACJEACJEACJBBTAg6c777zzjujR4+Gb+4XX3zRu3fvkOVKrWolzKCE1deoCzzfjRodO5IACZAACZAACZDAQUXAgfPdjz/+GMgWLlwYLnZRf/HFF1911VUqUzg57Nq1S31lgQRIgARIgARIgARIgARiSqCp57sIj1BYWHjOOee8+eabZgvdsWNHx44d1dZPP/30rLPOUl+jK/B8Nzpu7EUCJEACJEACJEACBxuBpsbfhe58+OGHzz77bAtwhx12GNwY1OtrOTk5FsZsIgESIAESIAESIAESIAEHCTjgzzBu3DgEZLBek95Af9Zr3YutJEACJEACJEACJJBoBBYsWHDjjTcee+yxubm5OPjDT5RRg/pEWyrXIxFoqj+DTY6tWrWS8lBA+P7yyy+qN4LN7uFm6gjMNxEOhzUkQAIkQAIkcFAR8NfUCPV1/gaP4G0QPA1Cerr7kDZCSlP/iB3O8D//+c/UqVNXrVoV3iTVILPspEmTcI/fzID1zULA+f8UwrexefNmNenalVdeqUrVcEvWkAAJkAAJkAAJkIAxAZ/P++sG78affaU7faU7fDu3+6XCrh3+murQLm63u3UbV/vDUo85IfOya1OOPjbUoPHvN91004wZM6z7QQqPGTNm8eLF1km4rAdhq+ME4nG++9577xUVFUlLh/bt0qVL07dhUzTz9LfpqDkCCZAACZAACTQXAd/WkobV3zesEv/nXbvCX1UZzUpcroyiS7Luesjdtl003QN9Ro4cOXfuXLl7Wiuh21VC+/OF/D5CWr7gKRPK1gqlC4WS1wRPuWQD5TNnzpyop2NHZwnEQ+8OGzZM8mh58MEH77vvPkc2QL3rCEYOQgIkQAIkQAIJRcC/f6/nu+VeUeB+17DmB/+B/U4tz93m0NyX3k3td3wUAwad7ELp9pkiytzwB8J37WRR9QYeePTylDccUrPUxFzvIvrYoEGDsLdOnTqtX7/ekWTCGI16t1n+c+GkJEACJEACJOA8Aa+3YeX/PF987Pnio4Y1KwSfz/kpAiO6D22f//5yV+s2jRofPrtwUZC7HDVJ6H1HhO7rnxTWTZVsZs2aRV/eCLji0hxbvev1ek8++eTvv/8ee4FXw/Dhw53alKp36bHgFFKOQwIkQAIkQALxJODbtd3z5Seezz/2fPWpv7wsPlOnnz8i97k3GjUXYi/IF9Rwsnvcs7b6rpgonfLi+trKlSttdaFRLAnEVu/+61//uuKKK7D+u++++5FHHnFwI9S7DsLkUCRAAiRAAiQQJwJ+f8MP39R/OB+nud6ff4zTpMHT5M2cnXbGOcF1pm9wyIRbpticmiect9rYjSG8NxwbFvUTGirQUlxcPHTo0HAT1sSTgAPxd82Wu3Xr1vHjx6MVnxk5KczMWE8CJEACJEACJJD0BBrWrqx+7L4DZ/YpHz249qW/N5fYBee6t162T3v+/Pmycber7YpddIB3L+wDjzaC9M6fzUEgVvHI6urqRo0ahTBkCLiLU96UlJTm2B3nJAESIAESIAESaE4C3g3r6ov/W7/gv96Sjc25Dt3cnqWL/XW1roxMXZ1pcdmyZXJb4XmmRoYNsP9lGlq0EQzNWBkXAjHRu/Cpxcnut99+m5eXt3DhwoKCgrjshZOQAAmQAAmQAAkkBAHv5k3QuFC6zXiOawYCySkavlmadvrZZgb6+k2bNsmv+X319ZHLir02QuQ+tIgVgZjo3cmTJ8+cORNL/vzzz3v27BmrtXNcEiABEiABEiCBRCLg27mtfsFsKN2G1T/EdV0pqcjqi4RqrtQ0ITUFt9/8laLvrNmDmL429W5lpRLx1zAAmdkEqFfstREsjNkUYwLO693nn3/+oYcewrI/++yz44+PJspdjLfM4UmABEiABEiABBwl0OCpXzSv7q2Znm+WCH6/o0MHD+ZypXTvmdLn2JTDurgKO7jbH+Yu7Ohu30FMJOEOupJU/de/1M58Lriz9oYMbdqLZSk3N1cWrLiCpkhYyx5KI+wDD0ZQqvi72Qg4rHdfffVV6Y4avLPPPPPMZtsWJyYBEiABEiABEog9ARzo1v37lbp3Xvf9Vhqj2dyduqYe8zvkiUg55oTUvse7ciLLRwRV2Pr1d6PNF+Tfu8e8MagF15DkYGRla4S2A4LarF9gH3gwgrUhW+NAwEm9+/rrr19zzTVY9FtvvSUH7zDawdSpU+Hn8OGHHxo1so4ESIAESIAESCDhCfj9CJ1b9+ZL9Z8tErxeh5ebmpZ6wilpp52ZeuyJkLmugkPsj4/cEJAZUKhnZ6eO7pBl1tG3z67ePfXUU2W9u2tR4/Qu7AMPRjBbBuvjRsAxvfvGG29cddVVWPdLL7106aWXGm6gqqrqueeeu/fee5lrxJAPK0mABEiABEggwQn4D+yre+eN2n/P9G351dmlujt1STv9HETGTTvtLDuHuOGz67P+/ua1cqvYsXZVq/D+RjUXXnjhjBkzxJaSV4Xet9t1aYAzA+wDD0aQCvzZjAScyTcBn13JjQE7uf3220P2gyxrtbW1paWlH3/8MSKUobXpsZeZbyIEMl9JgARIgARIIKYEkCcCB7p1788R6uucmsiVmZV68oC0Mwbj9lhKj15NGXbkyJFz586VR0hr1b3byG99s80G3OzxPXjC4Dlz5pgZ6OuZX01Po4WWHdC7jz766D333GN//whStmfPnvT0dPtdwi2pd8OZsIYESIAESIAEHCfgr6muf29W7Zsve9etcmpwV1ZW2qAL0oeNwmmuzTi41lPrT3YFZP3tM+XYhi2LfzHNara23nfG1qobb7xx+vTp1iOjFT4SY8aMkc2OmiT0viNCl/VPCuumSjazZs3i37Qj4IpLc1P9GR544IEpU6Y0aqnXXXddE8Vuo6ajMQmQAAmQAAmQQBQEEEO37rXn62a/ZR3bqxEjp2eknzlYlLmDLoDkbURHS1PoUdnlAGaKHi2ok8MjGHYtC3g7oNegQYMi6lEYLF68WJ4CQrZmG/S0sWMD3BjWThZKXpMmhZ6OOLjh8ljpOIGmnu+efPLJyCvRqGV9/fXX6NWoLuHGPN8NZ8IaEiABEiABEnCEQMM3S2pn/qN+8QeCz+fAgCmpaQPOSh92UfrgYa48m36zjZjW0N9geNn7r2y5yWyUD/wdxm76Ga3HHHPMypUrzcz09UH+Eql5YrpgZFBDUgkEKYPMRTQGXFCDz26DHPe3qKjIpr+EfhaWY0SgqXo3RsuKOCz1bkRENCABEiABEiCBxhFAGN0FsxG2tmGtLQkYYXC3O+2kATjNTR9S1KgYCxGGDW5G6DE5JBQ06Hmr1WPXK/e99cz2u4Nttbd/54+4ddV7kja1f6coyGtCG8ygZNNTwqAnq2JDICg4c2ym4KgkQAIkQAIkQAIJTcB/YH/N9KcOnNG38vZxTRe7Kb2Ozr73sYIlP+W9uSDj0mtjJ3bBFPH+ZbI4cNXlgyjwWvozpLUVD2gDjzaCPJDpLzj7wh8XR8KmFoEDY9jYcQu2GIRNjhNoqv+u4wvigCRAAiRAAiRAAnEj4N20ofa15+tnv+mvqWnqpGnp6ecNz7z8+tSTTmvqULb7L1u2TLaFd4HuyfeW695CiwdS8oXCk4RfpqFBGyHUyuAd/rh4cKgMlYyOmzZtQvY1ZFBDUgnE2UXosaFDTS/JGQzHqngRoN6NF2nOQwIkQAIkcNAQaBF6yLPs89pX/uH5dFHTMwC7O3bGOW7GxVe62xwa548MxSnPCFda3dO2Ya/uLbQo6t1Wsr02QqiV6TtELXWtKZ2EbKDeTcjPwkWRAAmQAAm0TAJqfi/98nEEiBxdeHDHH38NnzRpEs4I9QZxLXvq6+a/C6XrXbe6qfPCQ/eMczIvuz7trHMFd/N4SIKtvAudMwNqChus8hv/lnqo6vygjdBUHOyfuASodxP323BlJEACJEACLYuAnftMUL0I5or4VvF38fRXlNe+MaPujRd8v1lpQTvMXYe0zbj4isxLr3V36mrHPnY28CWQBSuCJOgkb6HHao+7UtuLQRUCD0aI3fI4coIQoN5NkA/BZZAACZAACbRsAo2KV4WDXqQdjVu8KlxHg5Nu7av/hORtIuXU3/XHgW76kBFCekYTh3KkOxxn8U8IcShEBGs7QB3T+ny3NK2daB94MILai4VkJdA8f31IVprcFwmQAAmQwMFJACe7WjJb5PdCYKy+D4rySzpxxE+UUYN6tAYe2KNXrHH59+2pfvKBA2f2qZn2aFPELtJDZFx2XX7xV61mfZg+YnSCiF3Qwy0xmSHC3ypPmr+hTcM+5c3g906c7yr22ggGhqxKEgLUu0nyIbkNEiABEiCB5iIQmt/ruGf1f1gPWhWEL1qRAyzw4JQXfYMMnHuB00L1I5OgdGunP+2vUpxcGz++u12HrDsmF3z5U86Dz6QcGXQnrPGDOd8DIRHkQZHrQXFRaNew2yX4zSYrS2lV660Tc0MEHm0Esw6sb/kEmG+i5X9D7oAESIAESKBZCRjm94qwohUTpayz1vm9EOdh3rx5y5cv37hxY1VVVU5OTo8ePfr37z98+HCL+AC+XdtrX3i2btZr/rraCMuwbE7tc2zmtbemD/2DkJpmadjMjeH8f1f9w4cbR5gta31Gz9Oq+9nhbzYC61scAerdFvfJuGASIAESIIEEImCW3yvCEnESuaifRX4vwzgP+jEN4zz4tm+tmfF03TtvCJ56vXHjym53+qAhmdfeknrywMZ1bCZrsMIVQHlynJ33vuOC8kVvbB5ntpwv3J1HbvhRakVuiOaMlWG2RNY7TYD+DE4T5XgkQAIkQAIHEwEtO1dwfq8IDODYYJ7fC369EHDyNSyTgaQ4D6oHsG/Lr1X33HLg7OPq3no5arHrysrOvOKG/I++z53+75YidoEHghX5e2VO66YKKyZ2qC0xwSZW7yqTQ/aiF8WuBahkamJ8hmT6mtwLCZAACZBAvAlo2bmC83tFXgfsjfJ7BcV5SGsl3m9rf76Q30f0CcapcNlaoXSh+Ld4jxhpAR7Atdu3/uO4nnX/eV3wNkSe1MTCXdgx88obMy65xtUq38QkoasR3A3xLuQrgyWvFVbmCeb72OkVXXuLioriHxIuoSEm9eLoz5DUn5ebIwESIAESiDGBvLw8Of7r0BLTa2qGa4B4XdANLYj/WlFRIZngvBYSVjaH0u0zxXhM9F07OXfL67cWpN+Sn5btdsldGv8r9ZgTMq+5Nf2CIiGlxR+BqfSmtcu8LM/U5/iePXWuS66h2G38fywtuAf9GVrwx+PSSYAESIAEmp2Alp0L56+NehR7dQT7cR7SUnOu63z8d90PvbN1epRi1+VKP2doq7cXtZr9WfqFFxmKXbgm4y/+uA0GRe5yufATZdSgvlEbjZsxJCz8ceHZXJhi9Q+Ayyb8kWI3bh8lQSbi+W6CfAgugwRIgARIoEUScPB8NzzOgCGRIeUfPrTz4cPrSwxbI1fiOtp5I7JuudMiuFh0t+UiTx0vi21n9M3escVsNoQQRtYMs1bWJyUBnu8m5WflpkiABEiABOJEQMvOpeTrsjuxYi+NgENT+YJaap7oxmD0pPs9z2y/+1+br49S7KakpA+/OP/95bnTXrMQu/AKaOxtOaPFNmddTk2VxfTu9h0sWtmUlARavLNOUn4VbooESIAESKClEEB2LlmnIl+XLp9t5PUH5/eKGOehfcPu1zbfeFL1d5FHDrdISc0YMTpz/J0p3XqEN+prGntbLp5ZkfXrtCp76v0HrJKruQ5tb9WdbclIgOe7yfhVuScSIAESIIF4EdCycyFfF66R2XxgCfvAI41gHefh5OrvPt1wQTRiNzUtY8zVBZ/8kPP49IhiFye7QVmRz10l9EFW5NPkO3NwOEYZNaiPb1Zkm1AlM99vuwW/aXI1V36BKyOzUQPSOAkIUO8mwUfkFkiABEiABJqNAPKc4YKUOH1DBWIm2F0HLGEvCOgrZUrbtEkOCivkh+bsvXrfm+9tGo3zXbuDS3bpGRmXjyv4dGXO1L+7O3WN2Nf+bTlR/sYrK3LEZYcYYBcjzxscUql/3VxRBRt9DcsHAwHq3YPhK3OPJEACJEACMSQwadIkeXSExV3/ZOSZYAPLwKP2VaM0qAHI3IKvqKz4g40jn9p+Dzx3Iw+rWLgyszKvGV/w2aqcKU+5O3RSqiP8njp1qmyBs9ved0SwRjNslFNerW/kbjG0kDyPN/z8s8Uc1bV18E6GpYUNm5KPAPVu8n1T7ogESIAESCCuBMLze5k6NsCNYcVEATnAAo8+vxeifcmL9pRB6Y4sm7/k58EvbxkPT4ZGbCYlJePiK/M/+SF70qPudo24lWXntpzBMnCvDrfrBAEezM0epAyex1LoYlNXBt0GYAl7XQWLSU6AejfJPzC3RwIkQAIkEAcCiOeKfF3yRDi7XdRPWHO/sGepLHwhc1FGDeqVk92Q/F5SlAb8v/LIXS9+ueHcl7bc0rtuQ6NWviwlO7/4q5xHnnO3P6xRHWEc8bac8YBwbFCyIt96663GNnGpDfI87jjCas60AqkVnso85bUClVxt1LvJ9T25GxIgARIggWYiMGfOHJzXypPDNxe5gpcMEzOozW0t/kQZNQGfXdjAEvb6lZ7Wv//I3NQlnXNeOvD3I2ut/iKv7yWVv6v1Xrijev7vi1J6HhXeaqfG+rac1QhKFuWSkpLmko+hnse977ZacFahcJTsf4JTXvryWrFKojbq3ST6mNwKCZAACZBAsxJQ83tZrAIX1JADLCi/l89Xv+C/96798qX2Wb3TG/f/y/WutDv2Cedur/6qxqtFirCY3qTJ4racSQ+lWne7LkbyEZ4SUNJIxoHUHkjzhp8oo0b1oNC8hwOexy7ByqPB7fcloOexQpO/Y0WA+dViRZbjkgAJkAAJHLQEIMXgIYBDU+hIXESDby7cFRCpF5JUisYgk4HS/WBOzbTHvL/8FAWr0tR2V9cf9c2vxegLGb1y5cooBpG6QEfKfYv2N3oQHGArTxOXoQwj/8bhK7SsHN44pC3wiumGDBny2GOPiW/wJD5vNW77danf9sP604zMxbp9Ka17Hr1S9DOBb0nguL24uDjoo5j1ZH1LJkC925K/HtdOAiRAAiTQQglISve5x70b1kW3g/9ln3CV5/hdPz0rdceZMa7NRTcUejU9K7IgQDGLB6tOyUec4Er3z+xu6ogJQt8HYZzhr9+x5giLXof13VDnyhDdqeFhEvAtCTput+jJphZLoHF/N2mx2+TCSYAESIAESCAxCAS8F8ou6F/5x2uiFruvF1x0YUUXVezq4zxEt8mmZ0UWMtpIU2tX36JbSqCXGmxBfMPBLbTswGJhaImA42f8RBk1gdAQ2iSKJ3GdK31v6iFafVgJB8BinWKv+S6HWbIiaQhQ7ybNp+RGSIAESIAEEpuAXulG5cCA7ZW6C65xnXXbynfrS96QdhsS5yE6BPC1kDsqWY7tjqPatz5R6tJ0+YiT3aA0b/BSwMEtcjUjHAQeMc3bALEG9UoAYLF+y1viz8CzM7VQKRr87l/1jVireB5rvssGtqxKEgLUu0nyIbkNEiABEiCBxCXghNJdX+/7857aEzdum/fLfIs4D9FB0O66IcsxfFttPrCEvfR0lr0pmigfQ4MtIJGbJHPDl4R6XZo3Ue9ul0Ne/Jxp5c9wRtVScTBlWC3TR/gUrEkWAtS7yfIluQ8SIAESIIGEJFD/4XzZeyHaM10o3etLawZurXq5zFPtk4MPGMR5aML2m5gVWWjVR+gop29oonwMCbYQeU+6NG/C+qck+2XZp1h0HFb2QaGnVJX1WqYPiz5sauEEqHdb+Afk8kmABEiABBKVgG/71opxF1eOvzy68AvYVk1hp7f7Dbi5dY+PhEyfIECZQebCWxd3whCNoSkX1MKZqZmNxYwYjcyKLPS+3RH5iLgWcjQG+OYieZvNR0nzJpSvFXZ9iE5Lc/tbdEVy5j/99pxQtkay0XyXLfqwqYUTSG3h6+fySYAESIAESCDxCHi9ta89X/PMw/6a6ugWl3LEkVkT7jpkyMjxbvf46IZoZC+o58WLF8shEZDxuGabqDiVP/oHDQY3hrWT1URxYoo1HO4igVzgaYp81O66YUzDqYPWobzAEvaBYAvCrg+EwnPXZ/TcnXpou4bfFIvQ39fuff09V6m0Ys13OdSK78lDgHo3eb4ld0ICJEACJJAIBLwlG6vuuKFhxbfRLUZSuulDRgrueP8NFmG5Fi1ahExp4spxyrtttqgjEccAV7ugKSFzcSaKC2rw2VUSxQkdhgrHPSPaKxfXmiIftbtuSvAEcWQ8GHzXQmHft0J1idBQJaTmCNndhENOEgrPl8MswF7Su7AJPO8WFI3f86JUDv+JnBTTPAtPd7uqfH7NdzncjjXJQoDxd5PlS3IfJEACJEACCUCg7s2Xqh+d5K+piWItzah01dXCo2DYsGHqa4QC1LAkdiGFnUjfYBAGGFfQ4JULRwWzB67D8KZoN0hM2owHUniYGG6so2fHd+sHpvkbxEqT59Vyz2sdejUlT4fJwKxOOAI83024T8IFkQAJkAAJtEQCvt07q+4a7/nykygWnwhKV1q2dHHNIqWZvDtJZSp31ET3hsCJL9yLm5KrTLvrJjkzrLhNi/9ghhVS+NtrxXNo6cHpb+DZnnbYuwUjL93/jlxv9OvqVmnHji4yamFdshHg+W6yfVHuhwRIgARIIP4E6hf8t+r+2/xlBxo7deIoXXXliAg2ZswY+bXgeMFXH+ZFMAQ+sqq9eLkN/r6Bx8k0b9/fIuxcIM+S1koMtdv+fCG/j+JZsVYoXSg6XXjKtZVIJVgGPI+71W/56uezM/x1oQa6d3dhx/z3l7taBSL76upZTDIC1LtJ9kG5HRIgARIggbgSgMatmvyn+uJ3GztrAipddQtBuXwV+ai2aoXgi2sIHNHExLzHHnusfLQMx1w47EqP7QVoC0N4h4Dn8S3e7x7c/aRWb1TKGHlpzhMzjFpYlzwEqHeT51tyJyRAAiRAAnEm4FmyuOrPN8OToVHzJrLSVTeCjL5akjNFPlpcXEOatzlz5HQP6iCNLQTpbKnzUZMERNi1fnQHzCGGuPE3v2N2/8yUkPqQ19zp/04/Z2hIJV+TiQD1bjJ9Te6FBEiABEggXgS8XoQbq5nxtOCXE0DYmdjdrjD77qnpw0bFP/aCneWF2BiozxAL5bXpJ7vSSKG35XCyiwxqdp4VE6X4aO3atSssLNT7Hx+e5v6iU3a222UxjLttu/wPvna1bmNhw6YWTYB6t0V/Pi6eBEiABEigGQj49+2pnHit56vPGjG3y5Vx6bXZd05x5bVqRK/mNoUvLxKe6eVjyIpwQQ2JKhzMfHH44YfLAdFwqHzeartReIMDRGCRCOWL6GZIbow7cOPb5T6UZ6V3YY8AcLnTXgvZHV+ThgD1btJ8Sm6EBEiABEggHgQQWLfylit8pTvsT+bucnjuEzNSf2eV9Mv+aPG3xLGrXj4izRuSSiDOLiLXNiUag+FGBg8e/PHHH4tNR0wQ+j5oaGNcueZ+KQSvwWGz319xdZFn6afGHZXa3Gdnpg+7SHnj76QiQL2bVJ+TmyEBEiABEogpgdo3Xqieeo/Q4LE/i3is+5e/urKy7Xc5mC21K2sDi4W2AxqBAgneloiRg3HkHB5S17djW9kFp/grKywGdBW0zv/gG/eh7S1s2NRCCcQ7d0sLxcRlkwAJkAAJHOQEkBm48rZrq6fcYV/swls376V3cx56lmLX/n888ECQjZHUrVGPYq+NoOvuPqxT9r2P6SoMiv4D+6smTTBoYFXLJ0C92/K/IXdAAiRAAiQQYwLeTRvK//D7+vmNCDoGf1AEdk07SxenNsaLTI7hQ1NO2N+VlKJCELQRgvtmXDQ27ffnBdeFvnkWL6x791+htXxv+QSod1v+N+QOSIAESIAEYkmgfuF75SPP9G5YZ3MSJC/IfeolXH5yFRxiswvNVAJwDpbLuILWqEex10YI654zdRqcFsKqgyqqp97t2ylmJOaTTASod5Ppa3IvJEACJEACjhLweqsfmVR56xX+qkqb46YN+D2OddNHjLZpT7MQArgJJ9eUrQlpivCq2GsjhHWAh0nO5KfCqoMq/BXlVXff0qgwc0H9+ZKQBKh3E/KzcFEkQAIkQALNTcBfW1N5y9jal6fZXUhKStbt9+e9Ohcpau12oV0YAYR9kOt2LQprtKxQ7LURjMzTL7wo/fwioxatDpEc6t56WXtnqeUToN5t+d+QOyABEiABEnCaAK4uVVw5vP7jBTYHdh3SNu+VOVk33yG4IsR5tTngQWuGGGfy3kteFRQXhcg0YAn7wKONYNIt56Fn3G0ONWmUq6sfvde35VdrG7a2IALUuy3oY3GpJEACJEAC8SDg2761fMzghu+/tjlZ6nEn5c/7Mu20s2za08yCAAL6IqCYaNBQIaydbGEZ1ARL2AeCkUUMCYw8atkP/y2oe9gLwnGs+MM5xx17LLyBXS4XfiJQGiL7IhRxmC0rWgAB6t0W8JG4RBIgARIggbgR8K5bXX7x2d6NP9ucMfOKG1q9vZA+DDZx2TFDwjbZrOQ1Yf2TkbvABpaBR+tr2S198LCMokssTYRuB347a8tPVVVVMMNPJJl74YUXhg0bBuGLtHPWfdmaaASYbyLRvgjXQwIkQAIk0GwEPMs+r7z5MuusBOriEFUX9/3Th1+s1rDgFIGbbrppxowZ8mjdrhL6TDFOLAw3BpzsKmLXILOa+YL85WVlQ06xzpPn8QtDd1R/V+sNH6ZRc4V3Z02cCVDvxhk4pyMBEiABEkhQAvXF71beeZPgqbezvpTDj8j955spPY+yY0ybKAiMHDly7ty5csfUPKHb1ULheQKSSiDOLmQuojHgghp8dgNuDDArKiqaM2dOoybyfPlJxTUjrbtsTut4Zq+PKrxeoWytULpQ1NaecqlLFDNaz8XW2BGg3o0dW45MAiRAAiTQYgjUznwOocdsRqFKP39EzmPPu3KUSLEtZpctbKFBp7yWa4/6tLXq3j/Wvf2K5djC7ILh4zo/J9s04UTZeha2xpQA9W5M8XJwEiABEiCBhCfg91f/9S+1r/zD1kJdruw7Hsi88TZbxjRqMgF4yk6dOhW+s2Yj4XIbfHZHj44y4LG/uqrsglN827aYjS/V/1+nJ95sPUazgcfwuqnS66xZs6KeXRuQpRgToN6NMWAOTwIkQAIkkMgEPPXwYYAng601pqXnPvY8HXZtsXLUCFER5s+fv2zZsk2bNiFdMKIlIKkE4uwi9FjEaAwRF+L5+svyy4dah5GrdmcPOmLBhowe2mgrJkp+wxDcK1eu1OpZSkgC1LsJ+Vm4KBIgARIggTgQ8NRX3HSp5/OP7Ezlys2Dwy6Djtlh1bJsIKa/uWrUHwvSrZe9JvPoc4+YV+dSzODYsKif5D1cXFzcdNltPTtbm0iA8ciaCJDdSYAESIAEWiYBr7fytutsil3koW317w8odlvml46wapwcP7Kv7vs6gyAM+p59a3+cslP2YRDrcW0OV+gCD0aQCvyZsASodxP203BhJEACJEACMSPg91fdc0v9wvfsTJDSvWer/3ycclQgCYKdDrRxmgCOYHEjDYFvY5H9AW4SiDs2rrS2wpVlvfBxe185v1z31wDEiwg8GMG6I1ubnQD9GZr9E3ABJEACJEAC8SZQPeWO2jdesDNr6vEn5734H1fBIXaM7dtAwM2bN2/58uUbN25ELoOcnJwePXr0799/+PDh0l/GIxrYn6tFW8b6vhrg5OXlwScYhT+c/vyLO/5sjWtfSuvf93x/215EQ1so7FsulP8EeyRg69evn/7zWQ/C1vgToN6NP3POSAIkQAIk0JwEap56sOZ5G1m7BCH97Aty/vaKKzPCsV+jNhNRwHXp0gUDbtliGjFAjUiQ9Jo4DvHIgBpqVf6CRfv/vu3Oy/fPsv6gPzakDdm6v9LnNzRTv45hKyubiwD1bnOR57wkQAIkQALNQKB2xjPVT0y2M3HGJdfkTHlaSEmxY2zTxr6AizhgmzZt9u7da2aWBKorKN9EWisBWdbany/k91HyTTiW/UE93xWGlmSnpC3+ZWjPuo1mYKX6T6obLt1ZY+HwG3U8YOt52Ro1AerdqNGxIwmQAAmQQAsjUPfmS1WT/2Rn0Vl//EvWhLvtWNq3iSzgVkwQKjfJA9pQeBGnbrmqK+gfBrHJJ6zSg1uwHN93YLHQdgDupX34y/AMf4Q0e6+6et9eOCUW+ltdGAsOEqDedRAmhyIBEiABEkhcAnVz366680Y7GdRypjyVcfk4Z3cSWcCtuE3Mjis9Fgpv+Rhh14eymQ1N3BJz3sLlY8wYJbnDUZOE3nfI+zX71bTsD9qnOWKC0PdBTIJ7aY/uiPxHgBfaXHPPYVOCFsXsa0E4EuiFejeBPgaXQgIkQAIkECMCniWfVlw3SvA2RBw/+66HMsf9MaJZowwiC7jtc4Rvr5XHtFB4NjVxC1dd2oErdP9xz9pC3YTsD3CDHjZsmDhLap5w3mrRX0IQ3tx87fnlH0ec2kDyok/T9HfESWkQBQHq3SigsQsJkAAJkEBLIuAt2Vg+6vf+sgMRF511y5+zbrs3olljDSILuMUDhfK14rAWCs+mJlYX1zJVl6H6VPdkWmha9ofwD3SId//nG84/zLPTdEalwVjyNkF/KwPzt5MEGH/XSZociwRIgARIINEI+CvKK28cY0fsZl51UyzELgSc7B6K48M+wX/+lmDtWiSLXTMDyWz9UzJbaOKIf+KHKWxgGXimTtUlSpBHSdBfWu4GZHMIHLXaWmjTsj9MmjRJnqXkNfF0VhAQd+zyrjORRjji7DfsfeWRcOcHfGh8TUHAp8d/ABEHoUGsCVDvxpowxycBEiABEmg+Aj5f5cRrvBt/jriCjIvGZt/7WESzKAwiCzhEcpUeC4VnUxOHrK8Fqi4td4OSzSFkT6avir02gqlpaMPo0aNxt0+uXTdVwOmsp2xVVp9xnaf5BCVaWWgn7d1A8jZNf2tDs+QQAepdh0ByGBIgARIggcQjUP3YfXYyBqcPGZkzdRoCscZiB5r8UgRZ6Cz7vpVrzAzQbEcTh47bInPebtqkRKjI7xu+IasaxV4bwco6tG369Om42yfX4pR3UT9hzf0L67Pvq2wVamr0Dsk7+9fLjtAHMlO+pvYfgFFH1sWHAPVufDhzFhIgARIggXgTqJvz79qXp0WcNe2sc3OfecnZOLv6STX5pQgyfatYri6Ra8wM0GxHE8ujBP+yVF34U7t1nt6IBsGTOfAmpToTB7LvzCBNq9hrI5gsx2xT119/vXbK21Ah/DJNWDJseum26WURYpNJ85xZueTLDefet+vR7J3zBNwsXCWHlVi9ejX8gzEyHRtMPkg8qnlfLR6UOQcJkAAJkECcCcCHoXzE6f7aGut5U08akPfKbGczqIXMqE/fFdIkv85tLReK9hsboLa4k9BQJbYOLWmcEMRFrgXd0C83N7eiokIcIfAkbJo3ffYHR3aq7Fj8HXHXyNMxaNCgxYsXyy7XSudH2mbckJ+uvEX4vb3B//C+utmVnoawFGxJkAckwuYTtZl6N1G/DNdFAiRAAiQQNQFPfdmos70/rrQewN3l8PzZn7kKFLlpbR1ta2QBZ0fL2tHEZitU+vr9sv7SIs6adbFd73iaNy1UQiD7g+2FCMKepTiOhT005cqVBp/e/q5xFnvhhRfC8RquCDidlbg9cuJNN+x/0/56tjX4nj/gea3cU6NgV/tifLhPqK8sxIFAahzm4BQkQAIkQAIkEE8C1c88HFHsunLz8l6YFWuxi113795dPiwsW4P0XQYcsrvJ8RnMDNAnNUc+38V5rfKHe4OhwqtgH3hwvisVnE3zZpHTGNNh48gcgeNS+/Lu1FNPlXHhip4hLmkb4T9hH3gwQnhj5F2XLhTgtuspR98ZM2aUlpbOmTMHZVV/35M5TGiTDj/d8MENazqluqe2zZjQocujbW5+y9XLW/qh4fiGfVnpOAH67zqOlAOSAAmQAAk0JwHP8i9qX/p7hBW43blPv5xyxJERzJxo1uSXIshCRz3kJLnGzADN0MTSA03cqEexh+xGP5xxzp07Vx4A0crOXSX0eVBoe5qsoaGkt72j5TQ2NIAxurTpr60Cad56ThAGLhB9LeCSgZ8oowb1gQfyEXJTs7cs4WBVbke2OUWsW/YINMJSyU6njaB0i7xraVOgoURwAyX0wgD6z4dsaoi2q4xq63ehp/TZXQ8s2Xf/GV3PE2mHjW9rFBo1mQD1bpMRcgASIAESIIGEIYA4u1V33Cj4fNYryr59ctqg861tnGrV5JeZgCscIs9lZoBmO5rYcMWKhoZug/cqpKdshSxuSF0WclSMlBaKahQMDaTOuIyl5jS20MRRybuhQ4fCIUGcBzfG1k6WVxvxFyxhH3BmwAh688i7Vq1BA0yw8cADVugb8vmikLwYrFfdL//99fKJB94MH1+dnIWYEqDejSleDk4CJEACJBBXAlX3TfTt2m49ZfqI0Zk33mZt42BrZAFXeK7Qqo84o4XCs6OJwxcdfOqpZZ2ASDXMWGEnpYVNTYzFGMnH8DWG14Rnfwi3CapBhgi4IgQera9iEXnXiqX8OzhPR/jng+Sddqh49Nuoxy34ELrhT7untdA8II3abAIaU+8m4EfhkkiABEiABKIh4Pl0Uf37s617pnTvmfNw5CBl1oPYadUHvdIu+0OWfWcklXrfLo8Jg0B+r9Ap7Gji0D6CeD6qnHqiUV6GWRY3nARLOY3NDKTx7Whi/UqC5aO+xaxsmP3B2BiCHrkhkCEi8OAeGPrqLfEVIuxab62Wg/N0aBpa+ToPFP7lyq4vbE87TO1hszCp9Ikb98wU0+wx+5pNZA6ZUe86BJLDkAAJkAAJNC8BT3311LsjLCE1LeeZma6srAhmJs16CYsoY7gBZhhXFX8ER/2wYcNeeOEFiK2qqkAcMXXMrbOE97sLW95SK8RCx5ECkqtJj5LfS35Vf0XUxKqlVAg+9WxZad4Msz+IERgkj178RHnN/WJWCOVkF9kiwm/FRd51CDTpFSfTyufACIb6e0Gr8/v3Wvw3f+/6sKBjhkOqlQ/teugo7y79+GoTC7EjQL0bO7YcmQRIgARIIH4Eamf+w1uy0Xq+7NvuTe1zrLWNYauhhIWQhZyFqIW0hcCFDfrikhMiEshnioZjobJ+v/D9LcKnpwcJuE4XCTnd5R7QcIH8XkEGGe0ENSGFmSaW+hudempZvpQMFKGrs5PSIo5p3hAeAee18iJxSh3I/iDGEkZ4NfxE6DHUBE6vYQNLKZxCyKYi7zqkg/qqUJJGMNTf1ft+eHBP5elbqz6raVD7RSyk+L237/67EDx+xF40aCIBxt9tIkB2JwESIAESaH4Cvt07y845wV8dfJIavK60U07Pe2O+4G70QQ8krHbNK3jMkLdu3bqVlJTIlYhOADfZ9ucL+X1ET1Zo0LK1gi7oVUjfaF7xN3EcQ0I5QQfLU6wR4JaAO2eKEMSppyQEnQkDvHig7PPgdHBcs+3jXxFwwLX494N1BofIuw6fGAAh6/ctF8p/QiMO8vv169e/f//hw4fjrNfsv4ShZ7x8594X+9WuDR8vvMbrSjmx+/tbPjwNTSF5QMKNWeMIAepdRzByEBIgARIggeYkUHn79fXvicerZo8rvyC/+Ct3h05mBmb1jYrbqg0CpQsfTWjQ8AfCF261yl/hw9u7du2Kys2bN4c3STXWKR70vfR5DRIzzZt+tRZleJJAa+KoFcmZkS4YGhHh1RBxAsETQqIxhAyi7Rr/MMABdnWJGMYYwYwR3w0hLwrPV89ZxY64igfvZMmJOWSgwCu0tWH2NbExkBsPKYUn/vaPMyqXGvUOqpvR9tq/fP03qUrNAxJkwRdHCVDvOoqTg5EACZAACcSdQMN3y8vHnGs9bc4TMzJGXmptE94adLJrX8K2PkE485Pw0YJq4Fyr3LJCfbiAs1Z4UZx6Rj7pjHuatyAgsXnJysqqra21GhuRMeAYDf9pBFnDubiNB/+KgM6W9LeafU2f5/msyi8n7/rrMTVWZ71V7uw+G3dX+Pw837WB3AET6l0HIHIIEiABEiCBZiRQfumQhm+tTtRSjz+51X8+wl+mG7VIaEp44spdEJPVMICXfkS9hD1ppiihrB8EFgic8prlv7XujVZrTRzSXc0TJpi5ItjxVbCjiUMmll5xqg2n2/j++T7onyuGq1Irs7sI1VvkNxuOKKqXiBlVOOm+sHVCUVmxOkN4Yfzu2lkVnqi/fviArLEg0Gg3Joux2EQCJEACJEACcSbQsPI7a7ELh93syU82VuxiF02J2yr+WTzi0+SgVPhTPu5RrVy5sqKiAn8Tx0+UUWP4J359njDjpdlJaeFQmjfjBThaC0cUzdcWjs5HIANcsS4DXLFYEwgKJk6ril2c4ofnnLOXfU2/fHjo3nXYQ3WuDH1lSHloTipqtO8S0sxXRwlQ7zqKk4ORAAmQAAnEl0Dti7ITpNm0GRddkdr3OLNWs3ocncp3pCCJIExtPoqEFX1A1QxkZn2Dg16ZWTlVH5InzGBYOykt7Ghig6EF8RZd4ImPvMPJblDa5PNWC32RNnmA7FEN8iijBvUQuOoDR5TwnHNqK3pFyr6m2qKwJ7XN261H6WtCyoOyUzJdgvZdQpr56igB6l1HcXIwEiABEiCBOBLwbS2p/2i+xYSuVvnZd9jOSasbCN6Z8hvuORleO9MZa0WdhBV2faDVm5XiGJQqPE9Y6KLspLSwo4lDxxXE2BSKa2wc5B0cUbSTXYusyFhnsOEHhloAAEAASURBVIQV9n8vXlmzfoLTZ1hTfanN1RaDZblc1xx9hOFhvEUvNkVHgHo3Om7sRQIkQAIk0PwEal9+TvB6LdaRNeEe1yFtLQzMmpoet1WMBhDxUeLpIuxARNvoDHBQjftVcDPFvSgtqhf8hpspzVsc5F2cHVHCs6+pX+rHzCN/Te+mvoYXxh99RHgla2JBgHo3FlQ5JgmQAAmQQMwJ+A/sr/vvGxbTQOlmXHqNhYFFkyZAFUlqYSw3wYEBd/xX3Sm/lv8o4AYYapQ/5RuMoJwcI8aWQatJFSQs/l4PCYuQC4i3hZ8oowb1+h445kR9oqV5068wFuX4O6IYZl9Tt7ag1XlqObzQcdM663+whXdhTXQEqHej48ZeJEACJEACzUygbtar/poai0Vkjh3nyowydbAmQBVJajGR+EdwSNvlY8S/2pevUyz9ohcvapZfIrYa/qEcf+gPPDh8VXpZ/VYlLP5ej8NaaZH4iTJqWkSaN6vtOdHWLI4ohtnXpNx4C/LPt9iW/8C+hpX/szBgk1MEGI/MKZIchwRIgARIIK4Eyi4c6F23ymxKKN2CL390tW5jZmBdHzlardrfdtxWMRfacc+o/cTCnqViXlxBsBOUyn50rURO8xa0/Ri84EhbdtswC7tmNqnyLQRE5B20xMxKrjcKr2b4gXCs+GO33ENTTGPh5Ux5OuPy6yNMx+YmExBjYcToWb9+/eOPP75kyZLly5e3bt06RrNwWBIgARIggYOQgG/7VguxCyDpoy6PWuyiO9J3ybKpbI14l9/s+XqssFPxIoiY3RdnvXW/Caf8SxtMcXWIGLUgKM2byy24UgSfR0jJFnIOFwqOFXJ7CvX7xLPkQBphLadxeI4MHFcjuhb+1+t2x9K8YdJfpon/M3n0ad5MTByrjsoRRUkgLK0Cp/I4jw/PvqZfo3Lqr/0dQBBwyovsayHZj32CsLCq4YpWafre+rJv72/6V5ZjRCAm/gxr1qy5/PLLjzzyyJkzZ/78888RUpvEaGcclgRIgARIIHkJ1H+sqEzDPbrdmdfeathis1IToIokNeiIk11V7EJZ2gl6BXv0kh7bUQtwcKhF10Jfv08Uu3i81aLLxJa3hB+nCLsXC8c8GnV0LWlFcKvASTPkaXFxMUQzHhTwikrJ40JvsGfPnlmzZqFJ6mv4E62wgRA0bI1FpSZAFUlqNYvsiHJJwBHlJ80yWkcU+PIiBHIItC0uq7NFf/kBbV6WYkbAYX+GH3744ZFHHnnnnXf0C96xY0eHDh30NU0vqxmxmXW66TA5AgmQAAm0OAIVV1zoWfa52bLTBvw+77X3zFrt1OPaE9xhRUuc2kLIhosnSKVvr5WHii77mpJfDYNYnIAGpXmT5zP/BZeJrI5apuLES/NmvnRnWhLQEaXunder7jH911dG0SU5T77gzOY5ijkBq39zmPcybrn55pvj+W8440WwlgRIgARIINkJ+MsOeL5ZarHLtMFDLVrtNElxVUWXBvyxfu1kMdFAyKNmUMPJbsRUw+gLm5ptUgJhMfta5Ua5HBgWt81KS0vnzDEI/jpu3Dht5oipbuHS0GGoeMobyFQsThQxrTFyZGybjW1is1D5UcQLQ5coemmbcrQUjSOKHarROqJgc67cPIst+isrLFrZ5BQBJ/0Zzj777DfeeGPXrl2vv/66U+vjOCRAAiRAAiQQQsDz2SLB2xBSqX9NP6epehejWcRVFUOM4U/eeKLOvrZuqrzgvF5SAR4L8FuQK5VfQ4YMKS8vl9+gYm2kuhVdLODtgIXhwSITLM2bsrNY/Y7GEcUm1cY7okib9P2222q3GZlWrWxziICTeveiiy4aO3Zs+/bt8RN/UHBohRyGBEiABEiABIIIeJZ+GvQe/ILswe7CjsF10bxZxVXdtVAeMersa1J/nMWe/bUAd4jAg1NeeC/IIwsCygsXKhM1Kk8YPHrVO3YJluZN3V2MClr+Nhx1K+HeguaCIwqapKdRVNFLCiqH8/7AvUB4J9s52PZt3hi0gOAXd6cuwRV8iwkBJ/WuukA41x5++OHqKwskQAIkQAIk4CAB7/rA2arJiI8u/wFBqXBWquZfQAGvqMRZjEWChvDxTOOq7lsuGysJgcP7Gtfo7aGVpVgNwSlq1Y5NyhNWsV4eJzHSvKmbinUBAlS+Qic5ooTPF4UjCk7WpQd91z+pOqJofwEIn0VX4920QfcWWkzp1iO0iu8xIODwfTV1hQMHDly6dKn0yvtqKhYWSIAESIAEmk5g/zEd/NVVZuOcta1qdR3CQIlP165d8XPz5s2BN4Mf0EZQLTjKhSaeN28eAmhu3LixqqoqJyenR48e/fv3Hz58OFIY4OTVoDOqhpYYXGUzNIULBE6FIZTLlTgAiPOqBr3CSeSiftKpIW73Q7RhPREuzBnOohtHa9dPpNUGl+bKYUOT4BZ40A2/kKuE+ApI/4HH7BpiMBX5zYiqxRVD/Rj+utoDJ3a1SIzS6t8fpJ40QN+F5VgQiMn5LhaalpYWi+VyTBIgARIggYOcgK90h4XY9QrC+npZ7AIUlK6F2IUBLmmNGTOmbdu2IXl3IXnR9MILL6B+2bJlEydOlE8NQ+iHx20IMcCrnaBXiCaG497AI2UIcyBPmDQcfkYbXUsdoGUV4uCIUlRUZPOCfsPSTy3ELsC6D+/ZsvC20NXGSu+63bEauYWC5rJJgARIgAQcIWD91+Et6d3qLygRkFsrp7s2HQ7zjpggVuI4tmi/+BNl1EiXugRh7969mnFYCcL32WefxUUonLy2aROcsM3QQ1Q/Ai45IWyZdLlNX68voxU2lb9IdZDXKEg/xRq9C4RkYf3Twl6aSL13pY6DnBqBB8EN1LoWXYipIwpOdg0jaRgSq/+o2LBeqoQzg7ttOwsDNjlFwMl4ZPo1paSk6F9ZJgESIAESIAFHCPgsvSE3ZHQXHQy2vStUbZKng/MlQm7pD2JRxnUu/K9yvRa+IFJQKilkWF1dXdAu7GdfizS+oFwskzKERZMnTFpZfl95hci+duF28c5W2VqhdKHodeoJhHrAvasmRNfC4Ba+H3bubwUBjNkLJCmctmVHlPAMcCqliAtQHVEUS/xTBJIXji4RN+uvKK9fMFvpZ/A77ewLDGpZFQMCsfLfPffccz/66CNpwfTfjcGH45AkQAIkcJASWHHlH7p89bHZ5v/Zdtx9vr62MkHgmBPKT3rCNbE6AfQi7uNL4WzVSrWAQ+K+D6pvQYUmjA8nWjWtkujngDtn1SVCQ5WQmiNkd9O8foPm070ozrjiYbb6hGwEwx73jNiI+mDXYbVHeAGusSH5ckNsVH/okPrmejVdsJ6M2eLgiIILauZn8xE3W/vi36ofu89seNS3entR6omnWhiwySkC9DpwiiTHIQESIAESiAeBTd+If+43e37J6CFqFOmBijXLBBF1UKqQiaGYoRfDnyaMn5kpBmSVfooDYwpILohdPPiJMmpw6WrxQDk8ltige9T1QBzrH5xqI2uGEvtMHASLxKNE10JRcxrWd1TKOC6FrzO8O5QKg9+SPzQsDdqaoyokwa/2rwiVktmqbDiiRNist6H2telmw6PedUjb1BNOsTBgk4MEYuXP4OASrYfS/ts1skuCe6ZG22IdCZAACRykBPCX9LIDZUKu6f95lVX8Kh/IwTcXbgxmjx1NrO+rz44m1eccLlT9GpPsa4IAvVhbW6uf36AsOeP+9oV8TKtaKM644klw+KPfCCDYTvM2cuRIZMSQx4vkmyH5fth3cg1fprM1cDyQfA8Qk07W6845ophttn7BHN+u7RYbSR8yUuBlJwtAjjbxfNdRnByMBEiABEgglgRwAOkR/BYzpB34Xm7F3+v1Prv6Pk3MjiYNlddbHhKuDojJqn+aNj6Urux1ijGhLHvipt0C3U27BWIN6qUHx7Rfj9VPLuZ+kx4EOzN88M8A6aIeFLO9NG/Q35rYxam5jYRkhuniDJcTz8oYZV8z3GztzGlWW3O5Mq+80cqAbY4SoN51FCcHIwESIAESiCUBXBXyWMldIVW9pmYRpsCR7Gh7lgpdLpP3CtW4YqLm2ODI+BjanrIUEwirIRfwZ3ooYOkpPF8uhPzCPwPwjwH9EynNm6a/G5OQDL3gPqufp9nLscu+FrJZz6eLGtassNhv2lnnpvSQU0lbmLHJKQItXu/CY8HicQoTxyEBEiABEkgEAohaYK130+r3yOu0uICvphyz0MSGu9Xb48q/O02AUpQenPLi1tea+wXo4Kizr6Vma9M2RlkaOOMix4R+tdq4gZK+Cdo3ZmnetBRxIQtopld4NchxlGOQfU3brN9f/fRD1lvMvPZWawO2OkugxetdZ3FwNBIgARIggUQmUFlZGUHv+pV4YWbODNgeYh1Ij4Umli2Cf4XYQ+MWHKedlUpBr5YM0zKohdgHD2bwtuM9udLipp2+my4RsXhLT5fqVuh9u94wtKwuzJ0R5P6ruDrAyRWu0uiFn7LDq7U/dMgEYeOEtDfjq5YE2GlHFBVa/fuzveusbvWlHHVM2qlnNiOEg3Bq6t2D8KNzyyRAAiTQUgnk5uY2WPrv5qVmyHuzuIAvxTqAnYUmNiQUbi/6v/qFE/4h4Dw1/Am3D7dRa0Sv30Cq4aiUpXhLT3XGxZFtx5HqwAYFdWE+5Z8HkhHqFVcHp9K8Wcd8gJ5GLFtcI8OXxQV0/EQZNZLaxqIiGhjszrIqptnXxM16G2qeedhyCULmdTzctSbkfKvpFVfnp+KIJEACJEACJNA0AkgAdmBrQBSajNMvC0G4KsVGiwv4CNQlSV5oYlX5mQwYVK1oaMiyc845R77ChWPCbbNFmdjpIqFyg3BgpRwgAj0bM376rvd7pruPTE85sv0xHUofTPfXp/i9KYKv3pW2Ob3LsuyTl+WcXOPOCloPXiSF+ovuahRcLKTAuqGmundlI2JA35AHrg6B0RxI86YbJ2QSvBpGxpXSOOOgFJmcu3TpArMtW7bo++oN1PC30MTz5s1bvnz5xo0bYZCTk9OjR4/+/fubpYRA9rXS0tLQz4eNR+2IooNW9983vSUb9WsOKbs7dckYNiqkkq+xJkC9G2vCHJ8ESIAESMAxArhfv37TjxbDHZvhkltxXIoMaoZPdjdZklpoYsOOSqgvyG6D9F3hXczHT/U3dK8vObL256Nq1x9Ztx4/D0/ZmNpZUp+rhP0Gfw2H2H2r9cVT2/+5LEUJziDNqIgt8Q2yO6LYhZmyEYOYZYqrg1Np3rREcdJqAz8R8EG7A6er1xdDlK6+SSpDFiMe8Pjx40PSQes1Mc6MccnHHQj75fP5ENW4V69ekMLXX399+/bt5TU0JfuatBQF2rZfN9X8/dHwpeprsibcI6Sm6WtYjgMB6t04QOYUJEACJEACzhDA/fpbZ75oMVY3obrA7Trg84tXuODDanh8i0Bd+Os/HgtNbDiHEupLCmuFY8JBgwZZ5RvTjd/Js/2YmjWiwK1bj59H1G1M93sMJzGrzPLVXLf39cEVi0d3e2MD0mqojyK2hBBnXNUgvKBsREzVFvIoxOAqjRbpp2ii1IeYm74q9toIimnkUL4rJgiVSjroSLF+Q8SuMon8G2IXJShd6R2x3qCS8eD8GMfDEydOXLx4MV5DekW92Yvc9dYxd1N69M4ouiR0Or7HngD1buwZcwYSIAESIAGHCOB+/V+O6ltWsSnfrZzjBo/sEvwXH9r5xdItppkgYF84RA7aZaGJg4cV3+ADAPvAo4a1gjMoHvw9HY6bcADAWSbkHQ4RoasKU13Hlb56fJuM4+p+Pq5mVduGvVLfJv7sUr9t3qbRp/X6ZH9KgTyUoiyFEGdcs5l0GxHCY5Yprg7w2cAA+CkLVtSrE5mNrK8PHkdtCQ3li5tt+mFR3vaOJnZxby/coO1pAv5XsV7Y9aE8bCRNrM6uLwR07yr4Cv/1r3+VPt/q1aslfdwoRxRxTGWzN7RW3Mf1M+nKWbfdK6Sk6CpYjBOBWOldr9cbpx1wGhIgARIggYOJAO7Xr7rtmtOzTEXDHa0a5u5x/ebFEe9rQlYng5TCheeK18twxCsFpUKWXTuPkncX54JSsi61E17x+Pbs9q5Z0bD6e/xv16cftfEH/n9wzwzVzKlCu4bf7tz97F86PCAPqIgtA2dcwymVjYgQ4AsR8iiuDvDZQAt+ysef5r4ZIQPIr8HjSJXw2dXcGBBwLTzbc0ge5nADaSDEG1bFroUm7nW7mC0Z/xlIDw7Cq7cInnL5NfAL64Evr5QKzm72NX1/qRzY7ICslMNN/6sU7VL7Hpd+3vDw3qyJA4FYxWeoq9OufDY0NMRhJ5yCBEiABEjgYCCA81TP0cda7LStr+K/XTselho4AA7JBKF2U8N1hQelUm30BV2oLzWglf/APs+Xn9T884nKmy87MPCoA/2PqLj+opq//dWzeKEsdvUjOFq+fN9/NHcIRVkKKWGXz8In1W3EOGaZ4uog+WzYSkgWPgtqgseRTLQItWYB1+zkeQ7RxPjniv6EWL8Y1KMVwlp6AKrfI2IWj+BHzY7WxM1e2SqCV27WHQ8ILuO/SwSviG/OE4iV3q2pqVEXW11drZZZIAESIAESIIEmEhj5z5etR+jjKlveJW9iQbp4ew2KVs0EIR2F4mdGO0F1ezXTxNIcMEbutECoLzhRPH7xiOH7t1feeuWBs/ruP7FbxTUja55+qP6jYmuvTevVRtGa66uEj4TcUVGWQt3uoDRvIePqNiK2dDOKWQabYJ8N1XNDrEerzSdsHPSD14d8VGwWcA0bkfyqzQyk2e1oYv069VGKf/lnkAJWzHDKi7Pnpmy2tdt1YY6V3k09aUDawEHKhPwdbwLivUXH5ywrKysoUPyKBOFf//rX5Zdf7uwsuHEpDRiL9Tu7VI5GAiRAAiTgOIGKscM8y7+IOGyFz/9ljXdxdcPiGu9mj3xpybgXNBYkIP6+n983IzWzc/VPnQ981Xn/5/jZye3pnObukurGmXHinM6N6fbax3m/FzUo1DwcM9RHtxHx4BMGONeElIRgVc0Qs0zKqab2kgpQ9oG//sNnY+XKlVKd9ld+nIza9P0wGkeLyXDEBKHvgyEzi6/wUpDUtpkBbLCR5YH7XtjmeatNT3ZDRtdT6j9LgEOLskIhvbVQvx/m0paj3uxN+elT21o57+Y+/1b64GEh6+Jr3Ag46b+7b9++77//ftu2bdOm6QIBCsLYsWNR2bdvXwQB6dmzZ9z2xolIgARIgASSlUDm9f9nR+/muV0X5KTif+Cw2+svbfDv8frg2rvH60cMhzSXqyA7S6ityXC5Ml2enMqXOpS83DnVfWiKTtbmo6vVuV1zES6XopKpzriKbhNFLQLf6iPyhiwRst4wZpnO1UH12UBXlBH2SxwDUtjQHzpkfJNxpIC+om2407A0gp08z7sWyrNhF2ZuDLKF7hcsYS8x2fWBqHdxDQ5Rk8EKYjclS/DW4OwZJ9BRb/YKS2cG96Ht0wedr1sQi/Em4KTehdgdPHiw4Q7uvvtu1P/pT3966qmnDA1YSQIkQAIkQAL2CaSddW7aoPPhKWu/S7sUF/4nCCGOfF4hI93+IAli6RdcP2X0CkognH+M0Hm0gL/XSy4BhgttdZTQ+06D1Gs4/tTd60LIAjhJqwOgjKBd8j0z+HXUbAuNmaCaWo6jBeJVPUnUjlKhukSuMDNAsx1NLI8S/EuNUiyNoFfAOT2E8jWwRpQGxJiLYrMnZ6YcmR7y31XQ7BmjxgopTiquoNH5YoNATPwZbMzbVBP6MzSVIPuTAAmQQAsn4Nv7W/kF/fGzhe9DW74rK3trWtaX23ft8/pvKbBS4d9kHTeksrsWeUAaQ/JkSD9ETvNW9avgrRZcbsGvOHLYcHUoKiqSghVoywqUgoLmRjWO+n/cQpHoP2DwzG0tV5oZoLm4k5wbb2hJI8530RFafEE3cXyklBu2TSzsWSosCTgY5BwugJXi0oBCYzf7wQlHnFxWKo5p+ODPCJ+scHc53LCRlfEhQL0bH86chQRIgARIwHkCcGmouOYPgqfe+aFjP6IrI9PdvVdKryNTex6d0uuolF5Huzt2wf19iK2TlnwAf1CLJYzfI8wqk312u3XrVlJSYmFsvwknuzjgNLPXHHDNLJR6w3Hy8vLkUL5mUtWOlrWjiZVlhP5W+8KFF14N+74WytfpbRA4Wb1tb3+zd1595d3LioUG0+whaaeemffGfP1ELMefgNXxe/xXwxlJgARIgARIwD6BtP5n5E3/tysry36XZrR0d+iE8KtZEyfl/uNf+R9933rVzvz5S3Kfeinzpj+lDRri7tRVClb132l/G9c602KdcD6eWy6LXSjLX3/9ddasWbhuZdGla+CxMEB3DGIhdtEXrREnshhHCugrrkENoBayIOR5lh4zA7TidFZ6cF7bqEe1x4H38jHixbhgsYvBkCUE99UQqAFl+5udcmwvC7GLoTLGhEZAa9TCaewIAZ7vOoKRg5AACZAACTQbgYYfvqm8Zaxv965mW4HJxO52HVL7HZ/S7/jUfieg4DqkrYlhUHXl7dfXvydKLrPn6f31U/fVQVnicpXe0TYkzRtSo0FiIqYswmwhHQZGi2hgNmNIfXTjaCemZuEX7MRnWDxQdlAeWCy0HRCyMKtX1XvBykhu059PR9isp/7A6Ucj1YjZqO42hxYsWSekWZ3Wm/VlvYMEqHcdhMmhSIAESIAEmoeAf//e6ien1L3zuuBTfFWbYyEQN6q6Tel7vLtdYWNX4V23qmz46YJ5qFCv4Hry9BFnXDRGkrCNHb8Z7SEchw0L+MuahRJDyjScvOIxM0CTHU1suMk192sxK6LyPzYctf69WZW3jzNskiqzbr0LJ/oWBmyKDwHq3fhw5iwkQAIkQAIxJ9CwdmX1g3c2fLc85jMpE7gKDkGSWBzfBmTu8fBYUFqi/F1xdZFnyWKLzukjxuQ+9aKFQSI3RY5uqx7fmsX6taOJwxHAmUGNUtz+bOHEl43vusEsOE6FtYMH5in/w1kNq74Pn1CuSU0r+GINjvlNDdgQLwLUu/EizXlIgARIgATiQqDh26/qiv/r+fJj3xbx0r2zjyu/ILXPcZK6TcUJLpxunXs8X31WceVwq/HS0gs++s7ZSa2mc6ItxB9AG7LzGOF3YXfjkCv422tlG+QBRmq08CeiJg7vomaXQF69IevD24NqED84kE4PlfBX1nuMBJkh5AOuS44NnFiHNCiv6UNH5f7tFeWNv5uTAPVuc9Ln3CRAAiRAArEjAL0L1ev54hPPd8v9B/Y1aiIc3KZ06uI+rDNiJgT+1zmlY2f3YV1cBUrMrEYNZ8fY7y8feWbDmhUWtplX35x972MWBvFpCpGw4Y7C0jJw8Wvq1KlyDmHDlSFHRt+HhS6XBTWqHguoxSkvEkOE5JWwo4n1I+r0q3DSTIPww3pjqazoYzhJq3nmwq0qLh/q+frL8Hq1ptV/Pko94RT1lYVmJEC924zwOTUJkAAJkECcCPirKv17f0OwXvxPKgjV1UJ6OoKCCRmZrkz5pyu3lbtDRwhchMKN08qUaeqL362cqBxtKpX6367cvIJPV7lat9FXxrkcUcKqt+i022kRl4jsEv0eRRpnUdfCowDBGX74P6Fqk9zP0Nd29d1akAdDTSx1DvZPEIX1Cf+IuBzRQOf/UFxcbOgqjT8jlF9qlTIttc+xrd6zUsO2VkIjhwhQ7zoEksOQAAmQAAmQQNQEGjwHBv/Ot7XEYoCsP92XNf5OC4NYN9mXsEEhgQ0F665FYkQwpPN15LEzRU53YfB3jZhNud+mj9Wg715x1QjP0k/1NSHlnMeezxh1eUglX5uLAPVuc5HnvCRAAiRAAiQgE6j5x+M1zzxsgQOhHvI/WdmMkYYbm3JM3ov9w9ewzSNkMOo2b94c1iJXtGnTZu/evWatofXRxi8zdGlACLzyi88JnUL3jjtqBZ+tEtIzdHUsNicB5ptoTvqcmwRIgARIgAS8mzbU/OMJaw5Z/3dPM4pdnOzOnTtXXiEk7Hmrhb4PiuFvJc9a/EQZNahHq/q0PkE47tlQ71u1Fb3QiktpugeuwNCXOFKFFwGSxuFBAa+oRBMM9QZ79uyJmP9CGxv+EjYfhICAD/Eq+Sh99erVCCsBAvBaVgeomfaoWjYsZN54G8WuIZnmquT5bnOR57wkQAIkQAIkICDUbvllFzR8u9SCRUr3nvkffC2kpFrYxK4JPrtjxgTC4mIOs5gJ+ukbez/M3uUw/Qwh5ZD7c2632xcehrlof0gvg1fchFv/lJzPwqBZkLyT/3DkEQhDZtQu17kPbZ//2WrRNZxPwhCg3k2YT8GFkAAJkAAJHHwE6t5+pereP1rvO/efb6afe6G1TexaIwfNDZ9bkbBCqz7CoCXh7UE1Ni6HBdnbeFEVsBYdYmiJ6UmzNKA+LoTlFEtPOfLIPdstTLL/8tfMa2+1MGBT/AlQ78afOWckARIgARIgAZEAciCXnXeiv6LcAkfq8Se3eudjC4OYNkE4RkiKZji9TsIK/WcJhecaWmmVkS6HaZaNLGli3dp/9+uxwk7FXcHy9tsxGSmfdrKK3YEce/mfrWlG55NGEjpYzOm/e7B8ae6TBEiABEgg0QhUT7nDWuwKKSnZk59sxmXPnz9fnr3b1RHOR/WrhG8u7KVn1wf6FuNy4XlS/bJly4wNoq099dRT5a6ICGH24GRXFbuRvJMnHZJuNoxUn3ndBIpda0TN0kq92yzYOSkJkAAJkMDBTqD+w/n1i+ZZU8i8ejzyFVvbxLRVE6CKJLU7nWq/79vIXZTLZJs2KWF3I/exZXHhhYofCMKf4dQ5/IHPLpqkB97Jlhfszu5RdE62lRc10pRkjB0XPglrmp0A9W6zfwIugARIgARI4KAjgGPd6geMkuXqSCBvcNbEe3UVVkU4HiCGAP58n5eX53K58DMkqkBEA8PRNQGqSFJDs6DK4PgGQvmPAjIA4wzV4oRVivMgCJWVlUFDNfkFqSJwyUwcBrF+1042GA8X1KQHJ7uG6YuVPqn+hod3Pqi8Gf/OvH6CKzvHuI21zUqA/rvNip+TkwAJkAAJHJQEqu6bWPfvmdZbz3v1vbSBv4eNevsK6hOKMCR/b8ScZxED2UphB0aPHh0+kSZAnYhvIF5f6327QUZfnLwu6IadYmsVFQ4loVDgWsWXgARffoloCJ9dBFNTZLfSNej3DXtfeWSHkWJWrFz5BQVf/OjKyVUq+DuBCFDvJtDH4FJIgARIgAQOBgJiKtrLhiASmcVmM0ZemvPEjIhatnE5FyzmE4QIQzkX30B07T3umaC17FkqLBmGGijvlStXBjU58RKUGQ7nuH2myNJWjclwxAQxfrD509p74H/rTy/wGnlEKL2yJk7KuvUu5Y2/E4uAlRtKYq2UqyEBEiABEiCBlk/AX11VedfN1mLXdUjb7EmPBKk0k41rCcYMowr88H9CleIRa2igy+urDWU4V9kaMamE2WM7voE4APxl634TTvmXNpji6uDxeLRK81L4OXT37t1xNQ3eunBgCO83ffr00tJSOWVGyWvCttmi5oaH8b7lsrHqbRzeOVBzd+nT1mIXCfAYg8wEXkJU83w3IT4DF0ECJEACJHCQEKi6e3zduzqpZ7Tt3KdfHvPKW1pKs0hSVRwDiq3/20GDqYeXqNUfagYZCeIf9BW5Kf5ZXxKC8NbFH/fhZvDdTcKuhWIPixNQmxNhNHjQQm5Kj3rKi/pF/UT/2sBTVFQ0Z84c2SbsV8QD78MPP7xHjx67d+8O9/1ArIkZM2aEDRmosDy97l234YsN58F/17hvoDbnseczRl1uYcCm5iVAvdu8/Dk7CZAACZDAQUSgfuF7lbdeYb3htDPOuTO9nabMLKSqmYLEBAg78O218kQWSdEiSlVcPlseSK4GKWzo4WpzInXP4dnX1OQUig0SCONEVnnT3JfXrVtn8wBY7asvwFli0KBBixcv1pJQqM2W3snvlFwxqOJz1Ta8kNrv+FazPxNcrvAm1iQIAerdBPkQXAYJkAAJkECSE/CV7igbeqr/gFViW1dW9pcTJo+4cbzMwkKqqrTCFSSaEBKhfK1oArmMGFuGj02paj2UdavhvKrAxfW1jkXCuqnhVrNmzcL9OdPT3PBzaLhb6HwzwgdUayCm4faAs16EWlu9erVf8qI2P989t2Lxv0uuVrsbFlrN+jD1d/0Nm1iZIASodxPkQ3AZJEACJEACSU3A76+4aoTnq8+sN5k96dFTnp0hH0BaSNWQUfQKEvl7ofzshB2wKVUtZLHNiUJWG+zAIDfm9RIqflYNcRYLf1ztkFttQKFRB959HhDCpLDqMhEx+1qav2HJhsFH1G3Uzx9STh86Kvdvr4RU8jXRCDD+bqJ9Ea6HBEiABEggCQnUznwuothNPe6kTw7tIotdHGEijIDNB5awx4MzXXggSB63eIWPrFmMLUhV6QA44kQdR4rjSA/OYqGtIVilx85EsqnuF5akDihVdxgqnP21gMNs5QEETeymZCnVgmhjmRJCbFXHwcW43YvFa3aIvQBnDAjlwAPHaNwFRDFi9rXr9r5mLXY97pTsux7SlsdSohKg3k3UL8N1kQAJkAAJJAsB77rV1U9GEK/IU5Dz1Ivzi4vlTVtI1XAsegX5/U3C5tdlk53FQYkepEwQONYt7iQfAMMuu6uwVwlTED6yVIPwYZCk0oMLZ7hetuZ+AUHEbMc3CB1YHw8BO5ViNSDdgyJJNXvU5HSTX1G2TAkhm+nHUdNJAJFOCkNMw1nCOvvaId79f94dHDdNW5ZcKh08wn1Yp7BqViQcAfozJNwn4YJIgARIgASSiYC/rrZ8xBneX36y3tTjGW0PnH7uokWLSkpKRMuBxVbxv0LGgsvBjw8JVb+GVGuvWZ3E21TVW7WakJKaCUI8Hv5AQBLg6hKhoUpIzRGyuwmHnCSeE2/4W0gn7dXc/1WzkUry+F8L5evkJkyN8QvPF0NMhLg64KQ2v58t34yQafTj9J8lFJ6rtSu+H1KsX82lAWI62NH58R33XrdX+ZeD1l8r7XWlHLFqO1yutSqWEpUA9W6ifhmuiwRIgARIICkIVE+5o/aNF6y3UlzVcNWumiAb+wpSH2MhaIjGv7gzBF9dhG7prYX6sCt3lvEN5AEhynHaKjlRGM4hae79Pwi/TBPb4dELJwd1dxYB0QxHwwm0NA7Oj/XpLXRSuLi4uKqqasyYQAAKDAJ5rZwfH1W7/vNfzk/xew3HlirXXnzd6Y9EOAC26M6meBKgP0M8aXMuEiABEiCBg4uA5/OPIordXQ3+236rDeWy9oHQGvVd75Ywt7WYvkF64IkLUYiDYWhlCFD8RDmnu9pP9PENN0CN5PsLu4hiFzaFQ8RAv1C9+kf16NVX6suQrYiPZiF2YYxW2FT+IvdzpYgFnDRLj94FQq6y/KXaqyNI5jrfD0RpQBQIRGyQB9J5J0/dOcVa7G5r1eb0vz5tuQI2JhAB5ldLoI/BpZAACZAACSQTAf++PVVIpWb5+AXX+J5v7evbLzSMQHgSMoxjcUSKP8eraXKlGSHstr2r5VczNMBdLvyv8merlBMh8Q22vCV6Hfjqg7blYPY1eFNIT/UW8TfcKqQHKTAa9aj26ghqd0jhwNEvQpKhLjz72vndzj7Tv0Q1Nywc/fIsBtw1JJOYlfRnSMzvwlWRAAmQAAm0cAI+X8W1f/AsWWy9jX+2HXdfh/s0G0hJwyRksFD/sq9ZKyXdH+KVKudSTkgjhixMmyZQsnA20C87XHOr4xiOj1NqHGBLD9wSwr2KJa9fdZCQgto3xN0Ccy3oBtvc3NyKCjmvm5q9Oc0lfNU5p3ua1R/A04dfjBx4IbPxNZEJWH3ORF4310YCJEACJEACiUyg5rnHIordtZlHPVx4V9AugsMIiL4KONPF8/XYUL+FnMPljhCRitdp0FBqaAIzA1hjcNUdAqLZfqivoJkEcRCIyPCnKeOnZIjjST9RwBRweMAVOjz4iTJqEGYY4SYkRGKD7lHXgyt3IQ8gB57Kykq1Bae8SHKBS2zX56dbi11XZlb2nRGibajDspAgBKh3E+RDcBkkQAIkQALJQwBKF3rXej91rowbOk+rc6UbmIVE1MIR6c4FshnEK0LJwglBisZgFj3XZnhdO5pYvz79wqR6SXY3VIjH0uFPk8Z3iUfa3kj35ySvX1iGPHCxkB7Elwh5FCmM8119C3x5Vyxd8kCXNvrK8HLmDRPdHRiDLBxMQtdQ7yb05+HiSIAESIAEWhwB367tlbddJ/h81iuf3OEvP2X2MrXRp5AIP4JVxSX+yq+cVgYNZScThE1NHDSuIHoJq/fb0JTXW25HXF5kNtY/TRzfW6udPUe8aQdEOALXP5hdevwN+mqxrEjh7t27hzTVvvi31Crt0DekFa/uwo6Z4yaG17MmwQlQ7yb4B+LySIAESIAEWhKB9+fNWzX0dP/+vdaL/iTvrJfaXG1lAxULLat/VLcECLv/Z+9K4KQorn7NzN4HLCynwLKAnOIZFRFPgiICQTQRBOMZb4hGY7xFY4ga4xFNgsQj6pcIaCIgoKCIt0AUFRQRRS6X213Y+5yZ719T3dU1fVT3zM4uO2PVj99MddWrV1Wv2e7/vHpH5Uath0chEClR50EJnAhA4wUTm9ji0rQwZJ0omqJRCfENaEtC+IMPU2kjRxq02gzc4xN1tAhZ06gKnGt5ocHlPxIgKwcobORXi2wg9MNepMGLVB0/YMngyxbyvTkSqo62JQGFd9vW/VCrURJQElASUBJIFgksWbIETk5IWJCfn+/zAQXRsvby84vKf5Bv4Ye0wmk9H0ZkBjkZzb/AC7dbEG0b0MujEHBKVuFBCZwIQOYFE5vYsktxYbBk8KcnOPtampDBISarYmBcZssL/TcWxosDFDbyq0Uoa594MFxbwwdZK0j4DE81a7tqafsSUPHI2v49UitUElASUBJQEmhbEkAq2pkzZ65bt05cVl1d3c/y0q5q76L8CxHf1b3+sjetszjWvi5CVWa3ILp/sTFM32kdz/y60O5EgC4vmNjEmWdHE9thydBrEtVGM5UqgCaifbFcD4xM3Ig40Km+81Wth6u0nShZO6yKa0sIloECi+Gq77Q6LnucS3a8Qtuxts6nkB4TqZ1xBArDNW3s2LG0K1JC27fUz3tOu3D4yrnjfhWDzEE2bb1Z4d22fofU+pQElASUBJQE2pQEeOAq06r6pfuf6JxlarRePlRW93bNP8iwU6xd5hYRqjKVKnf/8qURZpaKg3uRjLNAUAIGeZ0IQOkFE3OGgNqYHc5htuX7eTQDRZ/LSekqGxrbFdryQSO1+t1AO7lK24lSbIdVcckrFMhihXyRgODIrJaebwuF77jjDpFBzSP3kaZGscVUzzhjXNrRx5sa1WWySEDZMyTLnVLrVBJQElASUBI4+BKYOHHi7NmztXUwJyrkGyMky0ee65ad53cxUXi7punP+xuiLE0le9LDCFASqEhF96/8/to43fXKzIYHJXAiwAAeqEucyMwocg0jCtfsaEgyvOUZqv4cMoNa9CI5MC+u/DklKomy+u0+VksjzB3sgINhYRwpyKmGaAx82uBXaxuW/Jdf2lQCgeyb7rZpV01JIgGFd5PkRqllKgkoCSgJKAkcbAlAs7tgwQJtFcyJqsPRJJIP7OHOWUMyXF6pO9O7X1VwjRa1AcfrtlFjxT2KUBUqUhEIdhymEfIoBOJA1Dse50KAbi+YGGTW0L+mlMViRmKs+at7CXKwcSUrOIgb0Zbl/JUQq2Jodof9S5sDosOlUM455xxE2xUaSM2fZpBwWGwx1TPPnRI4dJCpUV0mkQRc/jiTaCdqqUoCSgJKAkoCSgItJwHY7BqaXe5EFTEw+GW79Mn56fKpG31plxX9vXTgXTTaACvcOMFppIhloSIVgWBEqUzHATfbak9dCTDWCyYW3eM8xkmwbkfciLXX1BKfVTHWue5mgxNkhRY+r+BgB83u/PmRFB46dePKd+WZQXyZWdm/vk0nV99JKQGFd5PytqlFKwkoCSgJKAm0sgTgoKbNyJ2oAKcq1h+e6X+wk7vZ7oxud36c8xPKQTxeh/uXUwGKBZblBSpSEQh2O1MzGIDFKo/Fy4lRcSWgNNQSgxYn0Cy6x3GIz4aYPqFDRW420NgWJ/62xLFaFSO/2qpJdAvM6pfxhHYZLci+9sZR5MOJIhReuXIl9PSIrcEnr33ILlMG7yYk85dXqgQTgjySsqrwblLeNrVoJQElASUBJYHWlADgkRaNQXSi2r20nd/3z67ZmS5Wu+TV9mfP7nSZtmDxeD1iC2G/ET2MgNYLbG0CggNv0rqsiR5YhyuBKybmGmgO8e3Xqrdas6+xHidQro+L+oYrHiu2emuR1ItVcc02su8dEQrjPkJPP27cOASSg86+YemCpnWfilxNdV9+u+yrdVGb+tRl8khA4d3kuVdqpUoCSgJKAkoCB0kCixYt0maGJSgAKytlH/+tS1afdJc36ebMPtN7Rice48fr3ETBtC8kKmPRtXg7tJUBPSotA4IIrcXNUk2JHtgoVwKQSTBxRHtNOYkQn3GWfHLttYnGCZSbyLBxng5NbvUbk1WxaZbIJYDv1MmTtv5uml2n0Ybswb6CDsa1qiWnBFz+SpNzU2rVSgJKAkoCSgJKAomUAA7BNXYcqhIyLW3b2bm6MtJhtjp/1sVFs6v8eVH9PB4tN1Hg3cCyn9/AwwhQRMsCHUBFGsjUqDgQRLAtRCFgBYBy2eHky7sJEp4xQIzPnj8nuX1lBJldjIwVJtAsusdxiK/xcv4Stdf50dmSTfxNPEwbRy8At1OJz6oYwhy7lcDZTnewm5qf3qmmwmkStPu7dMu65DoJgepKFgn4wlKHxDa7DWSyYWtL0vW3WcGqhSkJKAkoCSgJWCWADGpVVVW0HYApAv5OqP544XfnpblZMiCP2pwOv7AyJAt0lSFjCLQHFAuEBz0uoC0rwLIIMgAjWsQCEwvgGlLp8gLwh1EJKz6SWUg6HEsqYDFcQrkCICJ5r/cCwP3BOErebjDlwLfDOEBbDNyJnw0A/ZCk7cY5JdIFW6G2KBBYDMOIQl6gM9bDkJHjnqUpJ1Aay7PW37kmvKCb9Bbm/v7RzCmXy9mr3qSQgMK7SXGb1CKVBJQElASUBA6mBLiShZyzH+vo1FT67qazujXuka/p/zpecEOPB21oAPKWFNu0i00AhVDfogAEw+9KLICMJiAICChJBiGOjaOuQ3yvQ/nuEN+3+DIt0VpOL1LzvScOsN/1p5FgHSWG3TDc4EwFDmos2Jltr4mYXUJlzuxDoCwf+QFru37frLt3329LzhoDxf3aL/uYBFxU+BIOqqvtSEDZM7Sde6FWoiSgJKAkoCTQRiWQl5enrayxPC3c9Mz261zB7hdZh91yiKCFFXfGDRLERl4HJoMakoFdNHK7Ak5gdf+CzhIw7oS5mv0DSySBT7AyGRXgEo080wTnKamsv8exE/EloF0GAF3ck2qs8Yk6p4eDHTf/SGtn2GM4sot0wH6XgV1cWa1+m2lVDKAciYlRECy/ft/f5AvJvvEuBXblIkqiXvWrJYlullqqkoCSgJKAksDBkUDfvn21+AzlX/6xYelJ1R/J11ERyL+095P1Pt3i1kStW6YWFhbu378/FIrkoMjtQzqfSmOEIWyCWLhPG7p4PAcAweye5qN8gEuOLxkH8SiftVR+Q6OGHfic5nhjxdXAAMYS9fuM9A1slK1GGQAXgJIpX0EGg2PRUjlYr83oTyd5/UjVJhJq0lokXzBFqC2hQdyYYQNH/9B/W00dnPiAEvSbnqD9kGG3M6/+4Zn2QZnlbtrQozLGRCwfnHiq9qSSgLJnSKrbpRarJKAkoCSgJHAwJICIrSzZxEWHjn407AJ2scBf9n7qtXaj7VeK4344lkWsWhcvXjx58mSTZbB5FJSmLBIZ7Ar2riBrbyLI3MsKDvQ5EDQNwyyIaMYO8dEFtIdiNfONiQNXOXu3GO46iuxZTqdGgZUCA7iwP67e7A64v5tlxGrgoHzdb0nF15Rb/FbFh6Wd/s4XXw/r0rSP8nEo+c8vTB9xukOnak4+CSi8m3z3TK1YSUBJQElASaCVJYD4u4jYOjwrMP+QnHQ3H7W/drpqRneHzAtYt25LesQRR6xdu9ZkGWyzL+7ZFjEdNruvcSAocf9ifm9gjRheXK2Ly/icvUQmXmZnW4IFRTioGSqIimoAbmi1971Hs8fVbKXIHpRIdIzcb51PIV8/QKCQti3NsCr+2cn/+Of2q225skYgXeBdCYHqSjoJKLybdLdMLVhJQElASUBJ4CBI4MwjDvtr5fZOARe0uyr3uAl95jXxpAmmlQoGBvPmzTv//POtkR9MI6hRLNfv4lyee2uZ6RyuodnlelmQvNZXUw/H5+wFGMqVxN51w5g3owNprDT0tWyxPc4llRsN+wfrDpipcdn/rD3McdCmXdKk/3J45cgxp1ZpXms25D5fu/nvwp7Bpks1Ja0ElL9a0t46tXAlASUBJQElgdaSQLi25on0Glew+wPJvLz7A/ZgFwYGYmBdQlasWIHlwzJY24STExuUnaywgGXMOhaK1WP+poXm1botXz4/6XYWDcGLqVHw+c1jGtjFcBhCeCygBD0KpuZgF7phRE5wsqBFuym9MGwweCIJNi8853a8IgO7bEaAXZPLHRvONsXqXj51+j5ZuadUfSgZkTH6ZwrsSuSTpF3KXy1Jb5xatpKAkoCSgJJAa0kgHK6+6YrO5aXy+YKE/Grn/t3bfuoxviwMgvfs2TN8+HDNEw5ObLZhbqFSZRgXBDyWLbS2RVPoPzR+eo1h0QtjAH+GdhkO0dgO3MFLXD2GO0FVkYzVQQl65uzFWqDZdY16C0rQwNWM2xCLnKH/5oYKrkYRoAS9CS4D/duKS5xFrOs/Jy7pUOAjMk+1rItlpg4iS1VPIgkoe4YkullqqUoCSgJKAkoCB0ECtX/5Y+0TD7hOfMcP9U+WN7iSUZCKAAU6ChwzZszrr79ORwH2maLqMl6In7VqkkaQ08PGW8tk8ADSL24nW/9pRPVifMRPxIIYcpeWeUFsd6rzFBIgcFqn7VhoVXXnPNt+GmHXo8sdG8/j+JqSbthzF1qReW7TE5k+8kXfToVEjxQh9LNqoN9AGnNXlZSTgLJnSLlbqjakJKAkoCSgJJA4CTQsXVD7V7ucEdFTvFjZ6AnsIogY9K9w2II9QKQA7Pbu3ZtWrVF1GQXCk8GMlRFUbmJtNM4Xj33LrHvR8f5YGg135S8IIhvwELbagOiv6i00ZxuIPRYeVgz0ceiG2Swwrmg3KGrCWI0i6GDdfhqWFbqJQhRP2wtQRiwxxuemS8AuhmZecJktA9WY7BJQ+t1kv4Nq/UoCSgJKAkoCLSWB4IZ1FeefEa6tlU/wv7rghJ01DWGBChpcGntLbBJ6UQWEzexE9r2LKvDutm3btG5AQKupgJhBl9FhOA9zq420fLnaCWAED91gGW1u0J29mhMITIvAwFjH4TCHgSx6A9t77BwWFXU6Md1RuRtKzyhctcnXvsC8d3Wd/BJQ+t3kv4dqB0oCSgJKAkoCLSCBUOm+yqsmu4LdHaHART/4KNgFFAMMhfoTQWdDjTKwi9UCsQHsAhYTArALqwZtB0ivALc2k+YS6dPAViyuYBdYENYRQ39PjVyZqS4+UUcL2tHLCsKTedHyiusRdb3ikpzqnJ6FG2NkwOJxOMxhLJTZA2/SpoJNCOJduBbQRKxH+qf7JWAXbLLH/1yBXVdxJimB8ldL0hunlq0koCSgJKAk0JISaGyouu7C0M4S+Ry1/uwLD31l35ERewNGivC0PMOCq4aVwmJaioqKzjnnnAULFtALgLOSVyjARbI0gEXgVMBNhFlAkFqkaeDFxHz7i+TT67ROWyUxHwiGCJ4AywpgaxQc9CPSLSC1pOjOXpSEoWcrMewrkLrMGkYXZgysAKrylBNxGEUwhzlwwFIhioh9At2CmH3NtCrITUi6MaHncYR8ZSIRLzOnXC5eqnoqSUDZM6TS3VR7URJQElASUBJIjASqb5tW//ILrrwuK5q1sP1Yg0xMPAYdqmdPLJZ7gmdxMxg61azMeVxedAHOeil65guqlh7pHI8WrCLOXhpLa6IH29zC1gVA/81TTsSdHS2QRcbvorxjTXvRfezbhWVH1H5pXRdrCQw+vP2iD516VXuyS0Dh3WS/g2r9SgJKAkoCSgIJlkDdc7Nq/nCLK9M/d7n+/q762TqoRStbuYaVsRZyT2RlZdVGrIRfeumlmTNnahHKnFZgZY6oZKsmU3IofW2DPNiygvqTB084YR6BY5xtEclAYIKqIsS3Hc4bxZQTVtDMyUwVTW28mlRs0HqAzhGjDWpjhFpjWl7TEOtltzE9j7h77XcOG4zQ5977SObUX1mHqpbUkIDCu6lxH9UulASUBJQElAQSI4HGD96uvPxcEkQ4XVlZ0u6si3vPDvNwAaBtjoYV1r5hw7kN6YsXLVq0cuXKzZs3V1VV5eXlNTU11dXV0QXZqm856IwrSleEbXQaNtqkF64GZg3iFLEqWXWWnrKjuaqNAXxhibHvHQMKc/6WyhXtMx7olGlp1hsCaR3+t1kZ7+riSMFv5a+WgjdVbUlJQElASUBJID4JBLdtrrr+Ylewu74hdE1dnyiwCw0r8yGL1xMLGJeveezYsU8++eTatWsrKyuBg+fOnauBXSfme9/WxsLkN6bC6WF3a1t0Zy+jEypVaHxRALLh7sYKULgX9ziNOpLsjddtK2COiGlytzz0IvJax2GcAX4YoI5P2IeMGjWquLiYd43NlTkspQ87SYFdLquUrMhuf0puWG1KSUBJQElASUBJwFYC4arKqisnhcsP2PbyxtJg+MJdtdVNfyK1ewwLXZ7GLF5PLCh0AXP5LGIFXdqllTlTgtbo4cx4MARxvKTO6RE8wVSinb2MThYnuPOphi2B1b7CoI74t4nucaxLnh0tJrWxbtIAmxD8PBBnRp1pyr/86MPhXEQmishl+hnj7JpVW+pIQOl3U+deqp0oCSgJKAkoCcQvgVCo6oZLg99tdOGQlv50/2O3N4UoGQIpwP4VvlxIP1a2ShvINaYujPRunR7WC3qT+dvo0ok1CqsS1Cl4gpmlfs3pETyBaW3xie1gU9haJIyXTip8o33drdo1NLvWgMECrVYFDSh5gTrcqcSrNoYK/Mgjj4QBtMiYacpX/HGGXL2XMepscZSqp54EFN5NvXuqdqQkoCSgJKAkELMEah6a0fjOG67Dcmc89OAbb1911VUaJZSdiJP1wTgtzS9aucbUlRcj0Olhqus0wujSiSkllKC6atPIOsYwqxMja7tIv6SYIKkEPrEdbApbYwXZ4HiJBAymV/V76aeTfQXtsxREqwhka63cKMJEBXU13xTUxlAMc0RuokQ7ekEjFPj5TZo0CWEuhDZabfpE/zVi6ohcpg09yt+9p12PaksdCSi8mzr3Uu1ESUBJQElASSA+CdQvmFv31F9cx2ZdeCXLNwvj2nnz5sFI1GaIEz6zIY006fTwS3MiMbp0YrPtLM/TKwbKdWIntsvp4RB23LPkJ7OMEX2vpinZeLHaV/AuawWL76MHQHBKnrzxYW1cHGpjnwZpZs+ePXFiVDjhxk9XW5fDW5QxAxdFClcU3k3hm6u2piSgJKAkoCTgLoGmtWtq7vi1K1368FNz7nqAk51//vnwJ1u8eDF0vVHAV9SYcmpJRadnvla2hEYXI7YqQbnPlsROwJY1p0ewMMTHReFZ4hChDEF5kdyBg2z0wqBi2L8IiFkx2Vdorc5fIj2MIkzZ0Zrp8xcdGD4eAABAAElEQVQOka4/ZXMjcwfX8oZrqoMbHcPugj59xOnOK1Y9KSIBhXdT5EaqbSgJKAkoCSgJxCGB0N5dVddcEK6PhPpyHu/vVZz3xAskYLYC5YEUDMgr15hap9Dp+/bta+1kLUYXI7YqQbnJgZOdgC1roGduPHDMLDKuhIYJwydg7lGPGuF4dUROeTCDilCDxk+0r7CdwtRoojclT26Ozx+bKLsXt3CAlpfZ8jZ9/rEk4IYvMyvtsCNNy1SXqScBhXdT756qHSkJKAkoCSgJeJIAYG7V1ReE9u6WU/ty8/L/Mc9XoCs17aiHDx+uNXONqR2ZTZtOb3CwEBldILZVgiJVBGwPUJzsBCw8aQNy7TIjXYwVNa8mYh2R02am64VzGyui6ldrkn5Z6RPq80ezGQuOccjcgdU0rZEZ7wYOP5qkZ0gXrTpTQQIK76bCXVR7UBJQElASUBKIQwLVt13XtO5Tl4F+f96jzwT6D5aTjR8/XiOIV8NqcLDMZHSB+c5XtX6T7exAPdOb1U7AwpA2iIF1+VhbSh2R006m62WWD/zSdpRtI1cVgwPWzwowd4J8/kjNVsoSjnFwpCME7muIRybHu2nHGOF76VhVUlQCCu+m6I1V21ISUBJQElASkEqg7slHGl59WUpCO3NuvDt9pBCgwGEADBs0k4a4NKwY6xR8FxNGMd/9urYEk0YWhrYcQZrsBExrBuhEyjTQ8BKIWO7yS7ECYoBsXpiuN6dYaxBVv5xGUuH0mV0oJOXhGkxDrGpgE4HpktMzxTMudVEgdHHTl5+ZyMXLtJ+cIF6qeqpKQOHdVL2zal9KAkoCSgJKAo4SWPnAvdUP3+vYrXe8lZbX+eYZPp8vPz8fsV3hAiVmQdOptO877tBjY8WuYe3SpYuEMyYwmDfs1+Yz2cKiFUa3PHiCaCfAtKr4dAqsyzG0xlr44jYPrI3pejsep1GIql9hkGOV01dvoTrdYK1GmT8wYo/h0y7Zgh25WDo4PVc86z8G1n/0YfiALjHLODSkK/2unVhSr80nJuxOou3h6cNWm6TrTyJRq6UqCSgJKAmkkgTgw/TSfTP+UlOSrb9HnHb3eX1w7I6aurC5H7pYoE/EZzB3EAJADDcprR0RtXCwzlWPIjXwGXAkIGl0MXFmucGQbALxdxGSLD09vbGx0RgB3zLbgnwNokbWloY1wsuNIV3Y78JHzVpg8yCqgUEApSzyBpeuJqsmUXJ2abtHKzfsGjksmMUw78XUsKaAchplxUlaAuGTFpNOIziJewU4HjGDUcBtyN10U2WrScUGNByblbashx7018IIYXcL3v/K0qwaUlACZlfTFNyi2pKSgJKAkoCSgJJARALAowuf+cfyHrnZaboq0UEye5A0eHetFeyCnCU1WLFiBaLwmkajZc+ePQiGRdsBZ0teoQfr0DVCFwtQCMCHA33oOIFHTbAvwohzHjlyJHytcCnyjwK76AA3W6AJLW/nUwhiOFSsF4dH1RnK7DKSZpdAYWavIoUDItf84ZBMmBVmvIG8D16KSVVccDQZdKsRBQIcoDZma4aIYsK7XG1ct1MD4vp6+qbLbnSguJ9OqL5TXAJKv5viN1htT0lASUBJQEmASQA5CJYtXPhaj+wjMgNymdSHyfidNWsCvcnRj0ug6jnnnDN//nwrqygtr7VbbAEaPuweOQgWyaPqrkpQoEBE+ELIAsBZGLYGskgwEnYtp4icuVZjhYRqrIzd6oLIYWvLzQ9gfcvyq7GxSHLmmlLYqirGWJMKfPcbCVMba7sit3TM/F0Hx/ALyB6Se583sK4zVN9JKgFlv5ukN04tW0lASUBJQEkgBglQze6CBbO7ZrmCXTC9YV/dmrogqd5MSv6j6VChSYXGcejv6Wk+UFqkiEkNxKXIsq9xOmhYkboMulg7zhoVrAUOnU6AawFGYb2AT9TbDdV6uVKT8zRVoFcGfxgqsMC6fa7Q+qHWZQVKXF6g6LVNJswIsOWzNnAnMA3s8tzCsbrHcfNfk5ExjaoWiYMRl8+ftpVoofXtfQ7forUS6N3X2qhaUlICSr+bkrdVbUpJQElASUBJwJAATHYnTZp0T2Hm9AJHVR+n/munq2ZUZBp2q0ClzLqUU6AiaCuRWNjWlhdUMMB97LHHli9frg31Z5C8/vTUHoazwHbWIpremnSfnLj5StAT5mrRdrnZK2duWxHVt6svJLuWaFTA4vhJwC8BND0ab4AMxdXIWJxXm9LyJdwI2mcR2vJN44+u1ZXZltF5T87JGDXW0qwaUlACCu+m4E1VW1ISUBJQElASECWA0AqHb9nweJcssdG2/kb+yKnFz4aIn0bsYv5kUMTa+nLpBHAyQ2JhW25oxNSaGS6gmNzOFVmCP75M4yOHetyvy5UnX5a+WurRxbfz5d00SAIK8gMjZRpsHhDfALHGgMj3riA122mXdYrX+hIWI4IZVIgYnQ5wLib3OOxXbmQMThb8anC3WhjbCW3TV0d0CB4wRkXX2r++2jWycvQIdZWsEvAn68LVupUElASUBJQElAQ8SABK1vxv1z/c2R3srs8afEXRXynYRdFzFlAPKqhUrUUnAJx1CiWGdg3sQvcJenmxZgl2oufpIYDIoeB0LaBh2B2UfCzwItewdj0zKplwt7M0sGu7bFMyYZhMQAUOGC0pzHjjJ7M0kpqttAKtOZA3lM35A7R2QvLy8vD7obi4WGsxGTygFcu2jaoGZGyxIQ6EgxKwi8Ab/qI+fGpVSW0JKLyb2vdX7U5JQElASeDHLoGP5r34fLfsdJmbPhXRvrROU4qfrfLnafKCWS07dse1bXhagQBJDbRR0V9GO1iBXlJgjMtCE9hCTNPAuFNLYBncNkOMlvD9PKrP5ua88HJjxXbZ1mTCHLmCHtCWBcHFJ+poOWEexbWg4RLgHDBL+Rek8hs2GyxDKisroSzfsmXLVVddpa0Btrws+5rEwthBaO1ClRoTu6/qUPi15W/Z9ai2FJSAikeWgjdVbUlJQElASUBJgEkgXH5g0qqlHfwuaLfelzm19zMl6T2i5AZ/L3bcjxAHtkUnQIhc236jHZTyIoeY1rHQqtbv02xnoQT1EvgMqSgwihVR48taRCZlqzQy22UDyDLACnzMISwGgNiWXuOl5yLGJQPEGC4EIQbAFc2g4fNnG5SNM6MVmGEwywpbXE5IfrAqij76oiJE8INEktYumlxdJbcElP1uct8/tXolASUBJQElAUcJNDVWXjKxcdV7jgSRjjDx/arobwvajzOTAZCx8LTAZwhxIBZYOAhJDdBTWFh43HHHTZs2TcRPyMqGPBF03NhItC+Rg6nOTXJdo4yJA73bzgIRMrAbjTJFZjb1doNIxxMIzBtEIBvfUsGdu8fl9iHdx4lBiJ0iu2EQbEKASufMmVNRUaGt0Ocn+UNIz/NIyTxS8TVtdBDa0Lqv3v32LG2U5evrhtA1HfpJbK8tI1RDEktA4d0kvnnypbNnBE/MA6Oovn37Dh8+fPz48eLjWM5E9SoJKAkoCSSvBKpvm1b/8guu65/Z9eZHuky3J+PhaXkyMzcvq7S0NCT+DAaDyANqZAAF3DShRtN8i3tqSlNXZMwHMsy9501Su4O32VQQ4WvgzQQxyKypLgqHkw7HirjTZjhrgmUCz4LGQTbiMyBAm/fC3eMsQ7y8oWRRjW1xOSEnVq9etPkXltm0hv/VBX9R7ocFhROBak8lCQh/jUm1LZVPWHK7EHnHmphHpDelrBS7VF1JQElASSA1JFD3j8dq/nS3615eKjj3ml4OGQes+l0O9Vz52hKIqFEk4CHGWCPUySxIghNEdsPcIm9Zna1nz3Ky/UUZGe9jSuL195JvIxKD1SyiEYsmDZzSWoEwrcmErWSESN5Qv/nNb2DnUFcXyZphN5ZaDHNcTshZFcv/ve0yW0I0Lq9pmrSr1vhN4kSn2lNCAgrvpsRtFDYh+wUskKEKYyk8OKLb1JWSgJKAkkAqSKDhzcVV111IQiH5ZlbnHDux79x6n0NQXn7+DhQFjysx9CygHlXZRhIFr7/HCHQgn4/1ctMCXLoi12gARxk0E3OzNdh+ipsCigVCtaqEYQRcvdXIVGyNVmbLmS5bj+/mRBDdbn1DeX+70VsTMd44/8Ars76/IZqxcTW/qumG6oDS7xoSSemawrspdXuRLVPL245teXhySUymUkouajNKAkoCPyYJNK1fWzl5dLi2Rr7prRlFZ/Z7tTStoyMZP38HfkLh0bvEoLAiCGaMPDx7CVDjsH/FgFx1AOeIuZ3gKV0SfPXCNJkwrGY7DiOdTyHIBoxwENgOQh/wIm6KN7KK3OTXLuqtiYGYnkPr8iAl8Q0V69uNSfiy0v97aOcd5sXo189XND7XfYCy39XlkeLfCu+mzg2O+u3r+cll/Q2dOhJRO1ESUBL48UkgtHdXxcTTQ3t2yrdeEcgf3W/hN5mHOpKJ5+/9ryff/kWjFOGdVdXq+dlLcoq0GLfg6wH8UQCX2dkec5v2YIKnRVPIMX8zkdBL2DB8ep3WLm7KhjTSZMpk1n4o1f6y4n3XMdKzN1R8bzdoeS/vdfSfdt6pLdLy9WxF46ZzL1bnnBbBpGZDi+BdeEotXLjw888/r66u7t+/P36iIchITk5OAkWo7HdNwmTZMrXGGJ9ckmSYplla4lL51bWEVBVPJYEfpwTCtbWVk8+Efle+/SZf2qTi59/JO1lGxs/fYVGAwoLjAtjxHGkwReDp0BijGJ+92uyxgkUMi3Ui25TIPMyCuCltTQ5fXCboR0iE72bFk0wY2uUxGx0m0JsFbH3DDTcgJ7PWEePGf3nEFY9Vz9WZmr//VdHY75//UQ7cZrmk6HWC8e727dunTJny4YcfmsTVs2fP//73v8cff7ypPe5LhXdNooshZSUfqT+55MkwOXnCK8qvLuEiVQyVBH7UEgiHq66dCstdVyH8tscf/9nxQhmZgLcIV+5CCyu6Z3G8yBh5R40fnkP2vavNHiOAo6O8T6Q/5KkXF88hzCaGPcOqybRq2hTrdfoUdd4MQ1s13E5joWZmXnHW4G62Q/TFZ2VlaQ5qsW98Upfiv+eX2rJH4xtpeZO/djkHcBqr2pNOAv4Ernjbtm0jRoxgYPfCCy/89ttvYRYzY8YMTFFSUjJs2LD33nsvgdMpVlwCUJHGkLKSD/OQDJPTJryC86lJkyZpy3bgjl7QgNKhXzUrCSgJKAkYEkA0Bi9g98nyhn9u/8TIJWYwiNQA6YC0NszUmmE4ixZWUOexCHg6NNYF1OiaLljjQkj9Xp2hTQpcTmVUkCYXUI8VhJ71PpH+kLdJiRxregs2O7bPTJlxuS/yQodbmMdkwtymQkyupu3K7ktfvAZ2Y5KwPraxJjpqcvQ8Rw4ZHN2grlJZAgnDu7t37z7ppJOAayEtqHhfeOGFQw89FIrDe+65h59EnHrqqcDEqSzOg7S3GFJWiisUnlwGB5GgxerwPJg9e7bGHk8xBHHE0RiiTiLCJT5RRwvaIwWUoG+xtSjGSgJKAqkggfqX/6/uKd3E1nlDb9Q03fVDPUEuMcTGgjsaIjAwOItP1NGCdvSyktuX9Pw5sU02xvEioxShsPPstIcC5Q20EheAI+EQKV1Nh3spwkPenBKZZ4wTE0l44cnpy/RleEwmzH82sORqrnOJiwexdwmDWB/bEJZN06tbN1m36kstCSQM7957770M7EI+DzzwALc3wOX06dMHDBjA5Pbggw+mlgDbxG5iSFlpWq/+5DI4mAha4BL6WiOIBJQWOB9ExPJOIzTFCZ5TqKMF7bpKA/RKy9sCt0KxVBJIEQk0rn6/+i7HsFN8k4FBQ1eOvUALUYbQBMgV/ME4mkENSSXwiTpaxJAF1ZtpI8vgBS7w0GIF4XJ3LuRsaWXXYhpsAVjWtXCgHBeAo+yR18170R/yhANcNrZmq8aDb8qVJ3aNPa67WSMEaodFB981JoKuF1YTSEQHzQU+UUdLtzM1eu7chtDCHgtfPOjFupfhEfpGKd4NNzZ44aRoUkMCaQnZxhdffME9HG+88cZevXqJbP1+//XXX3/dddQPdNasWbfcckvv3r1FAlVvpgQ2b96scfD+5GIDdHqDQzOXEhkeKtnetPbj4IYvQ6X7wg31pKGB4DM93d+952cHKj9//mnkst8fCru4XAD4wi8kuyc7WISWF7nUxezqiVip4qEkoCSQ9BIIbv2OhtptapTvZF+ITNte3q9nOt5Br7/+usyYKqcXaaolDT+YGa6/h/4sR3YG5rsmdldvIfiHCF/WcLkiGeocd8YB4ADHRQ4mzraX+kOecIDLyLhRAXbkWpyCBEMO+Odl15iC/xjoeJzrhBoBXzyuxbp8PEs7F1E/u+BZhXflkkyt3sT4qyECAwIyMMm89tprY8aMMUkJZgzFxcWsEYo6oF4TQayXXH+sMqNAdFwa9Fd1rEXPltl8SYYP7K978en6//wrtH2L6yp+IJkbc4/+MnvI23mnvJ97Yp0/y3GI7rVwsPzqHBemOpQElAQOtgTw2Kn4+UhAXvlC6sJk/I6aT+uDjAwPE7ynDhw4gKMt6Gu0px/y7iI8bXoBQYZeK6KVT2Dqhe42ku/A1Ewv484bDADHDCEQT7fdEALU6JR9zTSr/pCPekF4XwY0uEC0Xopk1zBm4MnVTpgbg7LWdvFOi7Hg8hHZgVcPcYwNlXbciHZzYlGWO82r2pNBAgnAu+Xl5QUFBXyzZWVlHTp04Je80q5dO57FZMuWLRz+coKYKhzhNR+lxTRv2yTOz8+vqqqia4Pxq5cf63wbeAbhFI8Q5C7nd4d3xlBpqK998pG6px5DMKAYRumkALvv5Z74Zv5P32w38vv0Hnqz/i08KBcvXqxix+hyUd9KAj96CTQ1Vl58DowZ5ILAmfble2oXVjWZyFhsVyO4DTwHSv7jFdtB3Xj4A1TpiEcunlG2eciQUcJUaneQZbpRhC9AOxFSt/1hpPOppMe5JNvy9LMAOBM/d3Wy/pAnpqgIPLgEdg0TMqciZtOAwTEQLdTSse4azHW1hU2kCKep0c4Xj7rr280Olx+dGVje0xHvBvoNaL/sE8n8qiuVJJAA+9133nmHS2TIkCG2YBcEp512Gid7+eWXeV1Vmi+Bvn37aky4gZRHpjq9wcHjQIGMRne/YEzt4/fHB3bBKStUd2blCmTB+fzr4R98e8bdu+8fXv2/QFjTxNDXCR6ykdLKfnVsUvWpJKAk0DYlAJtdV7CLlf+x8/SFo/Y5+cIOHz5c291nvzbArpsfLQW4iD7L9Av4tHgd0MC0QGC8NOwna39rgF204xGHf3W7yZ63In5yQykByHjBcMT3lWua0QsacSI+nFX0hzwxWc1yowJuZmAaiEuwxS5Y8eZrYd41G4vgbtwFcOBNGkMvX3zxIBbr1rHA5VwJLdy73aO+tNLyltCeXbyuKikvgQTg3aVLl3IxSQxzjz32WE6WWGtRzvZHWzGe15Inl610dHqDgy2ZcyNMFyrOOa1pbcJ+Ig+u23j9vlmLN//82w1HPvX9NGQ/bxes5IdfrelX57xp1aMkoCRw8CVQ94/HEJPBdR0vFZz7SLeIi5UdKoUvLMLGa0zgncZK3NgOU8DrACF1WQECg4IWBSa/K0aQLc9o7U5fIFhxIiVGcQBwtkFsKNQDvW3RH/LU/kEs3XSzQ4yFGtVasHKOILEj7IuBeyul065BCc5icDcohhHMwXvhi8cQsW7i4IzL96V1ChFHnBOuqgzXVJuYqctUlYDj/wPvG37jjTc4cadOnXjdVCksLOQtsGfgdVVpvgTGjx+vMXF6ctnOgSeR/jgzONhSOjSGq6sqL50I/a5Df7Oa2wcrzj3w6qzvb/h6wzFPVb/w05w0HP6pX0rNkqkarCSQKhJAnN2ah2a47mZV7nE39PyTmSwan8F3rXPnzgZN3NiOsxDD5W58mOx8laz8BanTn5OdTyNHP0HOWEMm7KP/UMElGlmBuhfEH52bGMWq8JCnxr5iQdgEljcO8SjW20kSK2cF6B87ci1Ru37IJrgbOFRvs8fWtszFxYPA6e0mxeVIpAfIa8ueNSoVr0Q4KdaVALwrQhAJ3m3f3nACRSqKFJPjwd0OTFrhfkHX4PTksl0fnnGRyDsYG59RbPXdvwlu0zUitlMkojEzXH9uxesvdc/+ojjv5szG4DdfJYKr4qEkoCSQrBJAuuDqGy8nYdjlysrWjKKLip6q92XYEwn4DF4oGk082E7HheI0er4Dao3w8aVaT1ZXcvwLZMR80vtCgsi+vjT6DxVcohFdIGBl79tapZngW3/IU2hrDQfBTQtgbACTA7FAmcrsKDwGCWahysr+B/dpygZ+ddHB3TSFV1xvKORXozydxrrh8t3pulQpF3MJ7dlpblLXKSqB5uLd2mj/pI4dOzoJCj5VvAsQuanJ7DrAe1UlDgnccQc/QbM8uWzZCQZVxlhbSofGxo/eaVg4z6GzRZq7BnzTCjLKzz6hYsLJdc/NCpf90CLTKKZKAkoCbVgCAChVV5zv6i1QEci/oPi50jTHVxLdoo5KGxAzEcUjtqOkxliKC4H2TAUqZN3rgGaIQMnrT05+jRyin8WZ6HGJLhCAjJdmgm/hIU8YtGWoFJ5qCM6AuAefTScZHbTZkE8OhgdQqbLiPUgw1KtguGoS1b/S8BHmHyFAqzfccMPf//53jbMVW2sd0V/C4o3g69axHnD5Line/XTZ69ETq6uUlUBz8S6iMYiykeBdRAAQKXfs2CFeqnozJYDAtPA11piYnlwm1niiCQZVGBVfUNu6WXZaDdNcLXMJ7U7NH27ZP3xA1VWTG5YuJCqGYsvIWXFVEmhrEgjX1lRdOcnVhgqn2JcWPflN5qEu6xdRKUiBUNHisYhjbRNAmPSpx/6DqnLlBQQg46V95NSOX0oqOnDXwHf0Q54UTaFDDVS6nrDgu/gU3eOAJhEyjOWcs00pZ12AB486ZANGjtUVK1bE/YZ69NFHHcd6wOW70mRJ1Dat+si6LdWSkhJoLt41BbGS4N1gUHe3jwhyz549KSnQg7gppPxAIGRtAeKTi/1kx6clWyboeaKQmFYe3Pxt48p3YxqSeOJgU8Nbr1VN++X+4f2rZ9yUQJ+5xC9VcVQSUBJovgRCoeobf4Wfu66cbj3k9+/knexKRglEVCrWvQzm9DyFhDgKvlm8DLqFFBzFr2QVkIGYFQRH81hE8P3VfVEpkcGh5GX3OA9sItgMsJxz1pRy1pXE4lGHhEF46cf9hnJ8u3nA5XJ7hhq3yM3WfauWJJVAc+Pvbtq0qX9/4/xlzpw5kydPtpUF3GAnTpzIuxDie+hQ4XHAO7xVePxdOfmPMDovjn7wZJGLhfXiF3N8YHfJkiUNj9536lapHa3fn37KqPRhJ/s6d/VlZJD0jPDe3d+9tWzjstcGpvu7pUVsvLysMhaaQN/+GedOyZwwCYncYhmnaJUElASSQAI1D95V99RfXBf6ZKfL7+hu54BlOxKKgCXFWs/YOOOXm0PbMnZiqN2zN5EMw2PbdiFGY0MpeU3XTI/+0iYor0Eq1KDOgMmsvMBgAzpswHRJAF0TB6ccRtDswoCBFdhdQMFsqxqHeGFDDP1LpDA1bdxvKNnbzfneTd0/7/GSSIAObblRX0vqyC9LKqKa1EWKSqC5+l0x0wREFAjAh96+VFdHRf2QaILtx6tWbxIAhJ03b57mvuYwBL2giQPsvvTSS4jNPm7cuPYbv3DgTZt9uXnt5r2R//R/sq64PvOcyRlnn5txxrjMqb8a8uzL93Q69LBtVX22VE0InfxE56s3Zho/liQMPXZB61z753sPnDq08qKfIc0bYs14HKjIlASUBNq4BOpffsEL2H0jf+Rd3e+KYS8iShPrXlhwep6bVxy1733tqvNpMYBdjAEyxhBW9q/RKq5fojqZEMQGxUN+1KhRxjig0tFfkKG/p6GC2crxaQ0bTAh8ywyNEjseNLhEatKQCFG0mEII0MbSwsOcV3NBiyI1LpjJr/UNJXu78XthsNFqu9O6WtqMhs4k6uTZ6FC1lJNAc/GuGGUMwkF6RicRefdsc+Kg2j1KAPa4a9euRSoy/JgGtGWW0/hEHS1oR28cNrv4bT1p0iQknU/3kcEZjj9ssMjFPQakHX287WqZb1xFKPzBltfuKc84ccBbRw/86HeH3Lc8//R6X6btkJgbQ6HGj96pvvXaA8P6VU27CHGLlIFvzDJUA5QE2pIEGle9V33Xb1xXtL4h9Kvu90virdpwEPGcWLchtTRxeqQus5b9H2ttSFMca+FDarZ5HRoN+LZt2/bUU08tXx4J5QsWscR5KC0tLSoq0ua1zfLgFhLBvGYhFMa1114Lc14Y9ZpphGtm8mu4qQldprebCy6PDNyVLrPfPSRd9i4TZlbVpJdAWjN3gP9tSM3FQ5Lt3y/kholmbdLvyn/eRQ+VXf0ILRZk4hD6EGIsvihjAg+jClsUWKSw68HZ+ZnO9giNYTJt2XuvTJw4f34k0LrBg9bwtILjgnaeBb+62pLth937TOHF+Jcdqj2l+qMzKt5CrrUejQmIEROur2tYugD/fO0LMs46J3PC+ciWTnzOS49eqrpSElASaAsSCG7ZVHXdhaSpUb6YvcHwBbtqqntvJpnd5ZRRvSKeQ12SWTdqWOSCjzWlLmOU5eu1EentrENdWvgQW82x7WAOvmlEMBokwQC73uM81JYw2wMtQT24IACCSSYeQiLYLBAGDyWvIKYYwLTW62ZcgdcETH5t3yP87Wbkgna+d3L73W4BHwnhJ1JzdX82W1ZNbUwCCbjHxcXFfFOmcA28HZW9e/fyS/lpOydTlTYiAfzO5mCXFF/c7ycPSRa2oSEE9S3obX+dYyDOpGy9FmqDDcvyf/rbLrcc0enhU3wTHisnO5vMoW0k80q6wuUH6uc9VzHl7AOnHFbzp7uDX38pIVZdSgJKAm1HAuED+6uu+AX+hOVLqguTqbtqd+CJATQWUxHpxboXJpzelLoMY4E+D3yu8WiM3TyUD7HVHNuujYPvdgPxlDZI4gqyZqBSGOkaSDrC1UNIBGN2XoP6ufgSfkVX6MG4QvIeYayMzKD8XhhzaLWyQAfJ4WEawsXt2G4ZpBpSUAIJwLtDhgzhgpFEXYCDGic7++yzeV1V2rgEYLNruBdEDsXa+2Sxk7/KPoztCKMw1nZ3+MnOHBdoL/cIhtcIQkLi84Nx6zf9674fKo/cVnXuzprPuxf7srNt+cTaGNpVghyk5eNORBDfutmPhnaWxMpB0SsJKAm0ngSaGqHZDbp50ONn8bV7az+tjxhiWvGZZLlActzpCmRxjzWlLgMrOGmF6rWZaVTaGAsfktPb60gO+DqeQE1mC47WBgJlRps6yBgKqNQxQwQPRsHDU8g4Cn2cPrOL9+zEkvcIWBuZQaX3bkumTIzBTRuFVapqykogAXj3ggsu4OIxDlB4k1757LPP9Co544wzeF1V2rgEZs6cqa1QPxTLC1VJ1ry/4wiuXTDGWgbIPA904qFHHHHtcy+OfH9dwerNuQ/OQrSHRFkjIEkbkpEeOPWwigvOqnv+ydCO7/U51beSgJJAW5FA9Z3XN65+33U1fyyrX1il/wh3ysJly4WnH2O98Y21pi4TciVQxvveIQi54L2AGENY6fATT+NE4M7AdyiSQQODOcr0xMigN0LmI7oCdsRLzVatGu0hx/sdK5w+GOW8bk8vmPxK3iMwbNCOi6X3Th6JObj5G/s1qNbUkkAC8C4OFGDCy8RSUlKyZcsWq4gQphddvP3EE0/kdVVpyxJA6DE4qNEVCodiedKnVbU/l2ctwlhwcNqgyfNA4lfny8nNPG9q/r+XFLzzZfZv7gwU93PiGVt7ONz08Uc19/0OwLd8/Em1j98f/GptbBwUtZKAkkDLSAAnMIiy4sr7pWrySOFVJLePQWnCZ0ZHdM2ESllnHGN5Vl5wAO4Usvnk5ORoU25+Knpu6RUnRnrh7B5SUr2TA3cOvpuNSmHSYJzCiTmMuEmxd7UxWyan5xz05dt/60k05O8RIz+o8737Vpp5ROl37eWfcq0JwLtwWbvmmmu4ZD744ANe5xUEBOD16dOnJ8pZjfNUlRaSwKJFizTOwqGYn0TSYzpMGYa3hHAoZnBwoMcPdOh68T8EP4rgfYhP1NFi62zn79Er+7rftV/+WbuX3sy84DJfO8/JkBxm583BDeuAd8t/dvKBU4bU/P5mRHggQV1jxIlURUlASaBVJNDwxqKaP9/jOtWqcOH1x3xKY2x1PjWKWMRnUR2Ri2hUau6PaSxSl/WYSGGuJZtP9+7dZ82apTH/+kHDnNc8X/Q1rH5BzErdnijFajShcSUCdw6+OabkKNMYIK3p9HBZs/e1CGRp47HrmAqn92iU7O09Ar2JPS4X1vZtpkxFovS7gqhSuZoAvAvxTJkSSVcYEdTSpUutAvv3v//NG41fY7xJVdqqBFauXKktTTgUKw/I3I07BiMxOnR6g0NC95h2zLDc+x4rWPlt3uPPpZ8+mgTSEsUeRr11L8xGBN/9x/etuvFyaJhCJdsSxVzxURJQEnCVADKoVd/0KxIOyym3+tpfNOSthoxOlKzbGI3Ypz8KoO3j2XEZ0rJDpYTTY3zhcI2Jx7Gg3v4i9zqgmclwqq6XYcOGXXTRRSeffLLW8MmVpHqz3unwDQKQiSUm8O1Po+CbFY4pOcoU2UrqOj07cLPxtQjqocS4h5yEm9jF6W3DWYiUvO7tPWKPy/ELRL/vG2tlFhTB75Q9A5d4Kleam1+Ny+b++++//fbb2eXq1auPP94IvwpLhl69erGu++6778477+Sj4q7wqHsqHlncMvQyMD8/XwtMI2Svmbz/P38rudFp+Pz2439V9Df6oIHnGSF4aJqSTjsNbE576Ie9Da++VD9/LtS0zeHjNNZ/SE9YD6cNOzn9hFP8PfXIlE7Uql1JQEkgXgmE9uysmHh6aO8uOYNykj56wBtRersVJ5GKSAiw/AGk0huCMVFmdiKNB0ioeQc7GR1IQ+Q3PyHQO15xxRUAvsFgxJcO9glHPEQOGW+/tZ2LyLqbCXS6KL4ABd8/6IelbqG7DIY8HRqXxkmLzQHFDGq7mp6nDXax/GAWnscwotVs2/igQ6dTzbr38uXd9CcBCk4Lj3rU07hY3iOICGS4Vkdzz/H7tvfJQ5w2p9Lhf5t9HSM/nJwoVHvySyBheLepqQk/ZFetWgWZIGIDvNMykEWWkIqKitGjR7N2xHCdO3cua2+m6BTebaYAPQ7ncib8MUoI4uPO2XqJE4f38kZM7DOH9iLYQqS05m+S4KavGxbMq1/8cqhkO5s94Z+wqdCw7/Ej/L2K4+APm2aYeUDzjcDV+DmBnwSwgIcdPHyNba044phCDVESSEYJhGtrKiaNdjWjByA9v9dT7xaMjtojkn59fJnW0uNcUrlRg79RRPoF7FzzB5Idr+jXsXxjbNdR9Cc9IhXUbCWwHIAyFTpLRCWDmrnbmdQIAXrZSEGSM6Qd/fnPf25MgNxpPc8jnU4kOZFfzjXbyQ8fkZL/Gj5qIA1kktxDSbiJ7sJ7wTLGlWjkPN9vvKgUYB16U3Fy9uBatmzZ1q1baTtQOGKK6fYPIqVNHeKCup3pv0+YG4MXXSzvEXtcHlnN2t65PdMcD7TbzVmadtyJNstWTSkkgYThXcgEwXfPOuusjz/+GPUuXbpceeWVSBr8wAMPsMi7EyZMwP/FhIBd8Oc4rDWxVArdd69bsdXv/qTmsze+m+DE4susIaf2X9rK+l3zYuCItmZV/asvNbw2P3ygzNybuGtkTg70HxwYMIT+6z8In/7OstyVkscxWxR0KjD4gUVa4taoOCkJJIkEQqGqa6c2LHf0cOXbuMk3/Lmh8/ilUeEgD02IJwOj3n3v2aDSzqeQfe+yxArGWC816IMPu48iWrHsfoPsft08S7iR6ZiZlhRmflOnTpXEpxf5xVYH+D5knGbyi/pIXSWMVa2aRFnFi0qRidPp57eR5QFCRuwzLwVufLASQREX6TowFv0uZ2arUPhHVl3/UsdDg9w//CVz8qWcg6qkpAQSiXchICirYLHwpz/9SRRWz549Ye2AsGX4mSu2N6eu8G5zpOd9rPFcEw7F+jRs/WTjKU5M9qZ1Hjx4DfXe+GAcaMRDMachLdje1Nj43lsAvo3Ll4TraltwIp21r6BjBPsODhw60N+5i69Dob9DIRr9HTpePf3XTsdt+mjt26pZMRGoSyWB1JNAzQN31j39uOu+Zh1ouHPwfx3P6FdfSHbpiNm7GYAXSlj6nr0pSp0JjTIy6zIjCud1M+B46aWXPvfcc85UHnpgKYEoY1Z1spOdADdpiB2Vyp/b+N2O3PLaihGUHbHD5EVQeJPjnjWMjOWj0Ju49wji8CD0pNOEWZdel3PH/U69qj01JKCb9idoNziZffDBB2+66aY1a9bgrDY7O3vo0KHATJmZmQmaQbFpVQngkF2z2UIwcz2rZGmgULKILk378G+vHvzcyH8jGdNyXWnp6SPPwr9wTXXDsldh4xsJvBCxpWuZSaFObvrfB/hnZX9rKHxlUW5ZKFwaCpRl9yvNHVSac2hZRvcykllWt7+0bF3p9wsONFQiRRRgsVMiTStb1aIkkAISqH/5BS9gd1lN092l9dRLrKnK/kx82L8I1/Li9BwGo8xmVCIjwEGEvhLP5VHH4w7/EO4Aob6YYhLWBevvMQxP+SwSzpGum2++GYrSTz/9VCPscxmp2UaQbZia6uo+ef5MglAPsHNAkFrMDr0mvLvwFN36nOEDFwoa5gp8UlCChhVT2gssnhl4YP3ZPT2hUrZTQuRu5da08GYBisvjAkQjdsc96jiNpJK490ig30DJPCpEg0Q4KdOVYP1uq8lF6XdbR9Q4GBo3jqppTYdiGzcc3anJMYL61J6PL/3w1+wxLTkUa50tmGahnm1LXml4dV7T2jWmrrZwibdfeShcFgyXBsP5PYuOPPU0TUPcsdBQFRd28rUrUAnf28L9UmtIiAQaV71XeclE0tQo5/ZlQ+jsHTXVIR0j4mQckM4WP0HzCphV872cIe2NTz0ZoxYZGdSRjCnK91eEy1bAzdcNOCviRaunl8ROAGNf709CulQ9z+LxfAkOOUaeeS8KcmyqBYwruKjkFSQuqZw61okGXsgI7u7Uq9pTQwIK76bGfWzBXRgmDcKh2ItbLx1d+ZbTrI+GB/5h8yfolR+KOQ1vnfbQ7h2Nb73W8ObixlUfuL5oW2dJMczi9wPy+jkIhslEx8JAjyJ/776B4kP93XsoNByDMBXpQZVA6Put5eecEi4/IF/F3mB4VEn1Dhx/mIoVAoJARJMmevFSeKaJzTZ1EVbCL42rVD2DSIMnfH9F17r4ADdjJ7cT4Gvmc3tApYDmiEHGR8grkpAIpoHITowEFrQxdpkn5D0S2rfnwPD+plUZlz5fhy92+7KyjRZVSzkJKLybcrc00RuyNdX67d6/3LbnYaep3q0NnruzBr3wTW77rlfhyorGd96Al0zju2+Eq4zwmU67S4L29IxAUTHFvr37BYr7+osPTTvyWF9efhKsXC3xRyYBGpDhvJHI7y3fd50vY1zv5z/LH2F/0N99LIEZAy9y5euWf5Kv7qW08eoa+Twx64bZyEAOCdLHIy2xgz/N38tV7ytA4VGjRkG7zCaUf3rU7IpMPPrgYkjcJr+Jeo/sP6ZXuKJcXLxYb7/ow8Dgw8UWVU8xCSi8m2I3tEW2E/UjPqLPGFn3+ctbf+k0WUUo3HdL1ZWWcDZO9G2lvbGhcdX7FPgufw1BQNvKqhKyjkAgbehRaSeckj78tPThJycwPUdCVqeY/GglUDXtooalC+TbR8rGy4pmvdr+7CgyJ8AnanZtla+cIN5AXdoy4oCqURtoBuDuPp4GL+O5LUxwP1oyDMJ6RKVxqydsQyKYYixa3yNRNtNcOHbr553NqVT8/KdNn9P4UbYl77FnM8YJYeNsiVRjMktA4d1kvnutuHaTqVaH4gs2hedI5r9jwPBZry2TELTprnA4+O0GYN+m1e83rv6gRSOatb4c/F26ZV1xPc3GrA7vWl/6akZBArWz/lz7sHvCgj90/d2jXaYJ44SqoMWkjv8oPASvk50Aj1ogxJwRODpX9VgBlKL5umEwaSbgZitFxN+fzHJycTMZJ3hBpYxrC32a3iM08QQyqDm76JnW38xVVd96LfJlOjHJ/vVt+OfUq9pTQAIK76bATWylLUT9OsdrpSi3b7pj+O7ch2ZnTryglVbWotMA+37z1b9unO7/dNXwrEDHgCRHT4uuI8HMgXpz7nwg4+xzE8xXsVMS8CYBGBFVXnk+CYXk5PM6nHdtT2kuLm6lCvc1FBYdTKJ8XdyThvRCGbvVXr9I++wK9I5LirWOuKEqQiggRUXF15RPcwC3tg7ZVxzGCTJ2CeozvUckXBO+/rp/PFbzp7udZsTDENnpnXpVewpIwBGvpMDe1BYSKwHk2oEdFVwHGNs19bKoXv++/WbkqkAYDXzC4w3POKgWErueVuLm8/137fpLXnv7ot21A7ZWnZI+5bZD7sXR6ubMPiGSxH8+ob27q359yfNjRybrfWml26+maREJBLd+V/Wby1zB7src42/oERXN3WY1CCUGbSsKkC4Du7hEo1NhYBe9YgAyJ2KxXaSHVjKmwukRMoJHjYBeM6Yi0Hft2lUyFE9pPKtN2dEk9K3ZZXqP2E7dQuv39xtgOx1rVCHJJMJJjS6l302N+9iqu2CHYt3fWza9odRp4s/qg6NKdJ8MnQhPsWRMHmYboQJ7ygrVDajfNLhu46D6b/CJfz0bd+h7TY5v/GQZt6OmbsBhyXhfkkPEapUWCYSrqyrOPT34nUum3K0ZRWf2e7U0raOFgaWBJ1xgPRLlq+jK1hz9btxjkfKXA24hSbtlSw4NenJd6D6Rfjyp05K3vnEFfmWVjzraQbLEl5mFEA0qso2TfFKgXeHdFLiJB2cLMPyH+b/T3A1h0m9rVQ2PlCnQJfyUSuCd+CoeyrYRiG1nygtVDaqj2LdP3cbO254t9DcV+n0wgSgM+NohghiPLW87+CA1bmkMjfi+uj5Mkuu+HCRpqWmbLYFwuOqaKa5Jg2v8OWf1m78+a7Cn+UTLWgxwshPgnmqMqROZ05TiLE5Q1Ta3MOKXwYxh1WSNMYe8cYPmth3q0Ul+B789GCwb2pU0NjitpODtdf5exU69qj3ZJZDg/GrJLg61fu8SSBtyBElLd4pcm+EjI096anHH86zxg5IreRg0KJpM4FohHmjaSarKn/dJzjH4RzvLQmJip8BJr3YoGFIYLCtsKutIP/d3bCrDZccgKvtpBZdNZfmhKjvGLdjWJ90/IS/9pcrG5LovLSgRxbolJVD7xAOuYBfzT+v5sFewC2rhoJ+u3XRJmwgNecuD5rIW5O7Sc0ayBpdPPdcXJYMtr+lpYJtbGKpcZmXBpwbYzSnW7C6QQS2mBYBeL0hfqlfVt2cJBAKB3n2DmyLG03aDgt99o/CunWBSpE3h3RS5kQdhGxmZaYOHNn3xmdPUY2o+pHgXbwVLZk5k5YFFb9s0LzNtZ+XKlVoLt8AzUThdgl5IZBrc/eYPnU7+Ia2QZDoNoO3p4aYIGi7ruOmRjrvnQz08+oTjx588IrS/NFxWGt5fSiv7y5AeWcYlxr5hnQe/VLkOg5LovsS4RUXeJiTQ8NZrwLuuS3ms87UL2zumwrIZboKepks2YOPD2sCuPyV7IrlygEGRns2W2DoHAC7HrOg1QVWT5tg6nLf4MwjUvczOuBmAW0vVxtnGWGl9WwLJAltzMYFDB8rw7uZv0k87U7JU1ZXUElD2DEl9+w7y4mv+fE/dk484LQKGd4MHrQn6AlEEQvygREURj+Kf6Av420VlAfXOX/Tmxqh4AxjZJ2RuqGcIOAJ/S0NlpaGSbaFtm2GghmxV4fo678sE5csFE6+u6UU2zGSjkuK+xLRBRdwWJADlWcV5p7umdHmrpmnyMetD6R1iWLPpb81qJwBkycwJ2J/h+2M1xCkJ42CankeBYO2iibBoEwz+bjG2KN4ti0SBjfeZgCXk5eVVVsaTHKelA/GaxCa/bP3F1D5yX+3fH3JaVeb5F+f+8QmnXtWe7BJIYgfzZBd9Cqw/Y5RMB4PT+eNr1pi3OfC3NKVQpMycqQEsM01bujb0KB71QHzxJnoEh18/g3e6VEAZCSYPD7+xY+2EnJHp73oIsgGln3haxtjzsn55Zc5tM/OenNN+6f86fLmn4P2vbszqduO+ur8eaFgdLmz0uRzj0N8kyXZfXASoutuYBJDFsOrqya5gF9bkV+ypC5W7pFszb0446Kddpku07F6qDWFWSVDrsrL1eYJf4K4FNKAUC3S9ANko0Ozu0iPP4Mk2+gsy9Pf0RIv9+eMTdbSgXX/uUbCbEUHzcT0T2Cr69u0rLsdjHadqSHK2bh09zHEq6AUNKJ0IEtV+UBYT6DdQsn4VokEinBToUng3BW7iQdvCspI9+4KWdPbCcs6qeFO40qt6/CA8WHGSpbe20W/oUbSVsdeb92Xq9FlZWdqg2F+uCJvgfUKN0ud7/dO1z6//9vmKxhnlGWcPfuecPvPkTEoDERf4pLov8h2p3rYlgVCo6sbLg1s2yVfVEEiburu2HE6uoqWsfAzrNdGbLkHD9KmoMKukHhOpFpYVHGtAd6v/tWqN/Avt6NWPPkjRFJrOF4VBVdEmGOktjnrM0ToCwBe9oGGlYb9Wif2ZwAYidZnGwcMXHrMAl+3bt4eNvkYO1TJU1PDYgy4cvnf4RB0taI8UUCI3hAfecZKA+UFZjEtIsk0uMUPi3K0a1jYkoPBu27gPybmKRYsXL61ukqx9TKUd3sWjX3/ZGN5gEi4HtcvQo1iVRvKF6fQDBgxA6AONNpaXK0bFl97TkGpEm3XbHt1y0WHBH+WeQHuS6r44bEU1t0UJ1D42s/HtZS4r8/m2XPLrjQ2R9BNce+oyJtINSAp6sViH12zV+rkr21GPEqThZQWgc9nhBEHNEIGBAV98oo4WtHPNLuiP+Rs1+eWj1t2q1aG7xQmJaxFOUTQVL4bE8kwg/nQ2CYKRuc4GAhgMIJwiIswAXFZUVGhDvOmhmTW/l1lcaRjgxkpYUPaMjAwwPyiLCfTtT3yOOYOQShM+Eq7bUQRJKgGFd5P0xrWJZcOXa2mNDO/2q9/cv/47m7Xqvl+GN5gNkXuT6THaErktDD2KVWkkX6BODw7wzENiTI3c28sV9HH78xlS7TYaKvaTqj+SrHRvWufl+adpBAm6L5LpVNePTQINy15F3mDXXWdf97vht90DAx5K6f2gH/G/3juTGf9gnN8feaNh+CeXR83IQ97iRx0vw/7Ff3hTDvAu/WAczaCGGLf4RB0taOcF9Ciibrh+L22BTlSS3oJSCEU/RSFQ8cKQlxVvzwSSU0RCjRjhaOYkzIOqvcFALHpooORbb70VfDhUjfUZKwJuHOgx87DGRroLWmJcDLixcXF/+nJy/d16SIbDylzSq7qSWgLKXy2pb99BXjyefU3VVZv65GU7/2K+t9ttj3e+xrxQqE/wRkkGrwtAau/xd41tYoPQDEVeltzhDK8N4wjPILWpDR48OD09HSGH8HqAQQV0zADN0OjY2/JaGOC+sPdK+tmbPtx6Hn51WEiMhke6TJ/Z9Wbtutn3xeCrakoChAS3ba742UlIMCEXRvrIMfmz50LxBkAD41GNGGBIojS1jf8lTpPZhRzxAIWnKJIcwq58GE/EERtXYrBfOpjU7dYuRd81g8K5xrNjsGMuk3LaaVyHY8j+T1mnF49SGAwYOlSfn4QjinNodmFW4aWY/PPshrjmD3J54sW+GMy4du1au7XE0FZ5yYTGD952GpA78/HMSZc49ar2pJaA0u8m9e07yIsHqKoLk3dqZImF7U14dS0Lg2WxbsNebxHNJVFeF4CYMeucsBI7hzMviTSZse+GDRu4LgQiQh1AGbAbWhYvGg4u1UsrX5WDXQQMnl14mSG55t0Xg4+qKQlAAg31VdMvdgW7OGLOe+RpdsoMAx5Pxj/wEvv4Mi3GgpOooXwFzafX0f6cYo1KtzLSLvEFQDzyA3LCXKrrhW0ucC0KPlFHyxDdx5RzQC9m52AXl/qpCB3opXB6WBXDrOK4ZzWbYMnY7O4c7Hoxc8IT0gC7iL/GwG58emjnVcmfsfYWutgsK3EtBjNCAeG8Ik89gb7SrMJKv+tJiklJpPBuUt62NrJo5sv1utSE97iaTzs1WSyioEeMFMMbzPOW7B+jLel1YTiN4dgxRm9uY2xkg3idQz8BjS9eWoDRbPv4RB06XZDU1clCiclfMFyEjG2B3/e7PY7R4hgxAp3SkMC8NOO+cB6qoiTAJFA98/bgVy7aOF9eft6Tc/HJheZu/PP+2YbBLmCT1O+KbH+RvPkTktNL469bGfHptAowKKAngC+UuPDfwifqaGko0wi47YHoo8b6uE2wmanDNaev2UopOODOF3AYA9wFR2ssanexihczJ/wkNs6RoCPP1vcO+K7/oNXYSr5AydTPoGk3NFbPtijALZoL73tPmzPexRjOCZLFS7tUiAapeFK5U+HdVL67Lb035su1rKYpRBw9APwkdGblW+aV6FoWwxvMTGF/7fgYZc9xfFqi/zTf68KrzglLBl4UvLmdNDHQGeOlDuCLCJrhcBifkAN0utqe3V7heJkB9NsLKNLKpPrbDhkdguUSspL0Hn/vfEUUQbz3JYqJulASgG739fn1/37KRRI+HzS71IUousyfP9/Q8lota0tXauQikHJ+ApDqzUY8MhgP6D/qoue0uwIlNzZAQmBWeN4KPoJNzS9dK5yeWxVjSPkXpFK3HIUSlAHu01YYUcwIzfgNybiyN+I8Qj4wCDHFpnAdzwm4HhqJ0KUR1kzPWDPgFsNWNHsxhnMCX2eMFRWiIUaBpQ65wrupcy9bfyfMl+uHYPgT0lky+xhrVDJdy2J4g0nG612yx6hOo33jjSJE/wFA9GIGYOIhXrrrnCze3F40MWyKhIN4SBVZgi9vnyFuwVq/r9st9b7MqPa47ksUB3WhJEAIkp5U3zbNVRLZ198Oy11bMnfjn1hcnYwpgJ5jD4NN7Q0Y+MMfCEuNhh+lgRyNrXcAzQZwemY7gUvhRzLVqjKbY0bM/dsI8RKTAcf9OAWiQ7nBANMio4XrlRln109OzzmIQyzP2DPOOIO5tRkW2Axwi6M4K85c7JXUdfrmJ1KW63dDu0pIk+5OJ1mP6kpCCSi8m4Q3rc0smT9/l+6P+Ck7LGxk1bt5IcFhRdCacA4OQ6OazXqLqE67CyH6jzHWjtBLm4vOKdqb26MmBvO2BIiHVGcUZmY46tzpdj/NOeq/BROiNh7vfYlioi6UBBobqqZf5JpaIuPM8YjJIJGWrfGPRm8FUraMhCeAj/vUxm6VZMQgE/NW5PbR5tRPRWyXYNPI6eFRZw15BiMKsQBW6nYF1qN8a4Caiy++WBvNDQa4FpnrlUX+kjqn5xysxIKEly9fDqjNnQcMwC2O4qw4c7FXUtfpDf4SYmmXv3NX0X7GTBsMBku2mxvVdUpIQOHdlLiNB2kT3JfrtcpqyRKyQnXjy183COx8uYxeh5qN3sKBMqpZ144kxNHBXecUCRUE72lQRi3D+cIA4rG/wo2x0fzPGjxgXK5LTrU7u98dNlmhxHVfomdWV0oCpOb+O5q+/FwuiEDvvrkPzZZEQuXDufHP3LlztUauueREkor+BIDh0Jgxui45ppC3osJVPI7nFr36qYhkFVFdnL56S1TIM0zEQp5FURv+cOJRPn4nQ5nKAutylAksWFqqO0vsWkxgfZ6VHwAAQABJREFUaozCtMiocL2yib/TJafnHGwpdQmbOzngFjs4K85c7JXUdfo4XD6sXP299N8q1j6cTmzfYtes2pJeAgrvJv0tPLgbYP5Y3zaGNjdG4t04rGbSgf9qPUJmTpMvl8NQrdnQbdg+Rp0GQysA+kgxODgRe2i31TkxhzPodOGIBqtc0HjgRElaCMTXPT9LqtslC9uPXZ1zbNQi470vUUzUxY9eAoi2W/eCnsTLSRoZmXlPPO/LzXPqt203/n7jfQIUFRXFGgab5qQQFa7icXw3HT3HbRPM9wl7CdjsihPxLlQsR/mwgHJNC0wAphGeAqEkeGQJrlcWmUvqnJ5zsCUWnrEEVs7tBmlUhvmvMIyz4syFTllVp4/V5cOWZ6C3FO9+r/CurdiSvtFFCZT0+1MbaGEJANutWLECBrKLqpuuL3A0GB1RtapHzcYd38ziyYqADr3jQmzC0G3YPkYl2wQ94saLHCTE3rqgc0LxRiujatYrPLIpcDCtJFx+oOGVf0tmrfdl3NvtdoMAihNodnHIGymx3heDj6r96CUQ2llSfeu1rmLIveOPgSFHupKZCBLyBMDPUYBFLXwB84SL/B2Z5tIuAaxNGFQ8ju92JrXrhTkvswn2GNdWP0Whuu1wmE6ELBKIBSEp0Uf5UYF1oerGIvGIAyYGGf6WgQuhPwYEx6pQUAF/VtAOtzPvheuhuSbbaaz+jCU139N/rOgwPWoQWDED6HgXE5PLR9TUwoW/V7FwZa4Gtym8a5ZJalwr/W5q3MeDuQvmy/VypczGH1EafrHmDA6qvPty8Y0Zbgq2j1FOZ63o9AYHK81BamnWKzyyZoODvoX6ec+Fa2v1K5vvf3SYui2jF301NsPHzoavavrRS6D69mnhSj1prYM0MsZMzJx6hbXTaoqK83pgU7QzYuPvV/+LtjKxb9HpGQcvVkmUTyCbHHaPmaHpOF7MLRxjpELSdbTGvMtI8yyma+EoPw7fVlKzXeMH7KuzMs1gcwlK0LPCY1PY0EWadAkT6L/FnwRW+mYrxWNy+bDOz1oCRXL97langao9qSWg8G5S3762snj4cp1y6RXr6mUmDefnaL3efbnE7RluCrq2Q+yV1XV6g4OM2muf6+vZC6NEvcKNucLhuhefNi4ttepQ+NE1T9hmTI3vvlhmUA0/UgnUv/R84wcr5JuHXi33/r+aaJxMUWGWCkUsT7Ni/P3qf9EmPo6XOj3nILdKKi4upqyCtTaRHEzH8Qik0HWUNm9MNsFFU+ivTVZc0aR+lF9YWKhppjEwjvAUzYxNgUmRvRkGEitOovnqkHUZn6ijpXSVtheAXdNPAq1D/2JKcVzFtRjEKTcdZ+l8Y/uW2+8Glf1ubOJMGmqVTzhpblXbX+iq668YsGSeZJ1XZvc4/657YzJj4Nx4jlyC1BL6C4z3yipQVCwpBgGsbBHpVkbprQ+vZziK4WXsRI6HMkyTvWzT8BlHiPtYC943kQJHHD60ae2aivNO55fWytPlDbf8UG9q975g00B1qSTAJBDavaP8rONdYjKkZ7R7eXna0KNEoRnWBWKrXR0ZthsbI4dILfwEwB+4EVHLlNN45S/InuV0dWIO4cW9SZOu1XY1MMBY2ARndtIOu2ARITdmAL2efxh4V3NHg2+rR/MJa1pg047oZiwFumrAd1ZgWAxY7z3rMn4SMIuFkxbbm0+AFQyLWYlxMV4SKWucpV+Il3fg9COcSHw5uR3WaQk+nGhUezJKQOl3k/GutdE1H3/nH0ggIFncC5MneEGBthwMNwVd22FLZtOo0xscbIi8NuH17OopAigMGlC6MjV8jb2fMzKmOr3BIdLe+OZiyaTAxe9268uG4BMwFzrdWH3sJPxV149WAtW3T3cBu7BTvW2mCezGlCtRA7sQsf4X7VXaOr3HJwCeUfi70Jg7aW1F24CjHzNWArUlDIIRnRC/sfGLFJ/RkQqpuW3BUdyyy4h0ZrCIrgl2BRrYjSs8hcHUaUeMAtNZgwFDg+uavZkN92cQbuzLzX+NuSM1oGcIgZVYFoObEvfrQ5tO//If0pMEHJ2XwjXVoR9kETZ1Nuo7ySSg8G6S3bC2vFzENUwfIVMuNiz6DwkG49uC4abg9Bh14qvTGxwilHEYJMT0esbJozwLGlZhvID1V7LTJsztOr3BIULR8OYiM6VwnTHyrCVffMWTusF3B7aMCTkfFCZR1R+dBOr/86/G9yJaT+etZ4z+WdZFOoiMkMVjisr463/RzrNF9+j0SGFosgmOpjOumE+Cdg1XzmWHUyUrLBBqS7RG8TheBHAGD0sNqtxj/kaQq4yrTgH7MFZedP82KHc1QozyfsAFSg4uueOauCP2yxmfFmt+LTbF6gsNQ15AbXn25ob9mnIXaxV/Epj2CC9AKLlZ8baYOFw+THNGXQbSKOR1LlAAO3eqnmSVgLJnSNY71zbX3fDqy1U3Xi5ZW/4z/00/9QwJgVMX4Cks+Wgvnrmjv/D6xMdzHO8qvJwIgSKTYbv4DBKiDl5xnoiok7ZvHcwYHe4A706nTRk8xeNRJ2qxXT/ihM6D8w9+90356GNFKlM976//l3HWBFOjulQSaI4EQnt2UksGqZuav+sh7V9f7WvXnk8ksxngRGJFPGGHJ9lZG+z/+sQhrC48AcROLzY8xp+nOFKsi8fxwIW7NNc64vMTX4CEGmkONqSlKDiS5PUnDWUUAkaeRZRH/kDyU93sVeQp1oVdd+nSZe/eiNLRyU5AHCjWAWShY0YB4IbyFWvwUmBhDHQOzS6n9/zQIxkdCIAvitzuQmQuXZL4lJMSxtBZefGExg/fdhqQ9/BTGRMmOfWq9iSVgNLvJumNa6PLTj9jnDysZv2COfEtHVAVryg6VtSsuPLStSMYy8Au3mFxGCTg9RyfpwhGYazTMg1fY7xU8GL2WECpv4QMDggnv1x/3drx8WVmxfdLw46ZalMS0CRQfdcNcrALutyZj4tgFy1GqhRAIuToci1CHi97TzInDvoTwNTvxegIvyRhMKo9dkzj2aV4HI9UEVyTGg5RsIsSrKH6zu0vkq/ujUotga7KjdRywOmvHu2CXQGUuxrYxUAeDIFO4KFwegRPgGIV9rgAvq7Fn05tdvXnTGzucQzsYgrobiVhKzwsBsKPKX2P67Y4gV8aokG5rHFBpVJF4d1UupsHfy++7GwcXErW0fjmknB1lYRA0mXkp5A/RjkLPGpBGSlsbNwGCc15PRtj+cL0SqJAPOPX+PGHOmOb77QRp/uyc2w6VJOSQLwSaHz/rcYVS+WjM8+dkn7amSINzmo0d8+4TVFjfwJQnAdHNyhHcZaCeSPF1egIBqMw+8HREFSMwF6GgykizrKClXBrh8PuiaDJwVqX3Zff7z/uuONsxjLgi0+rXQEhRtY0jLQ9VrKbS2vj9AieAP6woDh5CRkyg7QbSvXQemnXrh32eMstt2gN2Ne6W7V6HL9JoOJlRfxJoDUJX4jF1tE4koJLIvpax7Ug0KtYWIe5qlKsmSWSEtfKniElbmNb2kTjyncrfzlesqLcB/6e+fMLJQSSrqgTRs/na+w4LO6x0KEmypTCurXmHOyavJUPjBiEw2XrFKylOWJ34qnaf+QSQDAQhASRCMHfpVv71//na18g0hh/ifGa8WjcPD8BqOZVzBwB2OfZ6EhcOcx/NaQO3FzyH0P9KRJZ6740ktOLJjyL5BsHgO7Tp8/WrVuthNIWH7X9RYk3PIWEuWgwYNwdNiBe+zFqO8HTL4MJboEkLwYhsNBFXEvJIhPb1bB0YdW0XzrxTDt2eLu5y5x6VXuSSsD4eZekG1DLbmsSSB92sr9bD8mqGubHadIAno5+JM7aEebo0ByDhMce0/2v8cjmyhLJDlkXKPXzTSOPmmWUJ2dwNgp7FI448YoSvZXDB8okYBcMlDGDRfaqoVkSgGZXDnbBPfcPfzGBXTQaSVK4ltTjQkz0om7V+QlgzgmMufC3iXhesL6NFLnRkbg0w+cVPnAejuOp5QD0yhP2ke4RC1pCwAGA0hPYbTeYdD7VmD1D/82g+6oaXfKalN5qMBD1jAXneB96dO/6A5AaoUnDVuBp1ppgF9sKFBVLxKb0uxLhJG+X0u8m771ruyuveWhG3exHHdfn87V/Y02gz6GOBG4dZg2EMz3XWxiKGeiEYgxdmZWVVVdXRyeJ11MELxUodZyXSWBosWDBAo0gLl2IXK3u79SlYNUmyQJUV1uTAA798TMJ0BBJSZAoAYe8iMUBtITTBmaJfpAXHA6XTzgl+JXsfzU8fuD3Y11n82NpwyogFJJltzEmBeQSNbtGR6SGH5AAzbra1dRpvbT3mgX23b2U6jJhIMsSLiAGLbSbyCWG9AoowOK61ywMBh588EGNMwB3+8Ndxgoua9qoeJXiMAKur6/3+H+pU6dOmhFFvA89incRWtgtcC+ejR6jlWvbT9AXwuftP8pZL+PzdfhyD3weEjSbYtMmJKDwbpu4DSm2iOC3G8rHDJNsKuvS63LuuF9C4NoFfa33pA/2bynXOYS3lEbr/SQRiYh2v07KVpOKDRgLs7/DDz+cgxVbKIPwooiX5LooEHAQLxLX/fPvNTN1ezuxI1JPP2lk/nM6nrb0qoY2JYGY/m8frJU3vLGo6tqpktkRnZBaMhTodpwCqWEF24w0KwI/hyrwFvL9ygN+CX/jPH6LAzutuTm/nIHtwEWziIj9h7e2gngNDDxukM3S/N8kNNHaOD18G34SrL+bVH7DmLeFH2/4Kzv+jivbwbPQoUzK6XXFnTPEMzQHQtWcNBJQ9gxJc6uSaKGB/oMDQ46ULLh+/ovh+ojGVEIk7TL5keABCnInRwfDnCDuszm2GC/GDNBnIMfmqknUti8CdjEUKdDwksOxKeyAs7Oz8Yk6WliCU3yizsAudMmSfVsPHzlx8OsveN1aCQw+3NqoWtqgBHB2EUf8kNbfSO3jLr9Xs2+4wxbsYqnsr5WumRkheF+9iR6QEdYC+KMGtIWNLCtIXYaWE+ZR5aIc7ILem9GRuMDmeM2OGTNGA7vArAho6LGAEvS8NC9ADWcjr7BHE6Xx8tATeXF6qLp5Kf+Cg114HSAE+MEN/s3+ynbVN/EFWit7v/naY9og61jV0jYloD8j2ubq1KqSVgLwSKv5veNZZ/jA/oYlr8Bxu5n7w8Gul7PdZtkLwuyMF7xu+dOcN4oVDxElNdMIcZRQZ72DBw+Gq3JMB9nBbZsFNuZq2qCh5iZ13fYkEJNZC34y7dmzp6WtHm3PIiYN6X/1119K5Ofv2TvzPEftLwwzNNgH09JOIyR8zF2iKSqPfctALX5ksjS2xz0XG0/YBEf+xo2nhHnWqGv80l6xYgWET1sRfAAZKDyH4j5w4IDGK44f3uKDCDYY2T3d47hZAtRE7UR6gd8kGuR1feiZ+PDfJNDvouAy2jXwoGtM+V9ZWSji/2dav37ZwQ8HQdI6f2X6nOq7ZSWg9LstK98fLffMcyYjNplk+/X/flrSm9guAEeNIQ9F6XECE/2aqwkO5pxKTImIwKRwOHW1xpEuPqPDJEHXC0wQUyK08P5Sp3Wh3X/oIEmv6moLEoDOybDhhuYSSVWG/p5CN/YTC5+oowXt6I2UxQsXXHfVlTRnYVj25o5vdzjwxdm97VlE5RuL5Tyzp99K0mhsKdsS5fVlS+HUyP/68geY0R5sZ1kx/c06seLtOr3xlOBdDpUojy5vPnPMa9aA1CbHO4eJjGZO7zHOF1Cmg28rfsDgfxruLCwWYFiCT9TRgnZjukSkfiSZXWhSOhguRyykwTzBOdLE5Xqui39l+zN7ScZ17HYa68VfJUZJKFVXskhA2e8my51KvnVW3zat/uUXJOtuv+iDwOBICgkJUSK6EmwvaGsXKGp2AUe8qXzowavoTGPRheDN6lEAB044VJLzveD9r/zde3pkpchaXwIAlzg81eblmsvodQyo33Rq1fuH1351SOOuQ6q/7B4sbRdRQWlU+F/eoTDQo5e/R5H/kMhnj1708pAia4SEaMY2V3jBaypMm07y6iE5I7IDdj20LVDcr/2yT0jAkQDQqpkB/qgZg8lWYYFuKNwMm2DYHTltytSOLdx8882xGtzHYxQb7QkAXwCSnk8aK7T1xOLbGpNduPEfIF73OJPEbL0OTDTiJSSccH9N01/ZX3L3Xrh/rjipWP/dIX945oe9PPmzKfijSKnqySIBhXeT5U4l3zqbvvisYuKpknVnTr4U4YokBInqiuc1w+YGAF1SbL8MEarCZvfjyzQyB7ASxUT0uba+uYVe7w/ZskGFpKkxahbhosMXu1WyCUEeba4q8YI6ueqjXxyYf3rVe4C58a0bKQ8pAu5ZBMP6tEGHBwYPDfTtTwKOxmz8wJdOZ0FU2QfWfLf78kwSdFpM7kOzMyde4NTL2iX7dRyox1IgsNAd862ZbHFPGhsBBaclcqMj00j9bxwn+DhRMXVaL11RozhEDD5goHxGgeN+LYzDWTQwrbW4RTawjrBtYWswbDBsiYRGBkyN1eI/QFz52zlLUQi8UVJxlXCsDPlcpv919+z+4/R9jgqF+7ve9Ocu11M1eSwRPPhcqtIGJaDwbhu8KamzJOBdoF6n/fhycgtWfivPP+w0NqZ24zEXf2ydQeSIP1NjBnihwV+Ele5jCZKIonDbQWh2Ywx2pkXt0TjqX7E+ZJsaKd51KoFAx437nTpV+0GXgBO2OK3q/dv3/PknNY5/QfGvPCMzcOigNABfwN9Bh6UNPtxX0JFxMxR7uLY7qbhp7+NYlePUfn+HT7aZsgdbiU2aNrNxgnWA8COQDLqFDNJDkWjqz49J5QbCfO1z+9Cwtd0cQKSVM/KZfTAOzUBR8qCBoIkSjpWV0AIT/Iceeoh5F7gCOPoQMIWSEM+LBLYJqFp+wBBYRUc/2VjqB+OxGftjDQHjhg4dyiPSeF+2dwnHoTA2nSpcv2/W3bsd3S6f7HT5Hd1niLHkYgpw4X3LirLVJOD4E7/VVqAmSmEJZE75VdNt1zltMFxT3bBgTubUK5wIEtWOx67mH4PHekz+MdxesOMJdCD+4bXE3S92LSF4LeHNyhxl8CKJyee65BUKnTEW72wWp5NvGHwivVg2wJCrT16YhQfmw6MrviyZIXU0rbo6CBKwxg/pV7/50R23jahe2VKraahH6Fwxeq6/6yHQ+34bDlS9PP+nOWl7mkK7+91QOvDOMA7QI6VjcP/guq8n7X9lyv6XJKsCgHYFuxget9cXnbrfNfTTSf2JNGb4h9+lVhBJh1mK/jduWBVbSFiDXO1tQo0wdXj66afxl+sJwOEhgAOife9p1k3wBMCzhRUP8DRCiNsUJoEsArjfcRjpfAo1n41GsZTM+gOG2YVHP9mYxSoiUWg2NrG7x82ZMycOv7SYJByrJ5n1r6wsUMBkbPvZsSmiI4B8cJQXcRYEB9dHsS0r1dhGJKD0u23kRqTmMsK1tQdO7B+u1K3NLLsMDDys/ZIWe6nr0znpz/R+h28cdOpR4skJc6POHEVtU+fTyL53KIu4Dd1E0wi+Frh6RB6yXtQYoX17Dgzvz4eaKv7CzgWrvzM1qsu2IwFDkRY5fxhbsfTv39+YF6o66Cts9KVV+3P9JJQWDuaEarysJ+uyaTm3/9ELJWhiwjcGT1joeld/2v5xcV7C37hcexcFW62oUWTIfw8DXhYXG6nUvCBXHBlldjbSFHueiBRNIcf8ja/CqGx/kXyqaxxiNLWCMVWUFYTnxXh5ZBkr1GvxSdj7XKa/MkyLP7QXtl2pz2/+fjN/5OTi52hrLCcAZi7qui1JQOHdtnQ3UnEtNff9ru55Rxsp7BhpypGsvKW3bjzs8NROqMkBCcCUsZ6uP35jiUgiIpMIYnnIhkq2HzhtqIkBv/T36FXw7np+qSptTQKiffntZU/duPcJH3R1yVnazX837fCjva89CuVIhyFCH3KyUBJYu+pKWat5sUnPSum53RG9iC7eDIeaZX3BJvQMFo31xQhPbXz4wKsZplbMwCPW3yTMFsLYhbdacyTs0clB/CtjFt4nVq9etPkXTgtck3P0mf0W0t4YLbydGKr2gy4BFY/soN+CFF9A5pTL5Tusm/OMnCAhvc2JEk9tGKwFJgdQ2KAwsIuKHtjISmvfwulrttoQ6L3ewyTZMFFNySABHtv//n2PwDo2ecHupo7dYgK7uDmIQAK8AmgluVHoBQ0sYjUaDnYBIj1EbaO2AdAHWwtOafRQWcbzwUpGCFI5as2YceBv7Uii20ADG2JegFzxG9vJiw7t6AWNWLxPBEpWNj4sMqB1CCo+U6vIk40ZUyHAM3SoGmfYX+HQCebO8OJFQAx8oo4W3aUBlPEFhI5HwvrGjbHm/Udd878yfiPKAh2iKKIvNHsGNOo3zuAQTamukkUCCu8my51K1nUG+g1MO/4kyeobXl8ojx0rGeu9C8ZkxlMbUeKh18GvdtuCdvSChhWch5oiH7F2ZtclctAfi2KbrM7pxUREfIDe6+khmxbg42wqQcecmTbEqqnVJcDyjU0ryLiy9J+tPnnCJoRG+qHaeF4o+NuEoxjMCfAXCmjLpIFP1NGCdvSCxmxfGxOI3PoctfflJfpvHLNIjE1hDaVZ/wMFejfQr9+rzRYHcvX5Y5iI//BmngB8j6jsXqqv4RIO2sR++7rwZGM2r95/k3iPnyhOHaeE9Y0zXC4ytK2z/1e0S3/yl6XJ8G5BUE8OotMbHGwnUI1tXgLxPJ7a/KbUAtuWBLKmSlW8DfX1/4lEOWjhVeNZjLM2bRLodWCbCxtZmA2wxxk+UY8OkE5PQsX4uKYVmqII6Y9FE5XjJadniYhMdHqvp4esc2wpyjUoS5tpmlZdtr4EkFtkYl7aPYWZrT91Amd8qbJx6dYdcTOEJxD+QgFtndKsjB8/3mAeB4iE+tPub9w1CYLVz8lYhlONKlY30M6YILIO4GigidLVTrzN7QI8Jbtfj+ot+1i7ND2poojsLnR6niDD428SO17ubfFIGFyFjRscnGfDX5nWqWfpq/LnOpOTrHDESg0UOr3BQTJMdbVhCaj4DG345qTK0jLOHA+XqVDpPqcN1c15NutXvyY+zRPciaz57ThrM+wF2dlcxCfMnjM0uxKwizG6yYE2HI/FmII/6I9RGobTWvReLw9ZX5rsDzncpPCuVb5tqGXKoH4XVf0/e9cBJ0dt9Wd3b6/f2cbdGBeqbQwmdAimGGMwNiU0Y3oJKbSQAAFCEtqX0EIgkAChGidgk1BCMGDAMR1Mr8YG3Hsv5+t3u/v9tRqV0Wg0M7t3xnse/e53q5GenjRv2l9PT+/Nz+Huh0q1NWMh6AT0Fjk0b0MRfNiY+vWaptp0Yxvy9GQVFkRyRyhYf3cmaHa9VJJQOgJFAfB99dVXdqPlU8jCfRBPZ/koVukbCchV8dniHLnjCPCUtuIAl1bXL7DJlDeVo7HzgIe3yBZ/+eWX2PnA3YphToLkbNAGRxxVO/YEB2HMTlxw8G7l9tLTGkt6k1uJDHttMvsZdYXB0Diq2iIlYPpMbpEDjgZVgBJIFpecfFbD/S7zMnYq6UXzW96enhx+OCtox1983kaMGAGTL3uNUttVQE9GzOTA5oHXYii8y16j1jb7aEbBagO9ZOMme4aWxgYN/6hoy5AAfGucO/v9omBwFRaHb1Qe9HrV8G9KdlpmVa6cfkQrNZ3c55HS3qO3a1m6XfOSvvjfsrRvM/4v2a55ce+WFYl23v32UuVhF8x7viGTCbQWkavYhQ4PE1Hl0TPwpFpA17QWxhKjR4/esGED8BxM5GE1hMFjbonHrXPnzi+99JLm/RDc0xnHnUxRahigo4oBOItzcFR7HHA4ywEuJeSGUkHEpfPvhoBzkAMSnH9BYrByNhh+eAzOv1hsUeAn4tvIiMu1rbE+YIcMhHELtmQkO7XGTK/NJMW7WBMAfTY5Vhi0fUSFW7YEIv8MW/b16SijIw4ERuxupT0NSYuPGFt53xOb83S5/gY6DDuOaPVg4rqy1+igmhW8CmWNEdROuQUiUpydQQrgzFyhmd0kUYk9/Y+Jh91wsZf06tKZsVXbt9O3yqvTqDygBGp/dX7zf//tS7w02efPPS55vMs4+AiziZlvAX3IEsaxKNPa+5ubBi7829CSxK7F8TE7b1+1ZqXV0szq8/pNxRL3dPvpH4oOSr9NjA0AiXxDNuTcn3CxkqsjFERc3m233UyINtTgALu91n9yCPbGARw1hIC+vnoImQkHUSdj2NpwysGHEdi/m0EjHkp4MnG4eO86XC5zM+BycQvBHibrpWfNl/0N20O777Yg/dmvovhqsngLOh/h3YK+fIU0+E0/Pqnl9Vc8R5xIdH7jq3ivbT0J2q1CvARz/Y6WlpY20ogP7DXqP1gzWGG1QQAELDQee+DvS7ev8uq0KWP1mUdiwrXHt8qr06g8iARaP3qv5tQjfSlfrD7ywu3u3BSvFJSyB2h3SGpBx3LyHfXxR6m536Zmz2yd/WVq1pep2V+l17DNVYzc93djonpSl5Mf6nrO/OL+xOo9q0Bt1xvM7U/Kd5A2AZuXIuhXKpUSFk2+7aFu3O0WYrYE/SiYwMQIqy7Q9jF3BHpPZw1LrZeZc0CqQYRL3U67Eo8N255glblecX4Azj9wBjtBCzsBxi4Rp8WdkZnfbCHDW+TmcUyMypULcWXzw+Vur2fLv9qhOJN1cucaFQp6F1/UPOsWWhPQ65mOTVS2pUgg2q+2pVyJDj+O0tN+bDrHVKrpycdMBO1WJwwGmAlB0K4Y/UEHMQcU2AYHIOKbJEdIGmdnUq3ZTRL6gXdMLNK1wJDTOxXHLLpcDkrQexNGNZtXAqlU3Q1X+Hb56DZnnNX/AQF2AW4AXn39hyh82V4orE2/8PIriPNSfNwp5VfdVDXhP51nzEE4kqoJzy04/owHNjY/V9v6fpO1INm3MV6q8Fie7AVrige6nntOv/t3HfQhoq0SsIvxtMWCL9ZbgEQx+QT6gcIP/5FHCcrpMISjkiCr8/LQGX06nT7wwAPtRW0QYEEGMWKABccssBDDAv+RRwnKaQLAnXufbTsBJrBWGnojWcPBtJYmxdNZ83rr8ysE2AVNJkX+GldYK/+X3Qs7lBCAjCcAOERWo17DeKGSodHXQOmVmK2/uhOAG0qxN5WGAdjyWG44rwD+3Wj0NQ2rXIvEFgV+IlpWwOXsTvO9dtp3HYwxMCWzeWe99GCBQtsVLUzMvpVm0Ko9DDkMXUdV7SGBSL/bHlKNeOokkE4jJkJ6maR+cFLFe/Tu/NZMy+xqwNmkTY7wQVXiqgdii8+8ZHIA40LxHcVnA/CCfWUd3NBKCr9EIlXKS6LOWl9tmaypmr/DNtWWp6JicOroVQuepCPxZesYcHTQbhJoevzBuut0rp2lHqeW7nXWgEdSyS4h9ItSc0c2gBZWrHVkVyoQ4w2R1dJWPB2LNcVKhSmFzFfWHH/+uVwTMA+tm9menq5Qn3/++TbkBTDVPlxe/eGxku2OKFnODylt7tavr5xmfXqp1bjcaxSivLSX9YN7rJ4jrZCKVb06GXzZlVXfJ7CRmDGO9OtlagXVMtA2TSHDW7ShvlO8xwwhKoHLOdgNfO207zo5gsaCgVVV3kq/gfNra9KZNtdn2wKPfja7BCK8u9lFvhV32HDv7Q1/vskggMq//qP4qOMMBG1SxS13+T6V1tbWnA0SYMxw9tlnYyvDQw89BM2HPUJ8YIBlsfvEsBja9QBr/0leS6W+L1llbe4j678Dmxd4yeegnV6dtfB5rhRsw2+VV49RuVkCmQ3rNoz8QWaDpOpzNfi4MXXcsgbsA3PVZAtgaL5/GJP3ABH7lJvKP7aCBPtyu6kE1tGfpCjt2rXr2rVrybF5dV60YDl24uzYIsEdfMNGSKemD13GgD6xNxj0a+sDpvRFN90PtfqeaHU70CrvRzqtX2Stedda8rS1+nVySFOPw6xVr9n5wABORbRoL0281bDnqOUmDdkJjN0d/zHXcjI5w846iKmV3M6Q99c4tDUu53fd3IGVneHfxCPtOL/2lAt+4uXBw6NRVLzlSiDCu1vutel4I8NW9A3Dh1itnmpIBBZGeOHgJ+5GrnSHNdCn1m+OryaJdB32W8iGiw9Ajx49pk2bxgpy/9WqJRR2iipu6twf7VP/sULDD4/bfvLbFQeSdfBsQKk2/FbxLqJMKAnU/e6ypkmPGJpsTGf2W1S3OuUBdtEyuJrTuReKb9vSPiYcCpCxBcZhQe5Y98nKmjaig8QUsXgbq/Y7a8PnFpwhpOqteDJrEuDc52rQArr7QAlXf9JaLfLTNmTPi35HoAw0ESECTnORSntau99u9TlGy89a9rz1xZVW40pHbdgXjmKubR6kASnCyGHGqWQkXtpfxygRveIV4t933ftWzWwYaqBy4MCBo0aN0t5FSlPfQ+VtptK3Ay6n34KXaueXesJd67Xr/3biGWeqg4mOC1YCEd4t2EtXmAOvveTs5pekQEeus6h+7q2iXYe5itUCX+RK10BloyvHh1zl5zwO/Jl3NiNHI0eOXLVqFawk3VW0RGxu01G4h62jstwakccXnn9UzataYhSe3+/e/3QaK6uCgrh98OIWlecpgdQ3Mzce80ODuxLwn3/iOQ9ubIZjUb4KQedywmwGJqe+yW8vlPZ+08BQ40qF71qEdpiO5xFP3Db7WnPu9bFkpYwC4jNKLKNSlOTcdv8nNW5bFCRduZN1wGSrYnvt+dqFdfOs904lmJ6mPMG3Wwlto9IPLfgmgz8y7GCLFwuLYfnNxi0EfOcPOd1FJiG46kwLC2FxOWUuXXfPd106vW7nzq6xiIJtvtu4GbzCi/6iXDtLwNt0pZ07jthvnRIoMcdas6ymR//mKxl8KceNG2fAlOCAWtCAknLDJ1wABXzz8Ip371Phnp6CR19z7XGBfhe4BG9YaLwAJqhHUvxHHiUob2hoMNTS0Km+EnD7Il2T6Gpo1bU1uxAMq0eo0LJJcDA0i6raRwIND9xlBrvYT7bXH+/UxhsTPm7xRTcnABq/vVDKY0L5ISwL7lWbNw3L8vZYYgILp1f4jzy8MTAfBaAEvXkg7lrgG/E8QsEJ91ufXBQI7IIXuoYRfMAESjZU0gL3f3DbX+l5UUOX0d4xDZDT3g/4gF0QAw2DjKdOu/OsT4btOCRSAqjF1Ydml29b7HcaaQ49KAx2YecKGup8F//l7XHym23dDLtH5SyUceR6FylszIfunWTkBGnKJ3hHloPXuy5jdEweKyuLwK75qhVcbaTfLbhLVvAD3njkPqm533ieRrK485sz4917ehHkoHzq2bOn+LjKGg6lD7xh3xxlbfpWKdYf4sOZx1YzPc/ApWL5j9ky/n7Fzb9YfZ8Xg9t6/PLWnr8ktcyWEfi7/Vyleg0jKocE0qtWbDh4V4NVD2iqn3ixaF/m9MMpNfeld9azo5B7odw62hyWUFjf/r/iLPA8Nq0RLgIwF8WTZVQn29zDmgHQZux58R8ipWDPi6dJA98JN+gqa9DVQdnOvsWie/9hxD/8xaCtuDq5eqhVv9CB42H4kfa0E/PhbzCMyfsu8unaWa1/t39xRdaCIne7ba93HbGvO2An5xDEUWybbl0+mCeOo1zhSyDS7xb+NSy0Myg929a56gfe0tz0xMP6KsuCvlbsCcOXMpj3HAF28Y2Em3G3ggf6Eqgx3hpjwXemb8L2FJjQyWAXTcATnImmiiT0eMQRR+Cj7uVciZLl/N8dkWhtkUm/u23LMrsvFsFIcMh5EFHDnCTQ9PhDZrBbPOZEL7CLDgO5z8PNnLeTKajcMCPKfy3CLSRY49iLM0C3QGkhh2ozzPqTElpApRtF/Qn7WprY/a+Qex5yepgHuFNrrSjb/gKR981x4rXvBXrnUIZcEVvzlQPsopaDXa/FK5R7Jff7kFLmfRfhQuONHfw1qF9YIObC2cSvhX3s98PoPd91DfUGFrHyckNtVFWIEoj0u4V41Qp7zJmGhg0H7ZLZuMHrNOJdu3d+62uruEQhMNl4KaT0UDZuQwnwcTamjoPWzzTNJoapQ9Uu2XBHftHX3jneWv2GowvnAZQN+Yc6c0ckOmHDfx9cfLGzK3H0Qfleo3dgi84sFJMdVU5QRbl2l0CmqRFbNjPr1nj1FCsr7/Tqx4bAK27TbZWVYYuSSpo9lh6T3HwsaLkaCoGB7Ckogofx1erc9LVB9MGAidwBbRCjZ2Xo7HkhPnqVtGiy9cnPSRkcMvyQPV8KjdfhOz+y3TXs+5jV51gvKkc5QDxXJ2ej2eFN8uCDD4o9subFK8kTIpxdrFu3zn4DaPW7+d1FGHYQH3Py/gp+pp4LC2758zZeGXbttO86RFrZOPZAr6aJnYd0epGZfHgRReUFJQE26y2oQUeDLWgJwC6qZNw5hlNIr13d9PxTbgK8QO1CvNZ93QmBFDSgpAkKHhjAKSmAaZrdYrtTrBFvE51ur1EKD8chGBrBLoi1FpMOJgEO3Eacc0p2MLTbsYktzDGrOMHB0CyqamsJIHSwAeyit5Kzf2YAuyCA4xFMmci4vMxYv7mD1CKFf0zEI0Y5tNF/Rc8HiGYz3vCpnQk/VLshhABjYm/zYmIdAX+3PLH7nxf4ZDg9Nn650/oP7TKEIg+beBNYJgRMkiIWendqjyTArtfiFWXuXICCZ7d+/frZ3WqjPORxF1144YVh91fIAlAWFsTcnl8LmdqQZ/Re77qMWb9bFul3DcItyKoI7xbkZSv0QZee+RNzXInGCaopqmMN1I1cvSTCN3nAW9Da9x1UYaL1WIueIM7hzSkMQ+i3YKxm5meodUckmlMyMINNPx5pm9R6/JFK9m0THDyaRMXtIYHGx9Qb29FLoog8Gn5JRN1zx/ODIpMG64LiM/xjgskYHjS//kPUQ1eH5WzEc8END+Y0YATinNksqGeunIZKOCRNm+uJxS3sjhC/N+uDz+6R3f/2oe8Ppy8foKHdONMuTFZras1FvAndWGYmprUSgKP+FsX8JPyEQcSr48pvPob87iLbTTK44cpqdwajPJsMr0GcIN2vudtuu9nj4tfCPvb7YfRe77rM+rUGFrGKSkNtVFWIEojwbiFetYIfc7x33+IjTUt4qVlftLz/lnyeYo8tFDaSnkOm0eRBCXqa4DySp/CmacTKEK28UniG+YTldBtx1sfLlyV7e40O5Ts1zSW17NsmOBjaRFVtKoGW997AEqqBZfHo4+M9+xgIaNX3spndd1RuAtgt+Or5SKucn+iWDVbPwy24JgC0pfpX/EceDOE+bPgLZLGFezCg42P3v3u0+hJOz2Pzcjqgzw2f2UctNbw4aIY30WqOtVycAC5PFYBApQsmqGbQ3Mgk50uD8QOCB9tfgftEe7q0ULyp+LUwUMtVjF5wkGstK7VssbPAcRTr1t1xHB0UvgQivFv417Awz6D0nKzdm/fgm5wqXjgitWn5pg3vto4aTr+OLT7CNA2veJrCLAKSVmjrTrkyhHoDCjA3P98S+Hi3aaRv1ZyS7Q0NdwTexReanbjgYGgTVbWpBBofvdfMr/TcC80EvBaqL3hUsA9zcDLFGfEMe0zEg8arcsr4ewAs6WYzZl0H7UemX/k/EsShxwgCcGGHOnYJgbl9T7LWvE3CfTPNbjnfeyQ9L/7dSc+LBVNjJcEcNt1kl9XMUir9D3mT8v7+xJTCCeDyVwHAipcwdhvG8FelLOogo+T0JT30O4MpE6dxhfk1KN5UuV47wcF5Cobg9iCM99nOSR4dFbwEIrxb8JewQE+gaM/9inbf0zD45v+9mF4iLNvEHlu269bQ1lHF6fkO6zxM0yzeVu6DF4ZfVRQrkjJDv7zWiNPfhJf5IoUBKF0P9esnqm8zCaRXLmt53RQ7sGiPfYqG7R28v829mT34yAL6UUk12Cz5ExqwC4Xez4QXHoLjcfalc2M7Q6fseSE6Y47kKD02+TEwTQpWv241mxbH1U5AjCY0ddlLrdUeS+CbAjgxM1HGpm0uFzJ6YdiKc8EZ8cRflYqoOYFXhtOn6rxIRLm0v8LwGtS+6wQTrxy7doZ3nRnvJnpv68U7Ki9QCbC3QIEOPxp2IUug9JyLTMNPpxsfu58TCGuz4MYMtDGnp3Zy0JHkYeBoO3vnw0ImP4Y5W0y6jTi/M+p391g7hX+hRVv5RKJ8e0qgecrT5hgTwZW7fJjQ8sKjgr19jZfSDL/tlXKvQ0YvHjQnpbLnDI72YJiLlWi3vS+WLKCxs1sb1k+43Srr2tmh95FE37+/j3IUBCNGjHCclILtvPqREe0ulwsq4E4p0EOvXmwz3Dy2CU+Qeuc4MeIPw8I4SHIBuPxVADBpEIFFZP9u+V8azsF8amx/hfk1KN5X4a+daOsaSXr5EleZKIj3jvS7QhodIxfh3Y5xHQvyLIqPPj7ew2Ry2vTviZm6WnpuQhWB702oxOmpnVz+pmmyHTBGkjdDsS4Z5rzcRpzfJUzC3Lt1USLLH184rRugMJ1HtKEl0Pxfk+EKfDIUH3VcaKaWtRk2s2v3nAFBAqMA12IvGoCvbJYjdHXm5Q5ut8qf0IDnz+iTyeTChWIJSNsaBLAhBqWjVsZ2jorsAfhLiJbYB2/7I2ILhNgTiPggmUnApOTWW2+1GSB+BDfndfOUS0BGg02gEDv2ZMWqTCbnJfDNAZwA8dIEQG7kmWf04KA3jEmU2m2ZqD1ZKRWcnl9chUA5xEhgIpxNhteg+12nGhxzts5rZ37XmfW78T59Odco0zEkEOHdjnEdC/MsipIlZ/zYMPRM7aamp/5JCcQeW7Zpw9DQUcXp6Q7r/E3TOAfaDT9kq4SO3g0HjF6sSxqIdVXKt+rzd3+S0ZHRsvJ4bGhJAl9otPKmimraRQKped+1zvzcwLr0jAvMHksMbVHVfpvZg+w5A/AFphwyZAiAb1lZGQ7JaH29LnCPB/wJNZ8kr2X0LS0tdpmfHwBBiXhmNEFTCOQK/AoUS1Ea/rsQLaGFbxZdIGXK5qyzzho+fDjNWx/9xKpjjv/sItcPCEAmpzDgG8CdT1bzVwFQDhrDmFSjPUAmanm8pjyn5xfXRJ2tC/YaVN51Qa6dz7sulUqvWm4YXWS/axBOgVZFeLdAL1wHGXbp+PNiJUyXoDunpon3vzBlCj66S5cutevZpg0dua6M03ceRqrzN03jHGhv/JDbrulGoSlj9GJd0rKCrxpThvK3an3zpm+bmacnTX/Wrw4fDnpdTVTWvhJonqLxJy26jMeLTxgvDvPIia3o/LYPyI3RCw6W5b/nDN6mmG+pWbNmAek2NjKo5Lu1n3s8YF0HHCn3MWLTB/MDYBPXfmfFi+y8n+Gv53iKu9Aq6mLlzjvvTCSyaydg/tbRZP+cV0IVCECGFEtY3VjI6MDgWwB3y8pfBcA5AE3qDWNyvjT84nqJgpfrXoO8Us7I7zqyx87odxmaXfO7Lr10kZVKyfzlfKy8IlbdSS6J8h1AAlF8tQ5wEQv7FOquuRh2C4ZzOH1Fw9S6VkGA7yvc3LAlOVGuzUFnAy0OXo5IcF10wFNEVUNTHtF6HJGW2oIhwv9gRRgLwbZuzB6i4wdmmljK5NoduY63/XP30rOrnUu3El3x0SdU3j1BKoiym0kCG4/YMzV/jldnyf0PrvrnFK/aUOWYL8HAgDTJ9TFBIAO6lxGTTGGGC0wJU0vtQ4dHDKalQGxKOmiK1e2HSpnjEEG8Z4wjJbkOlbQNEpXtw/Otpc8Q4uAJG9R6jiR6X6zeYEILa1Qs0ENnCRjXKxthEQYGzNMZkCLw7kknnSTYdz/U6nui1e1Aqzwb06F+kbXmXWvJ02KPGkgTJVbFjlam1dr0jWjol4NGdtOm7NssuynQvkCYdQy9UW4KZ9uDG2fv3DS3U6omZcVbYsnWWCIVK6qNV8CLy6y5/2qcQ1yFABQqqz24f2BX8PLLLy9YsIAwzPnS7D9Z3eFH2Hkk9grVRkFT2vB3nVLODw3vSU6DTPNLz9ZewqIRyRXZfGKnwZ1ecvprd9FEBQUngQjvFtwl62gDTn0zc+MYtsioO7m3GlLHL3MGOsfX1x0ZWNeW2OHJX2J8Hb+7i3y9kOC9SPv91vJBIT5+Lwwglfjywe0RT1P65skQ37DTTz9dYAvOWZdxf6I4Fb5VSx64++SZzHEbr2AZWEt3fjfEx5W1i37zkkDrV5/VHH+wgUXFH+8pOcXz02toSKsoRoFVDBYKYJEJXwR2QAc6wfNtDwL2mAAr0KhdQBUwUbCbBsGUEv6zWwV5vqYfZG8eze2JDtIKjrHhxyp4qtrZ2vUmNYwioDms9hXsm2mxNn0LxlRoU6dOxVOMIL3BuwpKCfDdZyw1+eUXCG2VuU2/zKYTNj53YN37uzbO6tWy0sAca0BzW9JfNaX3OvWMXY8/KTF4qNvrM0xT7Ll3ECHTzthdRNxZIBplwMTeqzKU922q3PNoC101libguSKg55n6269r/PudXh1FqgEvyRR0OVvZKeiTiAZfyBJI7LJr8sBDW9593eskhpclhux4xte9TrUQePOTiwgZIGxZX/+QwtImD5s5VDJkLTKLd2FqZtY/KQPyMk2D1oc6fMiVIQCKALtQqGAhGDZtWOYDHMfHAGyxqohvdlZLDcqVK1dql+rwok/vNmTDiKzZhjL47CHs1dKLF8S3G6CrjMraSwLmnWpWsrj4yONy61ur6xLRy+Cb9qVdrN1vIdutDEl6TPheqKB7zjhb+JZqWOKYWwaZTMLvwYfnER45PNGJMv8Acgh5iDAxNPk9WYQqVmQd/IpjGgzX2vA2SB9wmxEc1tbJJcCFgF94+o499tgJEyZwqlwyeDulmzXqZNgZZ5NsbYIeAX9nfvHFkSUN58waeVhsddwClPVPsGLcKRnHnzVl8qYpk9Eg1qUrFhlKxp+LVzFtjzvBnvDkcGlkdxa+w2HvVW5c4dsCBDh3pCCUXjSpLz/1qkJ50dA9DLVRVYFKAHd+lCIJfM8S8I098dPOZQSbYqM028xLFhOhTgAc1CaUo5YtOEInKpzzN6+3W+RsmoawvfIel3LmtiZXhjU1LDgTVCn5RSSK9xsY795TKxJa2Dx9qqE2qmp7CaTTzS+YFtOLDx4Z62SMi+sxpiA7yaymVQRQ0lmim4/rMaHWMkBvtm4PGBFmDAET8y1lk3s9mzI3APGcnmjCY+CPHcBUZkvz4UMeEuuCmdcLTuAA6SlgV1SL3JVXXomDTz75xC4aeB6xnirtBSQpiOIl1oBzLZh5QPMNYyr8R14ygCaU6RRZO0It/kNFusedRNMMSTIVtRI64a9HH/Zp/8p/9Co7PLYyINgV45FyiKyL9f1NZx0L6zKrpRk1ObtEIBN18/xK6pdk2WtThvIKSXscts5ksfF03BMR3tWJpdDLInuGQr+CHWL86TQxcFw4z+tkmmIluw16f23RNoQgpM4GSPfuu++GjR3+L168WHSRs2maYOHM5ckw5Koxzkhry1t78ZnNU59zjkwcJfcbXvU403iJ4ijXXhJAWOxNp5sUUZV/ebR4zIlhu8dOMmyWslsF0VxWbG/94G6vRQPwwWPCFw2E5a7LMNRnnFBDYhcRTb72u5xXyCc6EH/oZanmGNQhnyxrn0cIYgs5Kghw2rRpto8wasshm1JgKhvQABoTAMBcOTE7AdmYAWs1db+5pOX1V2TCNsknDzmi6oF/WdkdeKFvM4wg19cgNxxvk7MwM8Ey14bDdjfQdPl4UW6zUAPPqOp7l0CEd7/3SxANgEigceLf628kOhKv9IeeV/65xyV2rfwh8WqQLT/77LMRSvS+++7TU+VgmqZnxEpzZhi+ofzxY92T38Z/PlB//RVyiSOfSHSZMQfLl47C6KDdJFB37aVNT07wYo9t4J3fnxcrK/Mi0JYLPIrq4EBKyytbqBiFC9vN4JiVMse6x9tj7X5CYeXATzTxrpDO7l6lmNLrpPKxDIb5KfalMZVqLhKGgjZ/wE1PTTKM5lPc5uefqrv+V5mNG7zOPs/y8mtv4dFPHDebkS+iEyOABSFpu7eZscPcK5tffKb20nO82mOVrPP0z71qo/LClUBkz1C4165DjbzkxNNjlVWGUzp/3cQkVhtpgv4DOhh8lrwT4OA111zz6quveoJdtIVpGj4nvkkycLzqqqsADsAcOyTQDv8HDhwoGIRnSNpCIxJ+1ZhaDYquWa545BgrJq2isnL7N5VqnvaiUhYdtpcEWpqbpzItrK6P5BFjwoJd2OwKa29oLrFx08tSFuWoBY13wp0MFKVs0hcO8pivKG8GrAY7uoBZv5CmrHP/Ruwo2Go1o/P43fV6C/a45oTnHU89Bbug9DprVKHTPGMocrCbm4Sf31ZolwH+YNzsm6TgunbQcg9rk4a7b6795XntB3Yx0oZ7b8/U19Ehe7oqk86I3kX33kt8PpAU/jXIDccpg/b+3/rZR4Yuiob+wFAbVRWuBKL9aoV77TrUyGMVlSUnn9X46N+8zgo7jo/bOOWpzsfbBFhwxB8+bAhvhn3Ttd9aaeJ8HjoGOAaClRv8gJo8BH38M+IeCAk2vthnE2ypEUj3lltusQfAflT9RxiGNg+sYBo+3qwj+xeUoM+uGsNzkHvTBiJ1Fe32g9YvmCmh0hyOeF59vuTkM13FUUHbS6Dlrf+ZcUnJMaeE7TWfnWTUdYPvZvZwgbu0O7pwVpk0idSAP+BUbGAy23TCo1mqQSOKWJyE2+1xuO0FDBSfXmK7QwEcpE+N23lCvNhmleuTxZoHhqrKXr0U8ycTdiq75BmyLRVg/f2zrNWv244Us9YmdE7ScN+fgHc1gmrTIpjzItBP6Vk/pVxhN4UUxCXC9OnT7clYmNcg3qvg36Zn4MOs5Y1XDRTRZjWDcAq6KrJnKOjL16EGn16ycP2hu3lrJq1Py4aN3PF5/TmzhVRoGuBQ6eOPP95vv/1S1J04ItTvfrvV5xi1YXj7PG7gKLMSi78I3bSW+QILYlKZKLfodzHXVWN6svJgaL7h/jsa/nSDu5yWIMBH5w/nYyXdiyAqbysJ1F52niHSRKzzNl3enxMqrBowR1u513WfIwc0X375pe0J1WwzABbB7RDcZql8BNKSPS9zZOS23FABTw1247mdJ8gtKwZaQ37nA7VlevYaIWW52qHK/Mh2tKE3OkrMB7IBNKPk1iZQB9T/4RpW3L6/RXsfUD355Rz6CGvyKxuO59BdDk18jXer/vF88oBDcuAcNdnCJRDh3S38Am1dw5u0XfWRJaZTHr3Dsx+U76WhgLIn6xwXuiv4Y0eEz7ffzjqArNzJOmCyhc062hT8a501XdC6eKyqqhKbVLC5m6+EanvkhfiEL/6XjXd9UQVvRTPOk1UqcZia++3GI/d2l/OSyjseLD6OeVflpVGmTSWQaWjYsO8A/PfiWnLa+RU3OncmeZGycrGYkCuQ4uCJsSS/Wr9mpMI8Ews5Y7R6j7H2+ydhyxPuZDlWBRyw7Pk3tw8+Qs7b8mcWthbMlRXnp8/IcFlPwUrZk0WOc5Ww1esoEqKiZjZhYhYgoXAmGXBnPfvyEDPN016o/flpVsYQMtzJKs+jZHGXz5aYg1969SDuUi8KVq69G1lle/02PnZ//U2/9uIeKy3r/NEC/PciiMoLVwKR/W7hXrsOOPK/rWXrgB4n99M1D+trmD0AoOfEiRNtsAvSvR/wBLuoDWAHzLsDZ5jMYrUOCjbodAERaJVj8TcIQ2qGCEq+6MkGz/vyyTB60bWzQWKHnfHnLHMcNT7+kOM4OmgHCbS8Nc0AdtFhyTEnh+0WQSXsJvDQHCoxesGBNQc6gadV2wEZK7R/Dda3wJ3ctS1MVAP40SP01DMaYCWAHXSZiH0IW0+agGgBdpFwe8P5IMk1ItwAAEAASURBVNSi4AnONKEtekRCeDOaONiFIhbYFMgS80atny9MQQHNgyT2ZBFaJrEg7Rz09Yst/NEU3ADaSZ9MJuGvAEtVdKE/s2E9vDGEArvwS5g86DC4eiz98aXYfFZ65k9gxVS0535BF3Zamls/+9A+i5A/wU1+FcPxkP3kSN7y2kuGlkUHHByBXYN8Croq0u8W9OXraIOHrnRK58xuJZ7TsNZY0Z67vL002Uc9c6aYgX53jz32sPHuoKusQVerlNpjfNdn32Jt+Exb6VVIlRMO/S7/XnLDYmh63MFIKUdsaqGQt631u2DfcMeNMPXzGjnKO015NzFoqIEgqspTArWXX9D83JNeTOK9+3Z+c6ZpZ6Gupf5m01GqZdIDwgPSgka/+ky99qLaa00/H+cD6siyxwYVrGztQD2Fvbi9xb1oAxAHM74nVu+YZJoTkxKhyvWpJPEXaQRHMAH+Dpt0wXXrrvp509OPB+GUGLBDyannFh97SrwHvP/qUiaTWjQ/NevL1Oyvmv41EX7NdESkrOyya8suvsqrNkg5t5Chkf98DceD8MyTJlNXu37vAdTHsJZVxU13lYw/T1sVFRa6BKL9aoV+BTvU+GEw8Pf5s/7ao9TrrIoyreevfezGXi4jNqbs2W677YRyd/sLvPio5dDlbLO39eKOjnI/G1wa6gxjtnVjGAMP2AaGvvohGBbXzSc9yg0dI/A4YCdriEiUPOo4M95tnPRIxQ1/9uggKs5bAq0tLa9NNXApHntiWLALbkKjz2dWhj7kKkYvOFgWNLvCia8CHKldLPZOwd7AHbsbtTShVUDnA8qOLj42391scuQ22i8Hu2bHujhljByBGGncGWh5ux/sY8vLniwyOiYxPlI7494eVz6A+C+DGQNNdH5LIS8AtBcflW/2GPTZBGjI6+HCOQjYhUK3/IY/Fx8x1ue+isUS/bfHn3XUcQB/hi3CrR++y8eQWyYbBG1Mbm3bqRW2kBrALjpNHhZy5aSdBhqxbQcJeCrS2qGviGUkAR8JIMTOM7Uta1ImG7Uz100uyTSpjNjCa9++fe2q7odaxWG8zIIYTXjChzzAEi3gQksL8QtBEhsDPfL/n2A7xsI2ZPSGiERFuw5LDBlmGEPzfyZzl0MGsqgqNwm0zHg7U2NjFy2H4iOP1ZabCwUMYsDITC9qGT3n4OPXjIeEdfuWwu2Xj7cvOiY4XoC17v5PkihiZtcNoIcGF5NPJPQ7k23EDA61QUkTh+n2seuHPVmkgklMEEGrjd1yM8YRG32MhCJa/EceJTNOtSmh3wUCpkkG0HaR8YfRy1PZhtuvN7YhlbidOr30QfGoY3zArpNR0b4/dBY4jlo/npFeu9pRVPgHza9OMZxEYvDu8G9jIIiqCloCEd4t6MvX0QYPP2JNGeuRGoYgdee3TWr98Ruc7yx8mfC9ySbod+1G1YPtTPAf3gT+jwK7NZ01a5bdA8bg/kZ69Q7Kurk5NmQnqwQXVboqPf18pUQ+hGoHkFcuifJtKIHmV/5r4Bbv0btomGlDoVdbAYMYMPKiVMsZPefg49cMGBQGADRBPyrH7oYHQJpAEFx5CUrOEM13uIhY6yJYbpAkt61fSFoA/gIEB0wyXIZ21itJrxFCwiRmk8N6OFhsYQve0KDupUkG0HaR8YfR86lsatYXvna0xWNPqrxnYqxzF5k1bAmgv8dOA9jAxGIx/EceJSjnZMl9DjTg40xjQ8Ndf+DE+WSCDCYf/gHbwjlgy8umB7N4BFPSB+QYkRWUBCK8W1CXq6MPFutf8LH1yMbmZpOG10LsCYcksOSKhdfsduZ+/frZVclqi/rAh0pmSl8LVnH4jzy+W+yj4mCCAzShCbYNvknyD19amjXAwBjeHEW6CNKd7HCUrhr79kgJpJN1O9+VecCGzxzCI9q1JourLfOZTMs0gSrcnJO+i87uNtkSDoM872GPhpwe0zPgntGjR9tGOAbgCGtX7CGjCVpe7C3DDjPsM1s3wy70tdhRBiPTy3mFTHuo0OcMtVe8pGVPCtmTZRPIbwlsd2OTTAK1zdvjYG5B9d9gFHYOzHrhU1mY2Nrj8fhJHjyy8o4HrLj4lENzj0uMbbUwuMJVphYs+I+8st0WHvESOw7yYEyKm/71WGr+HAOBb1Xwwfiyyp+g6ZknAOINfJIR3jVIp/CrxENS+OcSnUFHkAD876xOZZ6tNal496r/dPeGr+yzlYKfoW1FBTMSmPeQaeURqBSrk0pqqbELsCIZJDG9EWJb2OSbvtUvdCrdSWO2G7pXjbUDkBriZLUkvDBWVl5y/Hh+6M6kvplpXt1zN4lKgkig9dMP0qtWGCiLR4011BqqOAzKGUjB/Aa4Z+pUpqOFxblBRwv3YVwpi1kZopwgXDD1tIVR5up8gJyg0tZ3aqrQK/DXIDJaxekRm0abpCfLrudQNQdPFOilOKttzW8qm2lqbPqv7QdGO2pMaCtu/qvswtnkbYOxwA0AjxygREHyoBGsWPebSjU+dLeuIlBZ2MEEYpoHUdMkD/c+WZ4wgC7aXefsMo8eo6ZblAQivLtFXY5oMBb878DvwYMbTXgXYjp/7URiPIBlVroZxbLQCm1FdN/mtSZpQgGD1Unq4YjT1TDLhPL+vMyUkZdZTXRZu0PanWvMGLbdVFk1Vhi6GgaJSFRiNGlADw1/+WMoJ0fKoKJDrQSaX3leW04LY506J/cfbiAwVNEFEEKQE5DScIZxgvIUKEQGF3sGoKwwoYcyPc/7GsXSueKq6Q6WCvx11OkOOH39ArXa9WRhiYnQUAljeEznSiIzBzZzEh4k8pjKtn7wjjk+X9kvfxfvKZzVwNsGNLj2CfrpoUEJ+pJxZxtMGsCq6dlJ6TWrbJ5hfnIYTBj2oWlbZryZmvedoRlxSW6IxG5oGVUViAQif2QFcqG2smHiXXnpR68MK0l4nXeDVbTr4taNzcSMAYkH6TnqqKNefvllWkhWHqGdgmoHXzt8X/Fhg00elinxAcPHjCbuxx74mPtnOPIrEsU0SHrr6HAx1WJFVqaVMuZjxsmKbfIBxswbBhlgzfijzPusK++eUHz0CUFYRTQBJbBhxLD0ovlexCU/Gl9xOwMlXkTe5VgghnLOrjc7KKBE0FyyOaEFf149RpieAu9+yYNDYnfPEPrdnD12oRfaFlCbo0lD1+6qPPx82V3r3gb0yXJIuKQHieKGhE1vbj8V7oGhBJNwYFwkqHi5Kwk0x3IQR/lyQ4wEphS0SXbezr3SNvz1VoMFLZS7nd+bEyuzIyNAmSrAbpju7qjKANTKI1LyZZf/vuznVyiF5sOcB8PP3cw/h9raS85ufsm1pscZxWKdpn1K3FZEqeNKYHPj3W+++ea2226Dx6gZM2Z06eKwrw8lZBjgU3o77mWoxhFxIUjgwWNHnfg1sxTUDfjaNU33b2xGDfWDi0xuL1mCiaHEgv/d2beSfhAWePiLJGNOWIGd+Xtr0zc2VeAPDKXnY6aHjpEb+1UaGmlJZfPzT9X+8jwDWWKHXTq99L5s/2cgjqp8JQC3phvHHmggq7zvCeI0Ko/kuFuC33j0Puf9OmGW/RTwWkOGOYjNK3gYwkPMvU9ErAgwzcuOCK/9rGl/PlDb+9T418QhYdBjePDWokWrbm4QLGyd6YwaG9e4BUWAc1SmsrUXn9k89Tl3D7QEbmLhLJbmHRg95CzoPw/ef/Bffm+IjVK0+57Vz7zuNQx3eT6DefLJJ4OsXLk7NZekV6/cMHyI1eq5bIjYHFUTPEVtZh7VFooENp89w1dffXX66acPGjTokUce+fbbb4XJY6GIKhrn5pXAj//1XEtZuaHP8zolh+2+O96PVCWAl6xQb4RaeYSG6du7bLCL/vqfZeiUVPEVWA52Q3VnWZdddpmixsAhTsReSPXoHrX8ZD1INMXFR/8ILug1FawoNfcbYGJ2FP3mKwEfY4aysuTww/PsA3cLgJHNBHpBvpMMSAsJ/7XRy5RoC0BvUFji1qUJT4Hbot2uk35oF7RA3tElkXhmZfovrxZgF5A9gO8/wra4s81ccZ7g2SWrCEDPPbWhDSTcu3dv1hjK3Vw9UcC7MNrSBARMDaBfGEC2z+I/jKFRwtaaMJV99lmHAhJRIcQYXLnkIUfwMh9vG5yOZ6Tttr+/596ScefwGnem9avPMuuN5mHONvkMRrR18szzqGnSIwawC+Yl48/Ps4uo+ZYvgc2Bdz/99FPM2Hbbbbcnnnhiy5dINMItRAII6lhljHOzQzL+4b13cWWAeFHi8xnQBz4oaYJylyboY/oxP5p2kfMHK7CKW6Lw3U2f7jRGzPaAE0H4UAQRxWcP0JZ+ffEfeZTIwUWdA/I7SiTKLrnaTNRwz81WKmWmiWoDSsCMd5MHH9Em0UoBjAYPZh73/IAUgVzYeaZNEu6xfN3TgoMMHAGRZfir5c8LQQl6njifUHNFbh4gQ2fO05Dh9LGEBZsiJOxJpWB0yHW0HffUhkPod5cvlwKP8e1ulNT3P6eHctdgAC3xGTlypDIHxiOZWrxAIlGzRYN2o0Xw9oUtaCQPFXJ4N21o+27/IVYioXbAj9NpxLzgR+ZM/oORPaaZ+wpYC7De+MhfDcTwD1g88mgDQVTVMSTQ7nj35z//+Z577vnvf/+7Y8grOovNKYGS0843byBoevwhOp48X7JWusk+r36nm05QdktE6XL9wHi907EhCZ89AF8EfcXqKv4jjxKz6zHTmKEUO+ZkGC0YaFIL5jY+dp+BIKoKKIH04gWwZzAQF4/KJcyEmyFsvoXjZ3c1LwGkg82uotnltTTD3IwQ1yKw0jEnDhxBBpwNw9OAiXn7sp330Vbh54p2bzlD7UzKNqAvH2AhpgYk07yO8uS+3hwrRbSOb3ezu/f74fT1CwgpnBkjrMb+k62qnUVLCrg7/4CWTJs2Df2KWthtNDVa6bRcIudjJaXxvv1oyfPPs/2RmNgENLpAS1CCPpueeue9or0OoHnt/9S3bC+vtloqzH8wgoPENp9sw71/ytSyDRs6RiWnniP7uNCRRGUdQQLtjncPP/zwf/zjHytWrJg4cWJHEFh0DptRAliIT/7wMEOHzf97Mb1iKQjEKzLXN77dSy2LAeHuFZrd5cypKv9u5dqdGLC7I1YCTAw9k9ljPKM1/sbjZb+4xkhhYVtMevkSM01U6ysBs3LXKkrmH60Ud8WQIUPEBkdARiBa3IeAtlRziVGWdCMlAaOXSbjHMrinBVtFR4uS8M4HjjzySFuMOc0V7bY5QW27Lf2hHlo+uYhrnbmvN7FSxBsEB5G0CaenMdho4cYvLfgrpAmXbOwSAoIPnU52wmWT2i9C0BlS3N7BApL33nvPJuR6ZUNDuYrRg0Pyh4fKNUo+vWKZUuJ12CaD8WKeQ3l62RIfR+OJRMkpfjZsOXQcNdnyJGB8otpiuCeddNIZZ5zRs2dP/EeIl7ZgGfHYiiRQcsYFprNNpZomTwBB/i9ZuxcvvZHiliiWtOnZB8M+9P1h9GLAuibQ9AT0GK9rrSkrHv2jxC67aipYEWIL199wJTuKfnOUQLMxehPckMWqO+XI2rL4XSE0u9QYAOpD6CkBnqqYFn+fCaQkYPQyDIjdlmJzlXaUTEdLbWxskpB+9Hr16mU3zHWuaDcPD7VJRDfsk0O0CEBtmhY9Qc1ncUZ0CcWxUpRg+weCm21QtpyeevLGoeQ5kUxF5BDKTL8OuwLHso+EaO3RSj+ZlFD9zps3z67hemWJ0pRl9OBgdk2QXr3CxEeqa5PBSPzyzTbc9X9WM1u+0zErHjkmiiGsE0wHLGt3vMtlBo8KwjcqL40ykQSMEig+7Kh4774GkqYn4VysJf+XbJwGKPLSG3HTRroCS5cpMSz2wTCM0FHF6MWAHdXkADpdOJyyDfJctbQAtdxjvAeJszgWK/vFb5xF6lHztBegL1dLo+PAEsAecHPo1+Ijczdm0NwVbmOAvG9Li3Nwn7UUkQGxTmBjE3bPHOjRSsz0OMh296Ut4fQ0lANowkBtgjL7nWYhvsbQG60f/MVhWgCz5I0bIWHATbHwAvqKgfZAuLWxdmDuQk4Pd2YISocNhczdGAlZp5iXSPp10btlvfTKqxk3Z17S3MTd4tIIaqSG65U5mTnD6AmHklITbWD7/rYZjGkoIepS381qMkdNx4vx4qtCcIxIC1kCWcv9zXUCkX53c0m6A/WDxabx5zb8+SavUwLIwCJy/i/ZNDeVw5eprK9jxxtsFmmAUL4Cy5cp2QfDa3hqOaMXA3ZShPLFC38UK1euVPZ0O/mJI/jAKtp1WOvMz0WRK1d/wxXJAw9FYDZXTVTgLwESQ5jfRW7yeDw5coy7OEiJ466gDfitKLfP+7a0OAeZLdSTTgexdJMorNQEFd0zB28DfknM9Njcz6+FRayKYWix7n2bsnkDCf1NoyHiaV3yDMGyQMNgiOcLowXcxDOLtRqMiiaOMrFQg7krfZyljhcuXIinCUmYF4MhmlNKcANQDp64lXPdfOKBgSeMUwG7tAp9ZcnoZACKfNg2YE47a0Blj4SwW+BsaCb1xSfxbPxb7Gq13yc4d/aGUYj1h6DPJnDIGINKxLp01XKgMwQMG5cVYwAfKA7sd6k8GPsKfkgmVLjHoPaG/TQ2B/c6SqwtSIPR9pVDYcOfbjA9ktjbcOzJicH2tr8c+EdNCksCmxXvJpNsFbiwhBSN9nuVQMkpZzfcfYvBm0zjPx9qkzc+/OXhg0fOFXqjhiXCPzzc7NOEzxX9nOB9TZGB/E63iYw/xnc6NEwOu0wsdMpfL+Tx0cUf9tkw/AF6tILazNhrtjIWK7/+jppTjjAEVIOtGwx5y6/5gz+3iMIlAbMxQ9EP9kXAUlcj/wLHXQHDcWoDym9FmUHet6UVTxJfZt7AkepoAcguvPDCtWvXyp175lnYBXqvipmefG97NdbD04wNdmmrIFC7bgHxtrb6TW6t69WhcJQJIeAZB2hGwn88dEEGDGI847QVackSrKvBQTZjoDVOKP/ll19269aNC/azptSocs9v9JNXXHrGJ8QgGJ4l7OUgAP1QuJzpocEh9c3XbKyaX/ety0G5TC0uLkpfP8wa8jtS655gQLCYSOAPguKSkQYj88w53/LOaz4LVsni8l9mR5hzH1HDgpLA5rNngFjsJeOCElA02O9dAvFuPYqPOs4wjNYP3h4xgNk8sJemgd5RxejxxvdcokVMKZr4iiqUEzSx5vah7w+jl50f0Ub4fthoG8dhnDShFdr69gwCQC6zo03QNE64t/XDd4Jwi2hkCWRqNrbMeEsuUfLFo45RSoIcqneF2XA879vSSrcQp7BwDevtIBb4G7Y0HJOZzgL2xNgzd/Q87uXXoUBlcz9PDm7ff56kfhWAVnAjyGEotOOw4oUtL+JWIFQb/it2veCHrWwwgAYaQwKkxgwzYGJWzsK3THk/Yl2tgF3gb4RKnjGOjIpFModLFiHYoqpPK/Y29HnQhuW7DhwAAu5Zgmi1QyVGf8i++zQ9N9nQVMG79B4w21xZ0G1D5or3Rncf9NLgWrPBiNNxEwcuydTV1l1zkZm8dPy58b79zTRRbUeSwGbFuwmDh7+OJNToXNpaAqWnn29mOXIDW1plL00zvahl9PQlC9sAOLu1a6neCJ//mtl2CV+BxUocTay5fej7w+jd73SxO9ttl6llK3lOFW21lFJh+ZU3xLt2lwpc2VSq9rLzQ7mXd7HYGgtaXptqWIKARHLDu+LKBjEcz/u29LpyWOWnQVJgWSFmZb6oEQFZFk4kPKV7VXTB5n6iRM7Jvv98O7IbZpf+E6VW9WBi4QAfCG4UC0pIMkh4CzhjAQiDUpamHLbH9WSeKBDDWUm+UD47yE/7X6a0kw+r47HDNizHrhjuWYJAZ99ZBGch6aHP6l6V2VTDa9yZeD9mymxZ4e4Bysv3CmLkiLeXTeJ03OMIXFL/h2uwWmUgj5VXlF70awNBVNXxJLBZ4wmPGjXq1VdfpUJctmyZI4BNSNFG8YRDCqzgyTcevX/qW88Vt9p0ZsjCurp0JufInwjowH3capfqiARjCfK/pLtV2tPakDWExXs8p0CjcndgCTO4sWPHEuZtxJCw8kjNz/2r9vIfe1TaxclDR1U9+G+hoDJTR7WWtemc41venu4lCdgIdnr+Ha9ar3LNXcFj+UIr6U5YHIe+ECnXu8jNUi5BhAvhGgKATLG34aQAUszehpQBevYabS17zlo82coIrwJEw4qtY9oEOAgARFPwjrAdDR4Y3AlOGKCspQkrJ77BaLAzDxZNNAE0o/nKafZhqMEse942IIbnXb40BEaA8tyzoc3X+cMGWZ6u/27WHqXpRme1OGrMWIcvqet78IhVq1bZ2laMEGHzgiS4jMjuojtytyGTSuoNU9xYWVnnGXNjFZXgCs2umPCEkob20ii3imXBUQY8jgcZvoGm5a3/bTr3RwYCVCEKj+8WXjOHqLbgJLBZ9bsFJ51owFuOBEpPN0G0ynjslKokGW1OK4/cGxE9XxrqbNKkSbvuml3N5FIgzupTVuMKG+zm2h3ayRuxHYcABwHNBNEMlKDPJoUhLdT+Lz7uFGxK01bxwpbXX2l8WNpnwyuijE4C6ZXLWt59XVdjl2GzoKHWq0pcU35XUP9WaKBV4+W7/h43r/ILsBvG3oYgV6BwoEYZ7OIUUK49Cyz0o4qmUB2hC7R1pzn32mXAZ75gF6SyNhq2pwf82yqqtjkAIAaM3gxLaLyLkGARIYNdQHkz2JUGWR8vf7qTyZSrNGY91LPsk9f+N2IEUyGH1EPjzflAVdoAdnEGxcedSsGual0DYO31skK5HK3a69IoZJYlTsSWeOgfKKrrrrnY3Azb70p/fKmZJqrteBKI8G7Hu6Yd84yKj7ffuV6nd15PZokV8o0PhvCvpLCdOnXq5ZdfPnPmTKVccxi+OzCBjgTLgpxb/k6aBAfO1DtTfuOdVnGJdz2pqf/TDa2ff2SmiWqpBJqeneSzDXxULsa74ppywFQ+wJa5YgwAzS6AFOxBa+fYBLgtXx/BbSLtQveP5GXM+sE9ROGKDU8UxOA/8ijBCgZAGE8SIONlmoyMGjXV3lNTxfeftq1cKHfE23ICWBDBQhQJOm8opAMmUIIeCW0h2x9IGlNu5uRh5UymoJ33EA7IuEUEuMlQHofogpoRQ4tMk2uQf+92nl3l8TO4OD512/IP//O0MMQK7KYNzh9e33P7ypVLPXjbxaXMCbpqXWNuhlrzpeHNJTJtrHVOGCRT/4eraRAiA3H5ZddSBG+giao6ngQivNvxrmnHPCO8ngB5Dec2JLVi/4FMixb4jQ+G+E5Q/0qc+dNPPz169GiY3Ngl3Q8lUOCIj63jVpM/ZHCIQp7CdMcdf9Lt6pRHLk6aaEtmUiw48FF5ZxC4ruyiK73rszWtLbW/OAfbsHzIomrLan7mCYMYvm219hx3OhaCYZ9gIHNXiWvKrjJx4UQTMwQnEEpse5opImODbMOn1oxTrekH6rWe0K0qQRBgD6BNAL4wSKDJBci0LexCjhpx3PsYsT+ML22754ptAk/lMbmdq8i1XnmcMls5Ia7QsNWMH3o1QTlUueTUMsIcAq34NjXg5o9/Llpj2sDNiOE4gibQ08kGo5tZOvidigPYkf53h2T8EWv9+d2rfnQ8UwZDsH566KMqij7cscvA9av0TFlp0T4HJgYNxRHuXttkIrd7gM4cGFv1l90q6CLsYyKzwsJU01P/lEvc+eR+w0mk+ihtfRIoeLwLQ15D2vouaEc+Y7NJA878jK49iDt3mgK88UFI/SvZTbI/H3/8Mbaf2yWw0913ovXDZ63+Z1gV25N4rfhDBocoRFWCaUmDdUeGd/j78nZ16lpB+PFxfu3kgenzjF5w0NOppWU/u7xoHx+Xoukli2ovPlPZhoWvEaBbG0Q5VkdUqMetn36QmvedYfSPb2zCVxwafZhoQ270ihvoeZW4puwqC9xJjQGg0/Xf/z6L0Mw4zTYeAMyFxzHfIAh8EDSTP2os6So0xwDWHD4qc8X8O1JCIq/70D4VriNXTs3rkNNTDvCby98taIJgv7BYQEIMNsBcnNGQ6yzsS/viaqHZhXsK6m2Xz0nSLNCXYqdhHOStPX/pNUZe3i0R22HS3x9tWvHX40eX08BsHnroWOumg8sSj/Uqe7xXWWVrC+fglZm5+/70eRfrUS5Q7tWWlOPW5ddauTRyM4lMmPHIBAHymJzX/eYSMyG2qVXcem+0M8EspY5aW/D71cwXBu5dzARRbWFJoGb8aIO3rLp4xaDBH9d/ca2w/zOeHjS7bs+1w4cPf/vtt0m7yp2sAyYTdGtIdfPIqrHWDNHdCu997m2ebRah+zMQisUGN2MWKAoeNxtHCbrGuioGW1m5aVPWXtBRbTqA1enGsT80m+6hfckJp1Xcdj8yntv4WCc4F1iGKMpyVtlhf+t++4umyY96nV7KsoYuqF2VcryItDeem4P+roA2ly7Qw8tV/SK7FVRuuLsA0aAJBnTAXQGDB+hKAYupFambOy/x2uYFAqgkSaCHD61Ns2zrW4Qc636II0wA56PNAFvDwwkSQCF8cslJ3rbFx//FFbY7FLhWCOVK1qujKX1tV9nBnyz7rN/nbsKs6kHWNvuTswYch0iDJyhx4eIN1qtyQqGypcxvkLcvu/a8tf+QeRjy6aLkB5nkMyvXzW3OrEilV7ZmsK1t+2Rsh+L44OLEyZVFA5NB9VyvN7SeuKxB7autLo3Cl13BnLes1V3xE59oapZVccOfS4xbQZRBRYcdSQIh8C6Cpjz44IOtra1e519UVHTBBRcYnOy2h38Gr8HQ8gjvmuVTcLXNLzxd+4tzDcO+sO+dT3Y5kSzgup2cS826du167733upHZxIkTzz6bmSoe+hqxw/NNGz4jntXNCR97xds8EAkWHLNYBL4afvOb39hrhbl+S3L7SGD5b9MFJxsiUNDTKrv0ml9+TQJQmc+S1gYEc0FYbfk0mabGDfvvaPDl9ErViPHb/sWNPrGw4BsYD8pgzV2Bexv6WjkBP2E5mOuA5SrcZrKrBLmK5oHh9p/kLvZ9ggh+VW5pDZfsvrrsfIyE1Bq7RCWBftoLPgaHp5Qpm/ipHZk9WigD8ntvEE9nMGRa/bqAwgqHrIeBkpKSDz9kemWFAMje7dHFb5Bw0fC/uWMHNZLoEpstLWlNH76kfo1zqkZ6D35p1JlDzKoeooZV4+fDrmAOU3fwQGiJ2p+aDN5Ag326VY89Fyl3uci3tkxR8BNuamrCuoaZ/swzzywv36zBSCNEa74iHay2+Mhj4T42vXa113mN3/BvgndhM4c/6Legj4F2qn6BHcQS4ezhBd2ytt12WzfYRTlmdDbnQVcFArugBiYG8exbSUPYPxR3E92V05iZo4njeiXR9btsEFGs38Edr41sMOZQai3QZ5Pboa/SofYQfsdKz7+k8aG7tbW8sOHum2tWNdqHXBXnoUoELA4e5Zh3UaCZllemGMAuTmpSl1MIEsU1xR8AIkOfQQLj6e8K3NgLJhLIRRPzXWUfKj/oGqpExMeG2UA2wZPuzjvvvHTpUjuuwY4XKy3IoQGGcmromAG7YXjKlyx4lZzhKJzGI5SrkEfb7gfrp6a8odLE65DTKx0FjzkX6KxnaZEuQofCWRuuF3zHUreG+FY65of5BcZrjJdesN1fp805piTDLCK85NBG5XXx8tPjB6xJ/cfmBwNubo3ARW3oSz9zyJClCfxhkuOeLzG2wozHwN9ZlVm3pv5aH38L2AFScfPfIrDrlNzWdRR0XWPrkkp0tlusBIqSxceeYhjdQbXv9W1ZahNgeRcfVKyiQrEEf6X4D5VtNomdQBKvxYsX25YMKNz+AqnGL8uJG1daBzwpukPXGIAb7FJ+zEAQ2/CFi3V8CaDnCJhACfpsEhwCtmVk5VdcVzTMFMaJEt7ZvfTQsqKAvvrlrXisn4752/TM44YTW5/o/HL1SEGAL7rkpAl4yGzLK66pclc0sfkeNLvY2+6bpP3vALvwbwrlhd2I74TjTEIFesDAQG9I/GbmntQUYsB3PCbwUFs91FHDGzpKvQ84vdIR5pw0KR4tFE6hzlpqi3WVJ598srm5GVKFcRT34e3wq4U5Sd6B8b4uHXRev3ubOR9pDG2ehfHNT7e7+6thj/KdBgTsxtleBS5qr44DmZVn50ug5ImxhX6XlwXM1F59UXqNz8a78t/8Mb7tdgEZRmQdUgIh8C62hXVIEUQnVVgSgDmpYcAxKzNu/dOeBEYVwgcffGA3xJJlcVdPJu4KEKMJTes/dtfrSxjUAPjGZxIfTkIGCweoAAMmUGYtItCWf2gDNhVkRcnKv0yIVXcSJbpcMmZN6NNp6KCf6NfN0SQkmNN1UmBlxO3uO/YMSjv0Zzof2xQrVqsk9CkcPKlE5Fh/V0CjT+13oWiHGUPA5Nz/LlRo7Imw2QB/cO+wANPcgQAlw39oqYc6PZTROGRew+Aok+NOLSXmfrvf4qjhDR2l3gecXunI7dHCzSOHs0bM78GDYYkEmKtdKRJXls5JsMREE3vqHaMIMkjLmlp9xMkD/1GTqHK0besDRAS5YnXjS7MmEsbSvSo0o1zU2q5DzRzk+RJj6461ru2HFzY9/mDL9Jf4oTaTPGiEbyh1bcOosCNJIATexULY8uXLoQPzSqjdzMYMHelKROcSUAIIVfW1pw054TF+/VOerIwqhPnz59sNYaUXNvEm9QuDNmVQg4IP4QMYrh7gFdU3SZ5TRVvfVjqCeN9+lX9+2PIL911lNT87b/xujTN1PFiZ9IEUn3xW2cF+m5+dbHa7O6nLyfpTdqJPPU22VFxZflfk7cEA9jNChcaeCNIb1qCBP2hSHAjYpewHt66kqCat0FabmL2N8KTmJoOVJxDnF1c6anhDR6n3Aafn2JHSck9qGKR8spxTrmeN6Bt1dXWcjZzRuO7iVhbsqZfpVbcbjjrHwdsVB47Z/ullyd6O0rY7WGWVjlveMKGmhUx7cFFwabDfDs4okFLMoomL2t1vDjMHPl9ibEOZZqXmzK6/+bfugcglsarqilv+JpdE+a1TAiHwLgTUq1evvt4JtVunEKOz3swSeK3cpHwd2Lxgv/qP9EMyqhDE1yvJwinpuehKeRP+YdNROcrY15eCD2iJsNPLJlCcNDmaZfcASZ5T0UqrYVIamQ9hyFtxnT/I3ia1/j/zTh3W8KWJW2AwZ2JSCHVmY4ZvSnb6tGyY/jwAepiTJrP3Jc1dsW6GzZPZw+i7cJcyetjPCBUaeyIIOQ/WEN5MQrSV+8UdzgE0Nsa5E7CmcB48y1HvBU8dROzA0JFvzLk8zhp7W+FDAyuf+I/NhbDZpb5jxTXFVaYAl1tZsKeeDT376ztIiRqGDYfvOAX7IKWytsm+XHX48MHvTe9/lc0Ol2DzBMZDR3BhwW4VYcbje1rNTbW/PD/T2GAmLL/2lnivbc00Ue3WIIFweDdPiaRScM4TpUgC+Upg4/6HtMLEzDud6qXiNaoQKioqbJYtNd68PWp4E/5h8yAUxQxqcPAB+z9s27cJgjn0dfsPFvxD5uCDvfSnkjmdR/POqY3Pzh+/Z/1nHvVZw4ZgYM6TQyFUtH72odntrqdyl56dhD7Np6veFTXf2PTalXEDL0YP+xmhQpv7dzsw2/O98zGTIG2hC1QSs7chm5PY+QoS6AKx443aZohSlsvJsEffEY9wxnXkrBOypTWUcQhVRa+D4ROx7mtsbKSLM/gvu1hGdEa7B37W3MqCPfU2AWUYMjDeqqLu45uGnrS8YWYzrA/aINXGK3/d5/9OG/DomqKuDhsGLW+vS5PHzMH66rc5mGbV3359apZx7o230aGjSk4ymphrzzEq7IgS2Kx4V2ySgJmit1+zjijn6JzaUgKHnXjytHqTTcPx65/VbGSWlEBaFcLAgQPtUdY4VU1Bxs6blPcPQk5odOAbPqqElhffFThwgPtSeHSCxyL8Rx4lWZtdMAClr0+roIPJ0pVfcX3x2JN8m3RK1Twz/7R9670tldlnXkTE9WVaCARyrI27Rx1sGHIqlvhXlxMMBMRRbjZpt04qDR13BcJ30aRdGVdayoeMHuBM3P/Lnyd6NWA+vlrNVZJyW6+8pKgW+/cpsWRvQxxTKMlg5WmIvqYw8eqIg0j4tcWD8+klVnEXu6mychLcOERVRbOr4BoSgO/ChcyoiV1lYc7BnnpiASJ027kExnutvvXQxXUXp/eeXzzANYqgBcuTvW7r8cu9dnnr4a5niTZsiYaUbJ7AeM3rae/CgEeMRp9reXt644R79XWsNNalK/HJEKVIAlkJbFa829Ag1h3q6+ujSxBJIDcJYB/PtNLOhrbVmYax7x6g2hQybZPX7q59993X5rn6dat5rYG/WgViNKGpy15qrfZYAt+vvPKKvCoK8quuusrevqZtm/XxiV3h7mAZHuSBi2OxytvuQwRR3wZV6dqn5p9xQB3b4ac0YJ/5IGBOabplHsKRAhasESANThWI57j6uhMqTc4cp1cesrKoh+lcJPRpImN1uNa44o67Qrsyzug1v4we9jNiwd1Nx+Yq7hp9CafnQcLQkWRvQyw34IRBTmYrT0P0NZkJ8kpHaIgkg0hqXIT/DE4RAnnlJKBxiFkVTZiyRIOusSOxuVMxIw7CEFNo6L+NgfHSvcdMGvbMPru8cdQOz97V/UKY0PCezZm0FZ9WddgZ/R8atst7iN9G1Lpykqcxmy0wni60uzwoOY8oOXVX/tTXcXjlrffGu/eUG0b5rVkCIeJN5CmmjRs3du4sMMo///nP008/PWee3FlE5H83ZxkWbkPYyT36wN9n9q/cJkFWFbVpen3rycsbyLeW+geFtom5IAVu8DJ4FcHV4FJ30NVazprC2bcI/7tHzdYQuIveOd5a/Ya7mJcA2YwePXrDhg1QkQI1QicHmALLB9nHJydu20xmw/qacUek5n7ry7Y+Xg4fSa9qTQmZC/0O8ISqvlQt6+LOxTd0Ze6ZdGI6r999z3Uao6thZcBqUNiHD4yHe8DeWJlraJLq6uqaGmaxw70pv3eKlcrqIMYsECiNDdb0y06ERNY94F9qUDfE4N3vn47m0GsCxtHEnQdDI0sDucGPAeApMQpKWK2uQWIeBSiGHmEVAEUpNNNsrYPwA9bE5qrckuGsoYrmPiu4uAwjkePeyWwBxKnthEwQhKHXGekC4w1sXnho7VuD1k3rVf9Nr9Y1vWKNPRKx4pi1IR2bG+syp2yXOZ0O+q5kh/cq9lMxrtILi3ZGTEQ2S2A83JYACcoovA4RWgIBJrxqaTniqCGampkmqt2qJNDueHfdunWffPLJkiVL7rnnHmRk4d5yyy1Dhw6FP8iddgo6K+XNI7zLRbG1ZRDGHe5dcda3dSs9v1PS6/RhKr77wtoVsPOF/qm0Fw9qDxsAg1rUEV+tzzFW7TxX8IijVEtEJb4a/4R7jQzlbxxurXc8C1605tF6tcq/PL1kYc0po9KrlvuywsL9tb1//2DXcx2UDAMBo4eNcuzgswUc8PuNjCWLTop7Hv7pmst7tXr6+9yQ6DRk8McaT2Ty6TA8gYkNfFrJNea8AN87XkJcgwVPX/2eGMPICfvSsHJNNc1sfkI8VYdNvK3SEEEWDn9fKSP6Vwr70DucPAD+wu6TlqikuR7nACK9zhqKWKBqmmRxKUPDDY/lI2iOaUqUWansYqY8J5GBfliGSnc4DBMYD1oBYX7hDvTgZo4S9gir8eoosSwWpbkM8ZUq7SHrKPi7ounxh+qu+5WWGS9M7LBL9XNvxkrLeEmUiSTQ7vYMwLhHHHHEueeeq4BdiP7qq6/G+qABfESXJ5KAIgF87CnYRfkTVa6gZRJ1wrJOqcyiYaIHsr9Dvru7zjrrrEGDBtlslj1PPsN8SRR5fPlmnEo+2Ph00VQ3z/roJ1K3FtEiYzEXL3FtQvkrwwTYxYcZqAUfRXwk8MXFf+RRgvJswuo58JaWU7sWxvv2r5r00uqYacmeDiCRSd2y7Lrblv0WGTEktimHb8UTVQWVk+83HmtjXGKZAezi/J7ufJwP2AURs+MUW8eCSUaY3uJu9LrN3KxAyXEbrVU8jvF9lsF5Uj4G+k3fqp71cNYU2uIOB9QOsqzvPhe5BOit+yFyAb9MxFUwhfL473YbjDbEqBdQMJu0Z4HHnAtNEZfdjP2gC9lBGwW7qGRXmdDBqKP7oSRDUyiGrJEwRPYKjKfbAijALvhA/qCB5M2Jig409AWoEGPRbJ9HiOrXnXhDd5W2hNHTnX9aErkwNfeb+puvlUs0+WRx5V0PR2BXI5mtu6jd8e7IkSOxoGlId9xxx9Z9CaKzDyoB2FAC/9nUg6/9bNhjZnu147o5oukE2d0FfDN7tp9BAv9gABC/dbRV+x2GlEgkDj30UHtssoEg/Y7iP/R5ULC9tJNVv8gmg7oogD//7ytWWaL/9o8dePTi1kAbwM9fO3HywnNg1GufGvvMhwVzdvMt40e53wigSXaKW+lL1rCb0GOcE7fJGpJ61JJi3A8MSAn8yujlXXFuX1f6IBSsrecvM163CXDvwVOynLwcCMg02jyb2xAvrRUDKUnXrsweVJn+yfvDPrmIC4FM8IwTP0fPgOZAWjBV2v9JstS+3SmiNhSIhFFveV+7LT8LwSs/B22UjzInySMwnj2uVJOdYSbyYryGLYCuiTSRPOgNiU8A+ERIIW7rwHjQ7yo9aA5bmmsvC+CA7MrrE4N31zSPirZuCbS7PUM7iTeyZ2gnwW7JbLFhiGwVQqIroZZ16er7rltxs2HMw1JHLVnwbxD0799/wYIFBkpUuVeuiemCwVBPYvfUU0+deOKJYq1ZqtJn8WFWAIebLpjNsbtdW5UAeP38+GOf61PWPxloYjy7dOfx/ScsilVZL+9GDSsRgCr3wG9tdRq58nHfb+B07MYXH130MwPL/1UdesqAiQYCUoUVgOyag2LMAISNIB32Ta5jAXq6gX3cuHF2fcgbibQCuMREi+nVbD58hTpnMwkAUHDOmkwkk8mysjKNlfAXV1g12fkk9m/BYJem4HYCoAfSVcxJFQMJm6nxh8mfqEvpVjb3WWPOhsUcJK24vNgDJrKb3yZhLyui620ThpSvYoDBLx9qg8uTb29wnw6zt9EIXCHmlLRcNuFQKLWHrLnyLGhp6/9wTeOjPv4WkgcdVvXof0Q0OC2jqHCrlECgz9hWKZnopLcsCQB72TgAnx+shGbTvzqfAPtRw0DH9BlGPleWBQ9B4GCg1K5c+y+JWlafPn1eeuklgF0w12yi13aJD5Iv2EXD7ztWGaBqlyFDj1lWP78lkJZ3UOO3r849Zt+vL87BlaZWTt9jofZ+w3guW+3zuf1L9wt9hi056pK9L+EOBIo1gF2wRS1opk+fjsUKuxdFgar0Dfglu0qgtUA5CthFueJAQOHjdSgpqq3uB3N9bUtLiwC7aMs961GwixIOdkNpZNGwbo5jLACRsoGEo877gPvb4n4bFEUsmsqqaLe4vHiDEuKVEyY2uOJIbcKQ+3/g+ldwztnuAmfNTbPkMZPRvmwXKPHqZDLq962NAuP5rgUhaHAgB2S3/T0Cu/JVivJcAhHe5aKIMlu0BIQHJelrvSLZ873y/QzjHlP7Bv/8CA6uBtqVaxdVtgDfM9lQz7Juuummo44SsaPg+QHbj6DXBCKBxoIu0uH/gAEDbIYSXtd3IZeyDzOADmxhZbdlgEdmBC+zyTkPQLa0NTN2Wf3cYJC3W+va/8beuKQzdoRbMpjLeQDfV0Nxt0j32yG1b5tjy33UmHrnu8meZrVO9Ik7hPsJwdqCsNXBHWJc3AflypUrw4YmEZLkHsREEfDuKNscE9gUxg8BEzeTgNoV/kZkbwlBOPQ8POzEz+IL+pR/m4BIsHKfNXevphWX4ew4PXat0UTnJAF9n7k5c4ao4lbysgFGPoEeeFu5X3kas7kC47kNe+QRpZcurg3ggAxxg+M9eskNo3wkAS6ByJ6BiyLKbNESEIvLzvWyH6+dcOuy33sNHdrfIT3uXfMusac0rJcJ5nzx0YsjL2dLoga2nBYZYergXjmV6ZQ8tC9f/NpqWqMU80P0DljJYRMvb8MMHTm8Gj3bp3xQcdAZ8ndde+/z4tvxrt3bcCSbk5W4JaT7DYHlDq59xzCM01c0TK1rJUsKQMmAKd7GMECrPFaIuDfAOvBiNFXxCpRsGBaq4Ltq8b+sTDZKC6w5tQpL3GxuT2EGtpK9jbXtCdbSZ2xa7GTqMcJ2GTb/IdtTgRcfAGVEo1Ac9LqJgcC4nQDMdoHOaeLGDNJlcrfWlLBldEeVbByCWBV0q5aXuBwtpQMMNetpjng2wAY17suM7I3L7hzLmaHUCQkDAc+4AOV1c+1YIbjr3GYqchM57yVPSsNebnpjBtl2QubJ823+Fm1tqRk3qvXzj3kP2gwiRFbceKe2KiqMJAAJBP16RcKKJPD9SkBELnBu1Hix+sgM+ZDoE5wGjI7ZTrUEByet18q1k8p1JGleg+hZRaQxWVvj4uoowHcF+MMb7IKYLnADMDkatukBjDQAzlalMqOX1r/ekAVMAfjvtHZ5zdgDW959PQDtlkgi7hZ2vw2vfdcMdr9Jl70MsIvEl++Be+CrC/+9A+PlvLYApAsb2UCyK9/O6jnSBrtooAW7KAfo5Gvxocwk4HeMg11wAB90AZcIkAP3VOA1UL7704uAloMhHxu3hUBV/QK7HbtM9qHyo0RcA5aFJbE7yWfN/RJ4icvdnJZwenCA72E+bO4TjBN4cVDKtfQdKzCeeS0IDhl8wS4ckJX/5o+K5KLDSAKyBCK8K0sjym+5EhDeapxv/2XJ3p+WDzOMe2zdG7RWcHBSa1eunSS6IwyDfckEBx0hLXPjJ2/abE2Y3daAPu3qtozGs61JZ8Ytb3i0JqhL//TqlZvOOb7hjhutVFCU7COTzVgt7pbs/Vacabl9mY8XpL+sWe9w/KQbLfTxSmA8bFCzCcNbdQd15li/mEyc4sy7HHR7Xgl+phAhgiaDmxGoWrP77QghnNbB7xhNaEvDu+AwzA3s7y4ADPlEkVsaoNAXlUJpDR3wjHGkC2BrSo//3JIYTBDB2H3WiVLUkGQQFyVQ/nN66tnA7bqLEygNvQ45vdk/IJePFx+lnNNzeaIj2dqbTl3kVpiBc3U1blfFvUyugfHgzcOwQtX88n8bH7tfHoUmHzkg0wglKlIlENkzqBKJjrdMCcB01YYgrtXAX6y+7/feXhqaY8md563flM54+TPXrlwHEgJbEg1i0sA9igTy5y+vGIZZ4A4KgAKdnkrEvQf8rFPxTd1Kgs+Vi/bav/LOR+J9+qoct+Bj5X775aq//nblbYbxLmlN772orsUIeBEw78UXHUGhsDIAH+SEbc6L0XxMAYwobFrz0j9wKsc0nHmQDOARB7s53cBkAsk5uHsEGuN2AmOX2PVmqwN5GG6GcgkmA2mPWZlZXDITmmevBdUYAI63qS/CnBniEnMLaX65O0BgPMvycuSSXjR/43HDM5tYpD23tLMl0OyWnnexR2VUHEnAlkDwb1YkskgC36cEROQCeaNGdkRTqo80jAyauVHlRLMlODipQ2teeXO2hCo48CpXRniX5NoaF41dAI0UdFE0hdm9Di0vIKndsB1++Fa8zKnn/ra0Z50R28n9t348Y+PYA5r+PVEu3MLz4m7Z+FW/5iVXrL7bPOC/bWhxgF1AN0zMgGxgrg1okk3w46Go4cXKAOidCxem7qS1BZvMrWwDjTbIAhrwrffuPmQFHgnH4J3kWuR3uoyQQpMKAAoTjpxuYNIKN79X4vLhOl1QGtwGh1Iwe4FddGEQl3aonF7xbACbZpo4gba5u5DTc7ArX24aBRqtuHzcHLQlnB4cnPY2FgxUlCjQ4MB3tqF3uI7xUpzzKNBo4mfYw8clHgRehExzU+0lZ/mC3eSI0aXnXiS3i/KRBLQSiPCuVixR4RYnAeGthr/92RjnlmwPz6/sSPM7toLgXcHBSaKsXDsrjUfsgyE4ZMmhtINBLdTGsjuFkpISm5cLr6t9KN8Vtdp1vHndlsFJGbTI93/1XZ8X3o33DqqyzdRsrLvm4k1njE0tnOc6gS2xQNwtK16+ZdnvStONhlGuSXT5x9BJMrQl0A3xFFyIU4kekotVNx1HUbkYT5hJEWmFPWTaSZcy0Tp6nrX/ZKJzxZYyujSP/8ijBDvGUIt+aYJXr+/uIqfMDQZoOQVGNpH3j3QDC1DlJudjpoOhBBxTKq8FGbjL6JA+s/jvujTuDu0SnBfv2pOIVYAS9DQpng3y9/hG2SqXm0sj+CApHwP9Zg+MJx4EW3bkp+4P17TO/Fwq0GTj225XeXvkgEwjmajILYEI77plEpVsiRIQ3mp0n58p1aMNgz68PAH/WIKDkzSE5tXZkH8FOQeoVwFzsUINVSt2klEcjP/Ir1271m6tfJgVnqjNw58oOgqyeU7pM7fDxKCh1c+8VrTHPsGbt8x4s2bMAY1/v/PF5//rnhKgZLMN3nfM/G4ZvWrCkZv+Z6a/udevG7qPsIbeSCwaga5oglUAUBcS0JXkw05Ww4uVAbZWYLc1/NCtV8CXNOWAKbGHTOtxzD3RgoknDAwQ3wH2AwhwgP/Io4S6R5BxqnvA0GpjT2fAxHZ/kpsfJ6hNfKLIdbog4/vh5NeCAtyzgfG0LJVLQ2gGXeWYt6AESkqtuNwcMfI3RwmTg4/OJwpv3AP0kc/T4xvtzn25uTS4fNwD05Zw+u8rMN6+j/Glj2+/ZSbgbKjNLzzd9PhD7MjjtyhZeffEWKfOHtVRcSQBhwQivOsQR3SwxUrAHEZ1SifhAdd9ChXx2IlDdvYK9CWvXLvbmkrYB4NyAFzzjRdAuMkfZjf3vP2J6lcG3R21RUm8e8/qyVNLL/hFcAfvmcaG+tuvq7jwtPcmPKRMCQAEMVXAhKFdrTICnje938pisVu6+MTa+KR8j4nbjLfZOqEtudZ8gV5Ch3yPmlgZoHpH8+DkFWTqhjY3TIleeBAE3mN+Ey3CBh6yYL+BTUs05WyhIbtfsHllf/hEkep0oZ7E5qrFT9okMip1A3eZjzsvXRpr2RR13gJ6t7gUJvzS8K17ICC74maSewBh1QB8QQPPazT5MqRkUmgSUqC93F4absrB8J/Ls/9ZVu+sEbllIUpIdXW13QiDxMZEREGHRTJ3Hlw7R5h3h1KcY2VAmS/hnsdNkk2NjY71k9T8OXW/ucQehvdP+dX/VzRsL+/6qCaSgEMCEd51iCM62JIlIHzWuL4WX5buurB4O8PgLzvkQK9aeeXai0Zfzj4Y4BAoXgD0KEjyh9nNl++V5run3TTaEkavXRnUtmibwqJk+VU3VT38dChXu7uVxKf1Lb+hawkApTIMgGBMGzB5UMo3/yHut6u2Ke5bZHpJwsHz5X3+mFYcO8r4iWMvnADTYnI1PF8Z4GsFnqcJNSF8LFDdPyfKGVOCg+x7C4d5T7SIO1gYCWxgC9DshuSD9clwev4IyA1kO4Hy/gSEyT4iKCV9LeQJ3KmCWZm3gL8iLnls2ksjEyAPtrh8q9/kCM/EEPQUzaNTOWkvd/5mEt9LYDx6Xuyix+PiKcOUmJjt1tXKp+7OFx95bOk5P3eXRyWRBLwkIG4yL4qoPJLAFiIB7JcyhFGdVjXCMM7BzZ5vT75y7aN5VbhLH+BFixbBLtOuN+g8fnCPTePC64J3/QI7H3yBmzZg9GKJXDBt91zy4JHVz7+TPPDQ4D0lLOvizsXv7LLLMYc97t7aBV2vsrUrOOe2ojy+UylGaOb26DZnflE2VEPDoC0BOq/sYe/ienlXK2GbcVM1fNC1BWXrVUmrvJSVAABAAElEQVQ3u0cGFzQD0BYp9FoFnkKj5SMXcnqKU/O+gYVLXbkXHsgNhV/fYM25h5sN4J3geC3MZNFntOhQ5innJV2jiHUsz1tALIsLjz8S/r91NHlv0AT9qzEwHqFsWq3xfQYFKmeIvBbNowsuaru/7E+eZhJQu34vgfHoKbC3lnxC9TdcmZr9lVzizse3G1Bxy73u8qgkkoBBApE/MoNwoqotUQKAQQJc4gODrxo+A52GHl//1sOLLvQacay6U5ePFlqSFkGmFC7JgFZh7RcksRBE/fv3X7hwod0CW0nwjTQkqIL41xF9ARUpC9nY204TzCXDJtY2kwnsOiFsF2b6dLrh/jsa/nJzWIe7Myr2+V2v38EwgHz1gWwALLIJOKZdPawZziY164uaU0ZlGuoNNKuKuu+38+s1Cdv9goMSi9fGwHilpaWPPfbY9OnTgexJQ0PUPfc9A9xMfRTABYRy/zgG4TqAeF8YQErhyZXGWnORkLlHbjyxcQoL1uwmDOR3T+ndq60cyE1qIgcXdLwWKE3Obr8AAWGmTBMkxuO6SV1rstrHmTOR7mpbxcvfAxpeUlFHDYzHT5FddPrWavrP5LorfsIr9Znikup/Tyva1eR2Xd8wKt26JRDpd7fu61+AZ09jH9gDl/zdvPfmWYazgX+A1DczvQgMlhL6JopdHSXCB88MdkGGvT5uz/aydidvL/diiVw/9PYsjcfLLryy+okXw7ra3b/uw1fmHvf3xZf2tWq9tna157hV3uk1qzb95FQz2EWb3/X+nR7s0gVuY2A8GCzCbAMrA3bfQD9Uw6eMBbiZAyO+MZ875AoFTMGZ0wPsIuovgJ07cRp3lbaE09NR5e8ugHNAd5CJHAHBsnB7A+ZiIgSPrZ9//jmPU+B4LdBx6nSH2jMgO+Rwyb640q6t+VrsM8PZYUadTQiLYBO4f/ilcVehBEykDYvkgia2+sB4VFDsnsf0DwWpud/U/+4yrQjlwoprb47AriyQKB9QApF+N6CgIrItSwI89oE8rI/6VQxMek7hyq/7U+mZnpoDGIzamjZwDKyqQQQBOFUlY4CmOXjweniqWvSEPHJNPlftVJDgF5rudEXwloBldxgEw0YCO6sANbD+DmNlWIB4bf6jbDIbN9TdeEXzc6GdATfFSu7r9uM7e1xU+8VvqZa3DU9Hd4q6suammtOObv3sQ12dKHur8sDjB04Wxzwnx2uQ1h8I6MHXHXscYWAKxIOpWjZhexA2CZEs7jr32gL2OVGbXbnWHGSB8tX+xwCofpfqYkGDwcByF6YIAHk04G2e+l0+4FxvYILCh7/gFhSCWgPUak+LF+K1gFmEfRhkhQTTCRhYUwlzLnIGg+kz1pp9K8pwK/7xj3+UnwibUL40clt3ni0KWZjWphw7tNy0ooTHwjBfmpA3nkPHj0k4d7gblo/cVgxaymE+D/++SLLinNazKsj2sxkzan50SGrObKmlJls85sTKvzyqqYiKIgn4SSDCu34Siuq3YAkogOy+PlWneOtNio8+ofLuCYazcSyJBkAq+AD37NnTfz1a2+WM8WKHkJbAsMCtpYfNH4waLatNbAC00wm5W3yfoBTn2jW5iudb3ni17veXpZcu5iUBM2uKut7S7cKJ79+UyoJCr9hLAbmFI2ttqb3svOapz5lbIWjfwTu98l3JDiqZ2/aAqz9lUuBOeYGbVyn2MACj2NqPpMym8seUiBCx530Oe9D8eVI0wyWQ6w3MhSFngt/VSmA8mYma50NVK/THmO9t2mTPUvDmiQLjcbsjogIPGxiPylh6a91RlWl6dpJe9Kw0MXDH6v+8GauoZAXRbySBEBLwVIaF4BGRRhL4niQALSPsO7Gsie8QzL/O/YtpB0Pq68/Nw3QsiUqWEsQkEVoxZwgifIBBL5whaLeSGPrb8WJaic8zsCM1QsD/AQMG2I28Fri1PIGf2Kq32H6npQxQGMSxWhAvCslDjuj00gfvbreLj0Mv15C6ta7904qb3unf6eTKZMKyNpuHNWwM3/Sz8b5gF+O9o8elGrCrtT1wnR0pUBa4OY3iBMDLZ0L+LqgQIYI7yaK958+TcsjfXQCXRjaDp+PJJ58Mbsad4xZA8z6z7EiE8zj5ngTU005pnGdhH4ES9HKCbhjrQvDcDNcWlA/+e8XCwPzHKwG78yjQcug7N71c+z0GxsPApLfW+d2rfMFurLSs8p6JEdh1X9KoJKAEIrwbUFARWQFIoGgfT6djGH1q8QKrpdl8Gvis4uOKT6yBTP4AC2cIwY0FKWtGTzVGDz/8MPA68vPnz7d7B+CGCjBgAmVWFYq2ZksDX35Qcgu7DqgVjTgAlKA38IyVV1y7rvmopfWzmsOCXmsna+P9PUtn9Kvo9NarYTfAGYbkVZWp3bTpvBNbXn/Fi4CXT60+4s89dM5BuesxgBhfS26wk7b/+zg9VWZTbYUpqZMsQCUg9VXT7RPMdaJl0XBieboLoD77sJ0umzD9k4107REafwK5F5TRYWDEmUwmec+5T3SjwHhciOytdeLQQTs+O5EXe2XKf38bYtx41UblkQR8JRDZM/iKKCIoJAms3713pr7Oa8Sdpn6Q2HGQV61crlhKeJmuxrj72CDGgnIHyLONybSYr9g6bBCVBW6FAz38+GfC6352Q4+vla3X2WH7lG2ODM7AAW73EbRH53I8H7l2dHR9ORmzfrHvNb9a+0BJxmfKoWUS79u/7OeXl5xwmpX0cRCmbe5b2Prlp7W/OCe9aL4v5delg47a4dm6eIVK6WV7oNI5jyFJtv1f2II7ScjRmAWqEpGbH+Ayua1+3RxQwo1HKwaS+ALAtdk5kobWwBNbuxAPAva+9QuIjwju56G8nzWKrZ8APcPXLE1BbmDZ/QJ20W37I6L5Y2IJa83ib2mQx/AwGaY2PCGsJrh8qegWT7JorBCDkHkTmuEXDofaVvncDEpfOFSMZ9wEcol0pUiUaRp4TyZAnhnpOux32UXvloh9vke/0g3rlEbKYcnxp1b86QGlMDqMJBBKApF+N5S4IuItXQKJ7XcyDDE191tDrVylWEpA8wo9E7S/ivaU2iGQhnjvh0qC3g64wHWlZjfDjk6w6e3F7WWwi1oavhjctLHKAKa9Ih6jiQC7YfaboyHYOgYmHdBV4JaM9afevz5kp5ffq9hXqgyaTS9ZWHftpRtG7NH0+IOZhoagzYLQZTKND99Tc/LIIGB3TWKb0wY8qgG76MjL9sA8BmmBu1+/fp5rC3SlW2aVT6SuIb/ThBADc+40AP7gAEeUBJgIXDVjHAHKUAxTbwzcqVn9IjuEGFoBsPJVe8VCQ+GJp0B2v4BWaIskiSWsNctDD7EgtF4rJHmo4aPAeMoFlK+U8FusEHEzDGrxIl10TINf3mN7X7Cb2GGX8puCuYlUuo4OIwlIEojwriSMKFv4EojvsLPhJFLzvzPU5lAV1FjQzZrFIraqdyE6m2yCX2EaVwzAGpvh7EYAH9B1YWOH7LYM+deGW/DzAENM76RY2QYxzLWZNSz15spqpOV4jgNYnfiVpwSweR27/VPn9bvPHAxPNHbm0suX1F13+Yb9d6i75qLWD991VuZy1PLmtI3HHlR/87VWa4tv++aMdVbLbouT2+opeVQwxfZATy2VMnoskWOqg2kVNJpQmcM0RaweiNkRa9gmmFJ2kgXGw/7kiVNhAOCO7sbGYv9y6wgc+/rdww2sRFXANn95z5MkFqUfwyHucOGcG3Ru4A7sRb0xQIuJ5YuACZSgt6woMJ5GYOxKEa2/O+HWxQSJJldgvCf3HjRgwyp3I7kkVlZW+bd/xMrK5cIoH0kgBwlE9gw5CC1qsuVKoOGvtzbc9Qev8ZX8aHzF7Vn3/l4UIcvxfYV2kzTKeTc6dFr4zLPVPXDia6aCuXlU+BKDCb46sAmGYgwfGJfTK4qeBRQI0IT4CeYuirwGgL781p1FLA/JQVVxpuUnax/51ap7OqWyrri8+BvL4/0Glpx4evERYxM7Dba4YYmxiV3Z0tz8xqtNE+5rmfFmEHJKc/GqxkmbWiyvBfq8fYRhYkCNufmQtKLjtSTTJq6j+HI5dbDg5rn+I2vte3a/oe4coGSOdRzjdh3Qp0Auxq2VdZ3mFotMJecdhkBd9rTWf2LXYj7JLXP4kHJ9YKn1jv+loX0rwkR0PeqVWXoW5FPwzHOTAE7BL8QXV1g1WR9eOfOk1z3vG9jiTu74IJHhd5dcmM0/OmbEsbN1ENlJiTc23tvOsugokkAuEoj0u7lILWqzxUogYdbvzgtqzxDwBIUzBHzX8YUOmEDJcQDd5aPTlQbZPEd0wwH2dwPpCrAbrAnZ7g1wYE4B1p21+4fgz+uv3X669y5vPdT1nFa2OcnclbsWFggNd/7fxqP3X7/v9rUXn9X4zwcQUsTT2iGTgVFE8yvP1/32F+v337H2Z+NDgd2pO+1BwC6S1wJ93jEg5O3/9GS1onPIARMSIEWasHwPh3TwIgKYqPMoQii1EximvCSKT9iYunlysBv2zsFEziuqBT8NgC3QyJpdWsVMONxi4U2VjFhkwDjh/6So2iaQV0jWzbALuVZS4eJ1yOjpTjX/SwM+eHy4zwQquhQzxWHbVb16U8s5PX9Y+OWmYBcNOI3a2OOY09cvIBR538CCA+8Q03gI35WwdvHKLTcdO+czV41aUHLymRHYVYUSHecqgUi/m6vkonZbpASAeDaOOcBraLGq6i6fLvGqza0cJg1wqkDa4pMWducQ1azQjr11pddffz10V+ilqanJESvYS9con4mkOSbFYZvQ/UMyQyXPNE/4hmEtXqnEoe/+of9v7zzgpCjSv9+TNi9ZRDIYEAQUFRUwIuYEZ8566JnO1xz+x50Bs+edCU8UA0ZUTlEwiyiGM2BABTGRUbLIBjbPvL/enq7u6e7pNGFnZ3/92c9sdfVTT1V9u3vm6eqnntqubvGNa249tOIdc1l/OYGOnUPdewa36SmFQrH6Oqm+PlZdhTj2iMDgR2EgUHrDXYWnnusQnvnNHeMrCJjnltnXmnwg0xFdXDE8ax0XTYC/r+Iaa9kYNQyqbBMrpqdZp9crZ9sLpCG3xmtLnFIpDwSW9JXgzYlAE5YznFAsORbLHiSw6n6U83ouqZ2mhOosF5qxnBUnpqimMr0Vt6Tl6U5FJ8qmd3wXpy8xwjTG6cU82sN2Gbp57L6xTRstT6XIDA0c2m76OwhDJnKYIIFUCHB8NxV6LJtzBIJ9t5WCSa/qWGVFdP3adDVamfsVN3ah1OwsaFmTfsxDzDqCpNVYqVLFjTfeuGjRIqxAm2Dswrx2GfRKRNx0XwSSyiYm95j7krgK63fffYeXvPDBgCmgl8UMP5jCck6S+UO/FG57ap9Hj+n/3LfFO+kL+k7jd7Rx4Tf1s1+rf2tmw3tvNXz8HhZL82nshkLy69RTz0VjHMIzi+WyhGe2yw6o8povuFrQEV1cEIbs6I+kvZ6TxInGASzKhUW8lOFADODhPGK4UcwcUquI/1cHLzUXTEUnoi4om48rZ/GDco2we/BGe+XzhgrV3ZiaMP1PjsUkKmdo09oKt9KMXbz0x/sTxKMwb+r4sfmIdY4qr4w3O58acePo0YmlkoHF0ybkoUGcbjyc4IFZik949fB+SalarxM5eAJRNpV8fNfxn5CHBug0eWbDmUoJtqhM+T189GhEuXY0dgOdupRPnkZj1xE/BdwTSGoZuFdBSRLIHQKBwqJg91427bnrr0aDzEbY5hAMO6xcivkrCTLJXnYrQvgxsJyNLlSoZofyztS6CkUYP+QuZ9vAxFHmtLkvgioM77hFC5VEwlT9RUoeftJAwzIuBFZiiytI/kjwUenI0du9flbvyQuKBhlqa6ldRLYvf/BZBEISDXDlYZLMphRaDAlVXntFrhNwgy4ujosnqov1Fm2Ux5uV+Al4VQ1fBbjQGNaYEBUZXm0r+WgYoi5g83floCBqfH1bizfaju1BWVsscqsSNy0gbvWS+BEYmhh53WuadNBX8sNAmqxDMf/S7tSg8Zaz4lK3KYMFcTI43RiJx3NOO/V+EXZnIpmke0JeaVXqC46gy0nW5dG3ofrq85sWJX5t6g8r6XCkfNKTwR523+TmQswhAXsCtHft+fBo6yNg78L7xevyQqAYicTQqe++WSzK0Fl1otA7CyojKFZjHvJsMLPPomp2YBkLiyowH6X3KfE248dbHXBy6EXKcbKMYYYwaOc0Vd8QF8JlhLWYFJhVMmr/6h1PXVMzv67JoV8ZPhweMqz9rI8jow/DcDUePHDBIOQqAiaMHz8eNSNW7qGHHopxa8X6wWeGFsZziU6GgctMuGDawIFRgtOHk6jfxLWk15D6lYMqYk7n0bI96Ivq4K65yOsbbEprK78oh+B9Aeci0a/0WYdiGN7u1CRDl7pN2coXxqt54M76N2aYzp4xo/S6O8N77G3M5T4JpEaA/rup8WPp3CPw1n67Dv/1l2Ttump97WMVzROPJMl+oYRkGmD9xGMyQAJjSOap38lKinxYq2ZjVzkqPPw0YV0VIrC8+7nYPoooVauOuQlR4g3zzdERWBIw02FYwEbBiBFGtmCpwHWhecOrTLgBKGkH/1dT2esO3OeKDhG4IijFs/cZCBSdfVHJ1Te+8NIMTIEyDuHr2gF7F4N8sHuUPG3OPq4Kj57cybyfFc2u0MF/QETDxYis06lJiL+Bc9ccDCFhin3qV45ghci+/c6xv1QS2qNO6rfHItQjocVuw44Nfxj6iiWdWnwGUbX1qUkWMwEuQAhgjA0nyNLrV+jVJ3B21Cgo+mz5FG+1r7TwBm0Y3p9ODH7jLsYmzrgNwIQW6MIvYGG8WFSsP4LHP83RSy3SMOeNyvNOkmLJnViaJQtPOrv05nvVQvxPAmkjQHs3bSipKBcI4Odn1w/fuKhD0lW4JgZ2u3fZl5YGmZv2Y1QYbgxxSfMMHvMsH4NS+NvZzBwSZocoZajCx5wSH0WU2kVjRJghYStAQG/oi9aKgrqpKvqHioRHBUOpxF1RquGj92oeuCMt0XYTa7Dew/J7Jf+4IzLqAB9Ndbg2zBUmzuLST+gxLGuCou7b4/7UyAaT8txl+WzzylZxA9rv1C5h/UjtBkqjreIl4xrTXSrx9uhmWIrYfGZ4hpzi4mI4uMuZ9qZkyhaneb03u1NjRpeKTZnKwngGXuoTRcLTrOUcO0NB/a7uTMlBNuBYrDPNDaAwYbTi2NGYOapXYE6Hdx/R7ulXpXDEfIg5JJAiAfozpAiQxXOIAH54EHWrMmo3flC21Uh5ZAXmWvMGeZRy34eEmEfm6WKGWT6YMIQN9iLMXNgWWG8T/naQSbYJjzpFAI00VCFeN4sXtclUiXwfRZSyogpFA34L1VfMcpAH/ctiUZcoiKOQad70q6+58X/FkB6sHEjGle19QLtpb7af9VHRWRcg8IKSmYnPYLcepbc90P61T2Ds4qlJG8KH/YSxQAyow3bBNHZ8Io0c5DdvkIQ8knYvuA0t9r4w3ujRo7t06WJQY7Hr5dTIJxSnFZvqLCvHTFA25IvRYnElxI85/RPy0KBQqlgkRzozb5DUXSpyez4eK0d8a97wzCPGzs1FDTmlpaXxHNxoogEGIewiHIQ8xyvp7ElzCTkHRnnzKwtcnOZHEbur2twSMUU1uS97Qhv001v9LYyXoK55R69TtAdH8NUEesrmbyoC+qtq0GYQwqtl8x9V553kaOwGu/cse+BpGrvxU8B/6SZAezfdRKmvhQhgdE2xUarszF2pvKlK/jnU/crqDTL7tsOVM/52G7/iNtPFuo6O6+l3rmwhHblKNnMxkJYs9JKoVZgdyLGsAqazsmEcxeXmo4ihCkWD5XxzmzZYRRSGOCwY/RJiwv8VlgTsG4wJ4ajZykFkopK/39Hxk5/KHny24MDDpVDYpmavh4I9e5f87db2736NYJ8IYaY8NcWV4JEDT0eDJ0pdRsWtKFw8SCPH6qkJpk/mFsbbsGGDc9c8Lownx23AtSSeZJRo0KhGnG6k3V9sSvuEPK4c1foxeoHre6K7VKT1c5UjwCieefSyzmnl1byNnLDwvFuc2hy1RP2Gq1o7KFCIrLTYlLqvL1mxzcJ4ol4lgfbYT5nF1xSmFiibv6kIKn9tBmFTU9UlZzYtV+cRGpqk7iIUAwIyBDtvpWbwPwmkmQD9GdIMlOpaioDwnjyt3373BtWllUytmdbx+L/2/Fc8W32p59JNUHtxae/8l/I7U7l5llWIl6FZ9t/FwBKm9mODFe7LR9DwclNWlcIW+31D/Zw3Gz/9oOGzj7DIsD9NgQ6dCg4fV3j0CeHd9hLLs3n2SdC90hUv37XrxL5lgAlz0MkBGjq0tUJcFElwhE3WANg9wiV06wOlte/Kghj4xIMZNjx3Kadb3pHk8WyY+O43vXfE0DvkJTCwCeWWevTt8eVYr/kzYADePKpqqDRlzxyDPsNuKBSKRqNyZjJ0Hv3grc+p+vUVZ5sWnUpP9HwMfTPs4gI2TEXAqWz2BcejrLJe4JZb/q/28QcM5cy7Zfc8VnDkceZ85pBAugjQ3k0XSeppSQL68O9jR9716K9XJmvNq+0OO7NP8wrAkND9yroxyIRJnfRnTNQqDFMMEGIwxs0mfr0UYctfSvE7ZGkNW9bio4iiR78GAXKUIUD39SYqEf64lm1MJROrrDV89mHj5x/DQbDp15UwhZNqCwZDvfuFdhwSGjQkvMvwyB6jzG9OtVPs/cTpn5pgN9vPdfPgZSv6gyaJyZEiU0ngSjY7whpkDLvi/Ip8sbaIuGaUQ35PumzN73SDxUw4UaM+obZnzJgx77zzjv6Im7Q2X83lsgserUP9zEvH9miNsUFngGyj1GxTKsK6ry/ZVwqvj9zrxCNBcU9pyzI5pgeG4UuU5T8OjU9cg344tGCMX4mqZtk2PMAkm4qgTrpFjMK6GdOqrzrPUoE+s/j8K4qvvF6fwzQJpJ0A7d20I6XCFiCgjahtd/GBfUa/sOyMZI2YW7b3n/o9qx1Vf2XdGGSISBVf3dRxDAm/Foj6pGyGOWda3bqUbpgwnmtZhY+RYx9F0AL9T+mg66VVz0vKsqWWVriuH8akOtSntwWNMmndj9XVRn9bFf1tZWzzJikYChQUSgWFgcKCQFl5sO92geISm9r0T01pGca+oTUsjBcHojeqxNOacszvoL4c9Raj16r1I/v22GypXSoe7k3RBtfWoZsvB6EVCW2w2R5dKjalUp/69SU/WijjrI469Q01pw1WbOKUSp1l7GphvE0fvV9x8qES1ji03SIHHFL+0PM26wTZluZBEnBLgP67bklRLpcJaL5i3Q6pCpXZNLUsWp1w1OxtlnA4YSdu7CLP8YWpby89UaFlFT5m26CIsuxWkuXNRIUJCXWCjpz5/Y1xYxdpNUJwgrDNjipvCI9qCGoLYwUDq3hoQb6NMjeHsOBIqN92mHNWcPifCg49JjL60MjeB4SHj4IHsL2xC+XaDBtYD5b8LVsAScg3b0IDxnfRo1axMF68Txv/F5+7hn0M+ykb4ipg83flwHLCzYUHJ2UTfuTxfdO/JJeKSc46Q4TFlYPiudxgIGJI23L1NVUDntP0syfVbIf/O+ywQ1zCHh2+JeBAYlgYD6CADleU4/RW1KF+fRkXxhPrayjYscyestKeQ8MleUBXCc+ME4c3TiksjDe8X5+qC05xNHYRLr3s7sdo7DqeGQqkTiCd0z5Sbw01kIA/Apo51X5wZdNqGyXlTfHQsPKE8TVvSL9/pggry+FijSvEtzdPwVZk4JEWN3nxY+BoD+HXtG69tLrZgMPMj1Uvyb9h+H1KHq1Wi9+E+pJVgXeIysgxdOKNpCGAg7nnGDlW1lfDIfdFIGm5OfbaUEqVF48Kli/6cRQTAbFh7iAsDH1QW4O+jO7qn5q8VYTT+sv9KKJo0N42mLVgwM9mpqNeHk60/hbGw5UGMwuGC65wwxRJm8G/yp/k6+rbq6V+47V1KwZc5fliE1eOMi1MWJ94Y26/mS4Ve3HDUdy5uH7kTHBz720Mi3PT18q569y5c11dHS5F+8Bwhnotd7XG4LDjTYeLRyyMZ/lWx7IOJVN9SNAeUZR86MSfON0i1IZy1NELHM5Ly5+yWCsEzg+4rvAHAcNIsGhk86TbwoB0d6Q6um6jyLZMBNq1L5v8HN69WB5lJgmklwDHd9PLk9pahoAwp2CGVobsvj3l8V38DOCNLQK/41sbkZKaN5vlcEWXPI8h7fm0GPmTTRCYRJi7g8kceMOLT6SRg3xlgzW87QWirqTDVCmOHHsJM4RVxPAmFwao5o8ohuu0htqmVHklDgMMQYtFmBMVwGqBDCQTs7Oxp39q8lafanZAg3Uss1ayMJ5Ut0H64Q6t74g0og5dy2HCMOCnnlBNRkkhH0fVUGJyKVyo2JqtHzkhIp3JO1abqlm5VKwk7PK0ZdhwU6uq7AooxyAJ+ebtiSeewPwqfA/gE0FCEB0i2XOvIm/zqTVGEXJEp4T8g7Bq9NsoTzgk5IUGcRjeGniAgW1q2NyFHLEwdg16oFkZCdbnqzz/tVVRr80Oxi7GdMvueRxvY/QKmCaBzBHg+G7m2FJz9gjoR16rg3Y+miUNG+NDVslbp5hcc+bMMURE0oZt3I8hYZQXayBh2AyWRLJNjJTAhbF5mFAWdFkFRo/cjBxDIQaDa1bJmt0V0U/Q0WZxYbjO/eAZ6lKH9/CoAEPQfZwBDPSuXbtWrM0mNzvzm/6pyVttqtkBDVof9dPLvr0mrhCjbi633+d5LqIUQBXKVSQ0IN/j9Kx41Th9Pl5TiLWyVetH1iYincVVm/7pLhXTMecM2KZ4MJOHeBUXApeTRFW/HZT1bd2aG6c1Rhyzv+mEGIip15LIs0tAXtkM7iL6043F7Zpq4mL2cwlQNbjhi0I8tzgujIenBbzFwoO9sjXzvKBDwcnlkXhO8n8lV0+M7Dsm+XEeIYE0E+B8tTQDpboWIaAZZHu/WtZp5+ULByVrRnU01ntplXzU8aWeJOltPpRIfT6TVNJbqt+YOCdaN/MDv14Y91W2ZDNdMDit+DPE5bz822p/af37bgoYJuhoL+ht5ptb6lXn0wwcOHDRovhQuvvQBIZmWNaQxkw/c56U6vUnTskxGBY+VrnzUcTQGNhAiP2MTT8xS2+FK/LiE73QB3lAvjjdeg1C3jKBkV2YyMomQo7giU6JdGZZRMlULxXfJz0tseRsGujpUEJj3Jf0Ox80Idyb/mThdP/+efwtFtIuHwO0E+d5Ybz9ikPTu5eEnLpccMyJZf+a4iTF4ySQTgL0Z0gnTepqKQIYeY1XveYtrOlk04xQICAfxVe/l3UEFIXKsI2cVsaQlFzHT3UMSf5NOvgb2QRJtgiFfmgHVXwxXrZU4HoB0wcuEPhE+psr4hWiC5htA502G45CBpLKhpEYpyIY6DJP0NHez/p9WawZu14WAHO/FIgNA/eHPPurCNXq2GQ8A8ANftXidbP+FIvilgkfRRQ9ogpFAx6Q1Ff2nhbGk5UtfSTuGwATVu9sY9lg5WITxm6yRbwsy8LUVhupXWyWkskzsegDbOX4cUcXAp33BUqZlzhJXo+rIwmNQYmAvQXY/KUEMeH+4aoSnbxwFzGc7m6HxY1d947jqBou5pDH5nFhvH6R4KPdiu27Cq3hIcNKb5X93bmRQDYJ0N7NJm3WlSkC2m/ksqlNwlCwqk3+Lk7B5NIWWMILSvyiO25ef/X1CrEKAIwA+MkpPcIn0socpkBQ6rSH7CKpzO/ue5Zs+CrvNPGJNHLE/G7t12uhFCq1KNJcKebrJFveLEVDv6ioeV1l1GI2BPX9FWndglvaAs7iaMYS+qcmb5XozRRLw0K8boZh53LzUUTRLKpQNIiV0rzDl9+D42lN2YbcqvnyIkeZ72++2HAIDdBZk5ovb1yR1T/1mTBFvwJX69thIBlrbeD+bd78L+Rm1Q99XkJjYk36Q6a0uiak3+dJzV3EcLrXvBmvC18I4kHIVL0xA5KQVzZM6k226e5TLIxXFgw83a24Y1C13ZOUCm61ddnkaYijkuQ4s0kgUwRo72aKLPVmk4DeIGv6fqJN1WF8GxvG3iyldV/lepMrYdjGyxiSq199wzChZcOUzFhU+uoiefQXG/w1MagGwzfZyLH510tfBFPCm8dyNm60m1+SiqFfW1srt9PSEJQPWG2qjQ6PzNSDlFlVYJGnf2ryN+dJVmppWIjoBO5PsY8iSp9EFdAAQ1yZseQLvqxP/1yHy0wsNosp/9DZ988SVlDDohIIBAEzFw7oidakVD5Ac29Qmmf+1D0TapeZWcxdDny+tVFevCSxnSQKyez5iAMX/EPgsYA7Dm948Ik0cpAvNt8vjhS/cPPpFj7cioCoyDEh5IUGyyLqfYqv1cldi3YscLIoIgVl/3kmuHV3S2XMJIGMEnC6OjNaOZWTQPoIiF/K6LIn1dESC+34Xg5INsd1RdSvcoPJlTBsA2sAY0X4jccvvTKuZvmrL2bw6NRbJPXDhDjs+AOJ0SBMTHGz2fx66axhET7WrNK3oQ/P3bg2S0PQXJOS465VyUr7y9c/NWnjmo661LHJuKBArS8oXjcbTrFexpD2UUTRIKqAhtSH96BT/1znKeQIylb+6D6qQ7r8CnCHwicHQ8UGovpdS78dvUDqaXi9J0xedOFAJVeqf8CwaYTuIUFe50zZzKd7y7L4ITWESHzX8Z+QFxosi6j36f91Kjys1M6RTCldOvHu8LA9LDUxkwQyTYD2bqYJU3+WCOgNsiZbgzbs8G5RbbD6VY59gyHoaQxJHvAT85dV3Rb/YSgvmazl4+2zmx9IxPdVRnm1klYp+18v1UTTAtBa6fBh6ONlcSQSiStTa7HSbZWnytu3yqqk/7zRo0fHC/swO5SSArW+FXCjVDb3L6x9FEEVuIpQhbKV9JF+/zSeVmHGdx3/GeT1z3UYzZW9wNXHGCtVsCaHDx8eP6Ivm/yZML1+Bfg2QEwx+OfAhkZjlBhn+EQaOcn8dqy64jMP89XgfR4v7MWBSi6if8Aw1w+GydxFxFisOH3CuQvfZp42IS80JCve7ZCjy8KXdyxIdlzkF515fuHxp4tdJkggywQYnyHLwFldZgkoQa9+61+OgOfJtu6Df64LFCY7mpBvu8ap5dIJCcWxs9V+0qiXjZmW+x+PhQ9c/Ihhdr+lPAZ48LuobLA/lHCnlpJKps2yrvgFbY4LAYMAwUdtdOCQFqvBXk6SYFjARE496IGbVjm1xe1xLdCHUgJPHRjmF7/9ejWAhpFdGHOGLdmquWKRXuh0OU3+9f5xd233RcTMekOr8PbcshcGMbGrXhISPMXhPONiw4MNxvLhAw23EIyUo4TXS8VFJa1GRLuQfJ872V3EaYUa8NBfouaYHuYclwjFBQAXbSXKR5KCO1XNe3Pxn0qc3HYjI/YrnzpDCjmPASeph9kkkCoBju+mSpDlc4qAMvLaGLMb4A0bVhuy6YA6VqetRKATthlDGjNmTFwQJiwMU8cNMsLYxQ+YRw9jSUxSSVYRfr2UTcyC0kuqlpAWgFZ/NDHt9WWxplOtJVFf8j1VXtOQXDYtR+AoLAdwxSYWX3U3NqnJo6xAbWiTeOkMnS4vCf3CeC6LmO1vpRkqTEOjku4KeRi7uz4QX5I6qbR8AMYufIpweSjGLnK8Xiq26lvTQe1Cgs2K5yWXm+pAFRd3cj6Oi+kvUTEWK05fWrzAk7e/c+PvT/96iaOxG+zVt+z+J2jsJgfJI9kgQHs3G5RZRzYJ4Fe2sKTUpsbCWL3N0YRD6s+GjcmFX3fUiJen+sWZ3nnnHYxuxlV5ejvp7wcSc5KweKzNpp/DZBZTTTTlta/5uCHHxtA3vyzWdKq1GLQl3VXlNQ1JRdNzQPNaQewtDK0pm6PZAUl9rC6B2tCoLC6Mh5phfeLdfeoL48lBP7A4XPdjDL0x7+JRwbwwnqdLxayzleZoFxKuDfU7xLkvkFSvOgRLsZHHmYWDsvYNIy5RUUa9d7Rl7YRXt5CxTwh54UduksfAweMrLuhdv8p0JCEjUFJa/tBzgQ6dEnK5QwJZJ8CXC1lHzgozT6Cgc+for1uS1dOlcePvoY7Jjibkqz8bPkwuGMFYISw+YQVjMC5XQfPxA6kspoWwQZgjn2yz//VSTTQtAG0yPbp8GPrYdBnWSeiMD5qiFr9rs1mrTneu5igM90c0FQvjYeBciW9gWRfivmHUFoZsLi2Mh5aKdVK0t+p+4UsYINQv1uX0kt1yYTyXl4ol49aYmXAheeoALrzm27lHjx5Y3xh2M1Th5RKet/EVhFtJ7y6CZwm4myN6TPz+0lckTje8wBV/bnziWnVpfON7T3iBJ18Y79bVN4yq/kRfrUU6ECi96+HQDkkXALIowiwSyAwB2ruZ4UqtLUog2KVr9NeVyZrQtXHdT4XbJTuakO/LEBQa4FyhuTAqYzCKbSokzAkx0cR8yDJH/YGUxFQVs5jjr5dqDWsBaM1KrHLw3tb+JxmFoDP+e4xaPNm7fltl1VJXeZrXiuLHAkMWf2gGpr0DLyaq430xxjthAmLQC5aEeMBQ/V7kapIZFvqFAJTmuLwksAq0WBjPRRHFbVqpIXX4Epx/MCdS2fSuokoO7CecU/zBllK9mfGMh8sez3vxUm3vn/FCck9AvZCgwc1DAkxebOI2xKouDQ0Ncm3iXsMliqcyPLPhysEJcuk4LkKOoGySb6Qzfn92/MYnHXtWfPG1BQcf5ShGARLIAgH6M2QBMqvINoFA5642VXb95Jj4WmWIbKAaVdby6lGvhqDQhl99N6GRtCAG6g+e0OCQEPI2YYPsf7101rAWgNahVglz9TB2eOSRR2I8D+as4u+BT6SRg3wchQzUaDphCKrj5U7qE+IMaBqci6UkoXmt6IfB8HtvH94YderlYVi0xMJ4aEWfPn0Ma+Np6PzClwOKKZuXIAO4BpSzHy+b8j+YdLChcVFh+iOcNPCJNHKQn7JuawVuakwmY30hWdeTmKteSJqGxOOWe7CMFZcqLZaw/nT7cBwXXuCibGLFe1XPu+O3fyTmWezB0oW9a3GAWSTQEgQYn6ElqLPODBOonvD/6p6fmqySv22oe2izzoVXvJU2FIBxhti6MF8kCQGM3Ly7NyjQ7+Kn0XIotEOHDm+88Yb2RjLZ7H69LkPaJvACJDHPyT6MgzqjH06B8EI26Lbc1QatLQ/rMpWxRpgm8Q56n6vuvlW6an0mUw8l4Vwxwh0Mu1/2iMXmOHKsuwLl1fIwVmco0lxfKBQ6+OCDL7roIstLNBX4UqhIampeK6TlTpxjFBRcIZgnh2FOZ/juJNzUCEeCOXPmaLdtMs1+w2LAe8ExUoplndanGw/2sICVzTxILxThelMH6eU8+FaJ1aGFjCT1aPhtzi9HwCtMl2eRDA3Yqd302XDetTjGLBJoCQK0d1uCOuvMMIGau2+ueeDOZJXc80f9TRvrjEfNX+7eDUGjTqd9C8PR7w+k/J7dEDbIza+XzhrG0KAbo0GJ+BbvmZM3J8TgS3ryySdjJlO8iMdQay5b5UTa1XHNVsDCV55cL9S4da6qgZD5YktWEkuZKD4w5iI6a9jmeQzWm2/48UbhLCMUtDr0mKyl8Xx3rXJQoh62uEHUQ4b/ei8OwyFPu+5rdKUWTi97PetKUhFSLyRPj3mGZ2mtOv295sUJW9aAhfEOVIM3axqlomjtG0v+NLRmgS7PIonZae1fnhvs2cfiGLNIoIUI0H+3hcCz2kwSCHSx82cY1OtQaa97JfjmYrQMwx7NI7hyom69tjAEDEH1pZ5YuS29TU4wHEWUUzHRxGVlqoexVNhV9haAUYJPQ9egyrzAG8R0YzkwF9wYu7AGEpaMMsSmRe1W3pxbb7019OMdt9wnDDbDIdVQUHTWV6tE6RQTafB2VVrg+BhguNhs2m3jnw3aMIKbrWG8OrAc3IVinFaMRPqAL1s8ijMDanFp7KI+d62y6bE4lHCDOCFFBzE9VHuhL7R4SbiqcfGDsk+zsjm1SsIsUhiabpabURR6dKByGIrW32togxjlxTceLhv7uQTKwnim+/S+X69yNHYRdwzRx2jsern0KJsNAhzfzQZl1pFlAg1z3qz8S9L3mwjOsP0g9cV9ooElGxBYPirREMzEzJuEYSS8YYw2SCuax4G2u1gaPNEDLjH+Z1MGPr5DbpfwCVvEyhoW0/ltdOBQKiOFGKadNm2aZis7Ggq6IAP2rUrjUYyTwfNYVojmeRrRfGN7+QwqW8rvi+N6lH84X81LgViM30PA9XCgK0tOPPtBMx6QqpfFY1P4He32NEiZ0GvDWhWukaYyymu8JU2mntxCYTIi7bpVbofzca69OFAlNNiAT7+rv9fWzZF+/KdUsUh/XJ/GKSssLJw3b148U1820v7SNf/+x/p79PKW6ZLr/ll0hhqN0VKCmSTQEgRo77YEddaZYQIvPzpl39vUNeWt6tpzh/d+KdxWO6J7rS+FiqWmGuWQS0NQ0+MuZWE4Inrup81v/L1aWuoPpLuaLaTcmwja63780ruc6J3oE+L2F1pdm82iuRnO8tPHvFsYL26fpbw0l28nVIsbxP686+5ffw4wrmpEhI15f443RO8qkKxtulbJKzAj1of9lniz2Ms6P8B8d638nsfF5nJhvINKws9uU+w4wx0rBpfe9oCLailCAtkm4Hj1ZrtBrI8EUidw/X2TVjTaLYL6p80zE2rBemaw4ZRNNXZhCKb4ejShCt0OQmbG91CpspSaEjYIuXjViNFllxskm50xEJ0eAzNKkGB8Io3GX3PNNUjYaMJRGAcuR68x9hmfnQOLHENfLjdIQl6SUBYaXEarcNWqWCxWsyW6YV109Sp8xio2x2pqpKYml+1KJqb5rsCbBfaK4waZPFoYT45dBctMmaVkXqzLkYYioDo/eAoyoNdtcYPoD5vTuvtXK2sWS56jlRK3pFlYrGJoI6MvpWuV8wqIuJBcO1DhuVF7VYLG4F0EXgrBlUghj0+kD/jQcWE85Rugvr4eE1VxbwqXGPN9ul0k+PDWRY7mQnjXPUsn3q1nwDQJ5A4Bju/mzrlgS9JDQHkrjW/nY8siyTSuivQYtuPHUUn3Ba57mdi3b9877rjDjT9rMv02+UlfmqcwemQzpoXqLONCIFKV+Hmzaa04pA3N+vW40A8k27cqtmlj068ro7+tRBDl6G8roqt/jVVWxLZUK3+SkqitkSxXjQ5HAmVlgdKyQEnzJ9LFpYGy8kBpuVRampCvCECytExS5IuL0V+tp9iBMWH5XhuHcMHo/F48u0CIgXkl8IIAbUioHguyJTr6I8NBuQ3N3g6eRlIBf9KkSW+++WZcW6hEKu1njCiMYy00vpv0BjF2PnFfd//azN5LLBPfc1UjPGs/PUku4PsNTLIh3sQLSX+bWLbW1VC0vuSX50srnxcZuFQM61aIQ+aEcp9++7+P76tc3j9kPp6QE9y6ezvMUdtq64Rc7pBAzhDgfLWcORVsSJoIwLyDpk9rmmzs3Z4Nvx61+Y1X2h+h1YlBETjvNs/hOOSQQzJk7KI6pXlyvahOHQmTd/G6c/0H8bBB+okm8rHEzfQDadNaGLWe7NrEmrS91JeM0jRIkmhV7I9NjT8uaFq0oOmXH6K/rojed8Oma/8sj9T63hoboBN/fhSEQgifdHtJ2cWDuq2pqKiOSlW1L1R9+VJl6YBNZYM2lO6wsaDHBqno95qNGzZ+tXH59LoGOVZdfDOcTTXb+r/uYpOnNIl1K8zS6gQmbWFYvYz6wtrHwnia50av4629U7CshrK2HGrxFK3CV6tEt5LeIELCMqFDCg2ernlXNWLNEWXzfaK/PE/a9LW8fIOtJ73j+xZXQ9F6RLtNluPKNQ8eY0DXZcxBRYF8nx52WOW5xzfMXa5XaU4HCovKJk+jsWsmw5zcIUB7N3fOBVuSHgKKXTWzuvHWrUIRKekL7ltW3/hu+X5VwTKtVnUuvN4y046mKaUpR3WGDe+RESNCWc4Kv08uliCGh7HjD6ShEn+7aVkySopGm5YtbvrhOxi4ipkLbwR/7clIqaYmeSC5smIbzNcqDOmq+FGqwp8uA8neUnW0bENTbGM0Jn8WLd24+paN4U4bwp034i/UEZ9IV+ovML0C9WJrqYXxunZVY5jgSlsxTSrbvnmI91BtPS2sIafYu7C5Pdm7qo3ub5UWuxtED9CcVpFqGswyVjmavPmWFPJi/UIbGSGsT6itkmc02kZFcBzZhVYMuPp0K8KXSWOl4lbk6WFgyz+vb5j7jr5DlunSWyeFhwyzPMRMEsgRArR3c+REsBlpI6BYZjBB3iwffVRl0m/qbRrWXLfm9qu736xVjHGX5k2z7bRjzinl3R9+O1EcnovJ3htqytXqElR7CRvk5gcyQbnHHUOP4qUX3iB101lFTjrLQqE9SsIjikIjiqObdt4mpbFbp7qyfLw0GMBfPMRozVwJf6atPhBZH95qZUGPFZFeKwt6rijouTIif/7abkB8yZMty0yF1AzVP1t2ZjCbWRjmR0SF5k1bR00tmuw/3oZjgDBuMwmhaL1s2uIPCsXyK4gdq+jHJ9bZ0r+LEAXNCV+t0qtxuEH0ooa0ekNpGgwCSXY1eVWDhaA4TTYyFsUkeTTXacOwq8slM1wNRZur8zv4XT9zeu2Ue836DDlF515ScEzSeDgGYe6SQEsRoP9uS5FnvZkigOVGFdUHHjjjhWVn2Fdzbfcbp3Q+W5NR1yrDbCgt0yllbUPoSul/z0TzJJul1ODLi8kxyuiaTo9I6hWKzDQmHHukWUVWtXZu/H3PLfNGVn82ovrzITULQpLd3EErBfmfB9/xtY1NmFWJv1X9L1shG8G98PlrQY+6QIHcf8fZ/V6m8ytAE1yT7RnjrT0C871/gFS9VBaEH7OviBz2lVgedXWDWJZEpq/711WNqma729apVXhAdXweTqZDyde8UDIfJK5xwfzKkw6JwVHedovsO6b8kf9KQd1cCFt5HiSBliJAe7elyLPeTBEQq8IGj1jy+ZKj+9XbeZ7FpMAFve6Z3mGc3BoMTXmf/ePehlCGY0XzpCOWOYyZ4b0wvAbxIhVjS5gsj3lFTVvQzKKioppUPFydwLvvkT6waPeG1TBw96r+HJ871P0SkDw8MDi1qA0dxwW5FuPBDY0rqteubIjBGl7e+aAfBv17TSRxGpDOGraZragH5xzBCtcbhnKV5Vf0JZW0xwhcLltlrsfDDWIo7Ov+hQ5XNbbQ7D1DF1011VBG2fUIBzFPKsbuF13zq6UykRnqt127F98LtGsvcpgggZwlQH+GnD01bJhPApi7o7yujW7+/tatr5qy8q82imCWTVp1Rbumikc7nynCVbqf/ePJhlCWgBLNk6uzd4vEK2z9W2x1qv4OO+xg06MUD3nqUYcVT+zf+P2YboNHVX/Suz6XPHFTpNByxXFBdmtc1y0gDdeii3wo/TB8U6jD90UDFxbtuDDSd+Fv7/+wbJYy7IZYIjazFUU/8AyTEMHKEHQC77txKeIPfgv6oBOiPBLpm0Op12pOe7hBDIX9zpNzVWMLzd4zdFEL8ebSvUSUV+U1DeKQOdFQX3XhqY7GLsKelE1+jsaumR9zcpMA7d3cPC9slX8C+lVhXxo88eQ/po+utHCsFBWEY413/vaP4Vu+umxzqWJDuJxn48OGgM0xcODAeNXZnQYk+muTcNOjQJeRQ/ocPmbJDWPqv9u9KBSSFkmbFtno5KG0EOjY9AceKvAnawtK0f5lSxuiC+uiCzf/dt+xR/713geCPXpLqiePoUZ4p8TXE8YB+2FaWEXwWyjuKVu3zduYMWOqq6vjM7qyModSf/86PBAa+ul3npyrGlto9p6hi5gVEDdYMV6rmrAGGetdyDdv0GAtoMutvu7yxq8+02VYJYPBsrsfC22bwWdvq1qZRwL+CdDnxj87lsxNAtrcHbycbdh8Zfdba4NFjk09/o8Zb9c/vWOBfEdoGpIXM9oQsBKS/fwoNgTsjOZt0SLVOmxuXvIaEo/g5wryzZub5iUWdrVn3yPYW+M2z3pg1eWLFu323rITJgS/31M2drm1DAFcpttGgkeXhf+vU+Fp33zwx/5DNu3So+L4MdX/uLTumUfgeSk1NYqWeY5gpVsoYd26df/73//gihPXBm8HBBn46EjZ8wcurfhEGjmqFwQkU1ylRbu8s3WDuKoRs/eULVutEqdPn9BePamD2fqjdmlVXtOQRLr2yYfqpj+Z5KCWXXL5dZEDTBFmtONMkUDOEaD/bs6dEjYodQLarI7meTYXbphy0+qb3KhtjEkzCtr/Zd73eFVnL2+owl44flSdYAQH3NraWjkzi9OAHFto7hHerQ+tWTCm8j387VYzPxRLGtzNUXkmBAJFxVJxSaCgUELM3fo6qaH5M8q5cTLsQHFxaMhu4V33mN8UOnrC9RubYr4XSlCWb3CcwpjGOZTmS9H5+lFvLjTDU4hZRbOrGufsHZ9C2nK3reZbn45lX8xUGz79oPLMsfqHJbMMcgqOPK7snscsDzGTBHKWAO3dnD01bJh/AvhtPvHEE+PlB04IDLjiPysvO+GPl1xqDHbpWnz1xMJxJyd7QYxAXUceeaSszfdiS6Ip9u+XFTHvk5OEepcJfY86jvnogNr5Y6reO7Dy/S6NG11qSKdYKBzcpnuwe+9Qj17B7r2C+OzWo3lptBIJi6LBxsVyaMUlllPC5enkWICtuir+J6crY1XNu1vkTwnp5oROpkoRkBriIcLS2Zfc0LWkITovsv28HuM/L9ltUdGAhJUFk7VwwXXK8ivKPEtFyhCiLlnQvWQqXeYb7t/4mts2hVO+QVzVmJkVEG26ZT6kv0/lZYSTvVMylMTbIXU9P5vF56Krlm8eu1/sj98NpQ274Z12Ln/+bflpkxsJtCoCtHdb1eliY10T0AZCUKTvmeFB1z312+UHV85xrUAKD9216KKrC0YfZrZ6NeV+R1ngxas5NmC4yDB/SLQSP1S6+UN6y0OIpCVxwfnnfzr1kTEloTGdeu4mbYSDaFrUulES7LxVaODg0IDBoYFDQr36ytZt120sbVk32lKSwTixbA03m8jCYkZi8x+x3zfMfWXGup9+6BwKdCnq1DkU7NC0OZuUUupXYuHNoXYflo56v3yf98v2WVoQDx+cKNK8p86P9DdiaqHQS5Z2i6FUVm4QVzXOv0y4FWWnVWZmroaiDcVcDH7HarZUHHdg048LDUUNu7hb5UWDt+lpyOcuCeQ+Adq7uX+O2EKfBAyhBor6nv7fyLwR9T94Uhfabsei8y4rPOo4KRwRBbWfnBSiYMKRTpsyj3FiRDxFNAZEp8eYDcxc+NslxofCUmopekaK9osExnIaPpzTMPftta9M75Add4VQKNR/Bxi44R2HyAbujoNbyxqkhpMOY7dT46bOTb9jCLxT4+9dfvlX56oFXUKBTjCIw5HORZ26hGKdolUFsQZBOwcTywt6wep9r2zfD8tG/RFKjCqFi9B7eL409tFw/2bhBnFV4+IHpZjqG90St62roWj9aXAz+B2LVf319Pq3ZurLWaTDkXZPvxrefYTFIWaRQM4ToL2b86eIDUyBQMKYjSS1Cwae3aYYa315VRns3rNo/P8rPOEM+TW6y4CdhjrWvC2teUP6/TOpQp6vhhD3Q4YMaWho0EZ5DfKJu+kc2Y1GMZ8JNi6WCW389kus8ZtYVQb2IgUYLA8PHxkZPiq8216OvtEZaEEaVDqHPtUP/qkVdggGekUCvcLB3vhrTiC9fWlRUWNu+U7Aw2F+yVDF9v2sZPemQPM9oi6yIJZfyY4/gwpPMty/It+cSNcN4r5GcxvMWWIswwAAOWRJREFUOZFIBPd42r0+EhqZjsHvmvtuw5+5/Yac0pvvLTxJtzqP4TB3SSC3CdDeze3zw9alTADDIfoFVAsC0s2di8a31wZr3dcAQ63giGMLjzstsuue8VI2a6QJvU6LpWnT10QRXSJd04BimzZiKLceZu6H7+LtvK6GjCTxYBDebc/w7iMje4wK7bx7oNA5REZG2pE+pa5W4XI61+Jsxior4C7Z9OuK6K8rkXhx0r2yTRwJwD5OX5N9atoY7vR6u0Nmle774dzT6mMSzLXKykrDfWRWLbpmPpRKTvbrdVPj6NGj58yZY1yW2UU/00XJ1VA0QkmocTNs3g7Vv/Mqou1KTitKFp56bumN/3LRRYqQQI4SoL2boyeGzUovAcO41Oldyu5oHyz0uwbYkkbp6c11z1c1rDlkqcOUEasxP8uuwaMXo0FLlixBfM20DQg1NWlDud99lemh3ECHjpHdRoT3GAUzNzx4ZymUV+G9ncd3xXmFI4rHhfGE8rLDFvaOVWDxjl4NK/HZv37poNofWmotj4po7M3qxu+26hkcuf+kKY+I/tkk0jXOaqjCcP+m7QYxVKPbdVOjQUYZzdXpSJpMC6WEUd6kVckHbKpr+ul7uO3CZ91WgRTeY+92T83Mszvavss8mn8EaO/m3zllj1wRwMyMqotOa1q22JW0lRCic71XuMuzW583u3z/6mCphchnp0mrX4vnZ8vVL7pudeP8Lxq/+aIJn9995fhLZtFsL1lRKfBlbeOcLY3LevR7/ttF5rl9XpTltKzBf9dDW11M/LJXXh6t2qlm0U61iwbW/oDPQbU/lkWrPDQgZdEt0dg7W5pmVTe8XVdc3acFHM1T7kHGFaRxwNV9W90MRU+YMCHZCnyxPzZtHrdfdOUy+xoxhbT9yx8EOna2F+NREshxArR3c/wEsXkZJBCrqamd/K+aKfdKiN6awtYYCH9dvPOHZSM/LB2JeE/x5S30I7vp8LFL1kBMrG5a8LVi4+LTcRXQZHo85W8Id55Ttt+75fu/u+qTTb88jLI2Y0ieNOessDac5jcohw0iT8oRFxkjvoNqZQt4p7Uv7tSwpF8kmJ2lg+oChbPaH/Z0x5M+KhsRk3SuF9kKJJKbl4d2+tC+TN7slt03DDO7Hfxuaqw8+08N/3vfUqfIRCDndi/MxtRSkcMECbRSArR3W+mJY7PTRgDDG9U3XdMw5420aKwLFHxRsutH0Y4fLX7x27poVTTmsIKrUqubOdSKZDQa/W1V0/LF0WWLG7//Vh7H/XmR1JSNlSAwh+nL4l1mlx8AM/eb4iGyuQMrx0Vcz7SAbXElsCpSDLpsE/o0ReVFAWnHgtDgwuCuW+8+vKBxx9qfMh0rbVlB72c6njit4/GrI920U+P+MtbKtPoUBln10b6zEC04Lci23HR17ROTHVWV3f9EwWHjHMUoQAK5T4D2bu6fI7YwGwQQrAA/AKm4N1i2coNUuLRkMIyDZQV9lM+lhX1+D3VqCJh8W3UxMud/+mms8g857GvFZnxGV69Cw5qWL4kuX9y0YlmWl0VYH+4ij+OW7f9e+b6bQh0Suqlrs49FrRJUtYYdzesAY3hYQdrN5hpRKsrjDVFbBf+H3bZ8vceWL4Zv+Wr3LV+1a6p001IfMngEerdsv6c6nfx2+YF4yyFrcN1fH9XlZpFUThymr7XIjVP336err73QkWfxRVcXX/Z3RzEKkECrIEB7t1WcJjYyKwQaG+pefKZ2yr1pt3rNrUf4p/pgAQaD8YIYn/XBwlopXFj1U4dgDEHTEESiZbcmeOWW7Iqh3HfKR39XvFPCm2vRsrY3mJfRkbxUlMvnJMlSf3B+GFD78/AtX+6x5ctR1Z/0qV8pTmAaE3gowljv0x1PXBzs3HaG/AEwxYF5aLAZ9U/jCdKravz684pTDnd8bC448PCyydPy2CNfz4TptkCA9m5bOMvsoxcC0Wj92zNrJ/8bkQ28FMsH2cqCotc2Vs7e0vjelqY/ep/R4qu+5SDTjHpq+lMep+TOq7hf/bIDKj/cv+rDvSvmtJfSHAMYz0Vvtjvo3srIvF+eQ6ts/JVz8Mz6a5J2ytzx12qxWq5ZO5qxVHTtbxVj94uuX2tfA9bZaffiHCzcbS/GoyTQigjQ3m1FJ4tNzSqBho/fq33obsf5HFltUyYqC4XCw/aI7HdQZN+DwoOGjvvTn1p81bdM9DKNOjM6E9+r8nbt2lVUVMi987jUX2jDh8O+GLd/cWj/kvDuhaFIWl8p/K+m6b4/6tduN6hFXtan8Vw7qtKcGTzyl1xE7XCs3atArK628uRDG7/9yr5goH2H9jPmBnv3sxfjURJoXQRo77au88XWZptA06Jv6154sm7WdMTuyXbdmawv2LVbZN8xspk7anSgXcJCstqQlVMD2sIAniWDjCLypPyZZ55BwGa5kUcscwgFbeiJulwwskuDgb2LQoeVhvGHJZENgr53f2iUdr/3kYIj/5THcVtF4GTf/JXlPHxD9lSw6opz61953qFIKFT+6EuRvQ9wEONhEmhtBGjvtrYzxva2CIGG+vrZr8G7F4uTZScYQkZ6GQqHd5WHcgv2Oyg0cKhNFSnG9bTRnDeHMorIvXJXq74lg64uFywiWB19xBEHbdW+4c2Z9W/PQiDnZOU85Qd79pbX4j7+9EBRsaeCrUI4LfzFcs0Z7XLtI/dtud158lnJhNuKzr4ooy2hchJoEQK0d1sEOyttrQRgBNTPeK7uxaeblvzcOvoQCIT67xDeba/IvgfKQ7nl7dw322dcT/cVtH7JjCJyozxT44ux2P6d2x0YbDiqLNw7nIbYvoFOXYovuKLotHOlSEHrP+1aDzLFX6shPSk8qFeec5zjs3rhn04pvdM5SFl62kQtJJBdArR3s8ubteULgcb58xpmv97w6QeN330tNTXmVLeCXbqGd949tMvu+AwP3S1QVp5TzWNj0kggc/6jQvPQPe8fG1h50qYXt25cl2LLQ336F19zU8HBR6WoJ3eKC0pe/aez6b+Lh/OK40YjuKE9N3xdtJv2hlRQaC/GoyTQSgmYgoC20n6w2SSQXQLhXYbjDy9oY9VVjfP+Jxu+n8xtXPSdFI1mtyFybXhTHNppZ9m6lW3c4Vj/M/ttYI0tQmDEiBHffvutXPWat6Quozy0AfLNGzRYlhKav93407eDJ96y9dUHVb53+qZpYyrfC8d8PuAhhnTVhaeGh4/CS/Pw4F0s621dmYJS2vmniwNeSVWePdbR2A123abswWdo7KYLO/XkIAGO7+bgSWGT/BBw8/LXj14vZbA2RMO8j3+e9uSKt17tHwlulb6pP/pWBAqLgr36hvpuG+y7bajfdqHBw8I77pTHU4L0fWfaQACXfYZWfUumuWvj+lM2TT910/P965YaGuNhNxAoHHtS8ZXXB7furpTKhfvXQ/tV0WSU1ONJ/mdrYcJYZUXFyYc2/bAgSTvU7IJCjOzigVnd538SyEMCtHfz8KS2tS65n9yTNTLKW86SYKBvn7F9+53Yr355n/oV+OxXtxzmQmGszmGELBxBzIRgu/YIDBQox2fH4DY98C5YNnD7bIs0g8Bn7VTmfkXaK3V1fTXnNrtbBc1e86jqT0/7/bmjK14vitY612glESguLjrnktc795r4z7vio9RWYliEbMKECSeccILVwZbPs6dk3T53/K3Lus+tr6s4a1zj5x85loDPLjx3HcUoQAKtmgDt3VZ9+th4yVPwpsmTszQVAyb4iSeeGD89AydIA640nKpQrKkgVl8o/9UVRusLljxYtGRykyRtjsbue/yJY0873SDPXRJIRsDxYjMWdL0wnhvN7Zsq/rzxyfM3PtqlcaOxInf7axpjV22ofb3awUciZ4PfuaGUQMI1/4RSXnei0aqLz6h/a6ZjOURjgHuJoxgFSKC1E6C929rPYJtuv9fg/GPHjp0xY0Z2kCUY4hh42+lG6/CoeLO58Hpp2RNKq3L2Rz070FiLPwKZu9hcai6sX3fqonMuavqqb8RnMIfnq6Vry06p6HaU1H6wfKfgvti8QHaKXTZVaqxUsGTz/vV0IlxSkjuVrZu9+vrL6555xLEXiLOLaLtSKOQoSQESaO0EaO+29jPYdtufg78xhpORy+a4oancbe0EMnexudcMo+mYsvA/+nTtXRu3UD1R/S2yzcU973q/bJ+EUlm0ERPq9bjjnpKiOKO2e839t9fce6tjD7CCGtZRg9OUoyQFSCAPCNDezYOT2Ba7kKPvEE2nIsEoNx3VZ3BkV0+DaR8EMnexedWMaK/yWtyffuC1FzEp8Fjn02/o9rctwZKEstnxAUioUt7xNIvOKyVTbenJqHvu8eq/X+KoK9ChU7sX3gn1395RkgIkkB8EsmHvrl69+qWXXlqwYMH8+fO3bNmCyQdDhgwZOXLk3nvv7RuiWNUmOyvT+G4nC2aIQO7OETF1GKb5Lbfc0nqn45g6xIzcJZC5i82H5savPtty24TGrz/3ymtpQZ+Let39WUliuIDszPFS2+qjvyjqr5RaZxr+Y2E8uO06riuBmYLlT7/GgAxpIE4VrYdAZu3daDQ6derUSy+9tLLS4vXWKaeccvfdd3ft2tUHLtq7PqDlTZEcjwFkydnTQJGlBmaSgEsCmbvYfGiuf+3FLf+8PrpqhcvGK2JRKThpq/Nu3/qKuoC6HhscG94aovjyvvrqq0cccYQnhZ6EUxyp9UHJU/OSCde/+UrVpX+WGhuSCcTzQ+Hyh56L7H+wgxgPk0B+EcisvXvBBRfYz4jHYowff/wxhnu9UqW965VYPslrv0bbXSwNnuihawuuk365H/J0HvAAjaIkkCKB+rrax/9T8+BdsSqLgQ8b3V8X73x6nymrI93iMlm5f3PKE9cGjuFQ/az/Vl15ruPILkox+pgBHXfbCAGfc2nd0Jk5c6be2O3fv795KBfjvieddBKcHNwopAwJKAQ++eSTOIpuh3hjosprGryVpzQJkIB3AgWFRedd1v7d+YWnjPcUCmBYzTdzfjli9y1fxavM/P2LZ+mXX345Xh3CqhzynfxEjYXrEDICGz6RRg7ycbR5gzxKKemW+qx78ZmqK85xY+yWXD2RoXZb6jSx3pYlkCl7d9OmTaeddhr6hhHcO++8s6KiYvHixWubt4svvljf5++///6GG27Q5zBNAvYElixZEhdA6CJPmyqvafBUnMIkQAJ+CQQ7b1U68e72r/7vg3oPKrA+y8wlJ5z8/VnSu3tJnxyrlIQ3fHFx8aBBg9L72wHv24ceeijeOITN3uUe6xiCkIDhi6OQad5QCmXjBbP+r27aY9XXXuhmJfOisy8s+sulWW8gKySBnCCQKX+G6dOnYzkcDOh+8MEHAwYMMPRVOSoyIQZLWOy6SdCfwQ2lfJURZ18au8lzH1/uqBThTEfP6FiABNJBAPfvKeWRW7sUlgcD7vVN3lx/3YY6rMli2IqKijC8iqkghnwfu61oFqzoXe0Tk7fcdLXYtUkUHHVc2b8f5dKMNoh4KL8JZGp8d/bs2QD35ptvmo1d5B9//PFnnhl/GYTddevWrVmzJr9Bs3dpJFBWVhbXhiksnjZVXtPgqTiFSYAEUiaAu+/Zyoa9V275sGRP98rOb1/wQvfiDiYTuba29p577sFYr3tVlpKYZBYPohIul1eHcblBEvKShLLQ4LJQusRqp9zr0tiNjDqg7M7JNHbTRZ56WiOBjNi7GDmDSxPCLwwbNiwZlFtvTYiG/cMPPySTZD4JGAjAFzyegxWYPG2qvKbBU3EKkwAJpExAuftWNUbHtb/k2u431gSLXarcvzg8e8CgAYd9Lh2xTNr7VQnTVZttTRRftGhR9+7dXeqxFJs1a1Y8v+9ZSd0YzCXh2AD55k3TYBbLQE7NPbdsueMfbhSHh+5a9p9npIga6cJNGcqQQN4RyIi9i9dVN99880033WSDC99N+ulrpaWlNsI8RAJ6AiNGjIjvYrlRT5sqr2nwVJzCJEACKRMQd19szdtTOp+973ZvflGyq0ut/epXvPXLMYfUfmGeN4ZA76mM8mpzWNVZcS6bJKnymga3JX3KxWprqi45u2bSHW7Kh3cZXv7EzECp+k7MTRnKkEA+EsiIvQtQ5557ruMQml6gR48e+YiXfcoIgaOOOiqud9lUeUl6lxskId+8aRpclqUYCZBAmghod1/z/buksN/h/V+8qds19YGImxrKo1VPLxt/3ZrbCmP1hnljGOW97LLL3Cgxy2hzWNVZrWYZ6xxVXtNgLZee3Oi61ZUnH4qoxm7UhYePLH/ilUB5OzfClCGB/CaQqflqbqi1a9dOWYcChu8vv/yiTUJyUVgIc9aRC1p5KNIaZ5bk4Wlgl0jAFwHL+3e3LV8/tfzcrRvXuVT5Y+H2F/X6N2L0yvLq6muYvlZTU+NSg15M/Kbk8izYxu++rjrvJJi8+pYnS0dG7l/20PNYSi2ZAPNJoE0RyNT4riPE5cuXi0XXzjjjDO27xrEkBUhAkiZMiEcCkpY9If14lzMSyECyedPKOhejBAmQQPoJaPeg7v79smTY6O1e+yrgdsXNAXU/v7V47N/X3lkQa5BnmDX78mL6mr8gZdocVvevjBQwqrymIf3AZI0Y08XIrltjd98xZVNeoLGbmVNBra2SQIvZu/PnzxfAzj77bJFmggTcEEC0O6yRFpdcdIs8uqP+6hiLIx9HIdO8oRTKGmW4TwIkkEUCye7fNZGtj1wXeqHSaUVctamhWNNl6ybN+eXwEfU/inlj/kLhav516qxWtRKn/6q8psGphOfjsVjNvbfCZxeeu27KFhx4OFYMDhQWuRGmDAm0EQItZu9OmTJFQTxx4sTevXu3EdzsZhoJYPW+sWPHxhVilOitIRKWG93wcdzwhZmLNHKQr47sQl6/5l8aG0NVJEACnggku3/rqpdfsK72uo0Itev252lg7Y+vLjnuxYIvdysKoQ1Lly711BJFWMyik9RZrW6VqPKaBrclXclF1/5WefbYmvtvdyUtSQWHji174ClGY3CJi2Jth0DL+O++9957o0ePBuWePXv++OOPJSUlXom79H+gd69XsK1OHqHmtSWRbFuPkV0au7aEeJAEsk3A5v4dvf8zj/x2dfumCk9tmr2lcdLmhg+q3Y4QC+WInnvkkUfKu/CLwHLBygLC4nCyBJ6r8UTdWInjr7766hFHHJFM0F9+/az/Vt9weWzzHy6LFxxzQtmdD3latNmlZoqRQGsn4PYBOo39bGpquvLKKxWFDzzwgA9jN42NoarWTgAm7PPPPz906FCbjuAoZGjs2iDiIRJoEQI29++cDocftO3Mnwu39dSwMSXhl7cp3nzUqLoXn5Hq69yXhaka/xqB8brwercFIdls7KJseo3d2B+b4MBQddmf3Ru7xedfUXbXFBq7bs8d5doYgRYY33366adPP/10cL722mtvu+02f8A5vuuPWx6XwvAM4r0jBCaiAlVVVWHuCNzp8IYRwY/S+zuUxwzZNRJoKQLi/o0vcoZ2YFGJSPt2TZUPr7z4oMo5PhoW7LxV4annFJ4yPtjF1Rw4OP6eeOKJ8YoGTpAGxMdlklaNWbDqxAA8UadxYkDDh+9WX3Ohy6lpaB5cdUtvnYTB3aRN5QESaPMEPNi70WgUTreNjY3JoIXDYYTdDQbtxoxXrly50047ITIDTJBXXnklFJLdrXxswt6lx4IPeixCAiRAArlJoLi4GDEW5LZhBbUuo/A/KEUvWfefq9fdLcdh8LEVFBYeeWzRWReEBjVHLrPVkOBf0fdMOeyDpWMD3BgwsqtODEijr1R0/dqaf99UN/1J22YmHAxutXXZ5GnhnXdPyOUOCZBAIgEP9i6CGjr6HlRXV9vI1NXV7bPPPvPmzcPA25dfftmhQ4fExnjYo73rARZFSYAESKCVEMAaaVg2Qm4slgsePFG0elDtDw+sumxozUKR4zURHrxL4fGnFxx1QqBde5uy48aNe/nll+MC8OXte5a8ghoWlYDhCzMX0RgwQQ0rZTS7MUAMs2BnzJhho9DloVjNltpH7qudcm9sS7XLIhCDEV/+8HPBbj3cF6EkCbRNAtmzdzEQe8455zz22GPl5eUwdrfffvtUiNPeTYUey5IACZBAbhJA9Nwbb7xRbptp3lg41njZ+klXrLsvEkv6mtGxU3j1HznkqMLjz4jsta8UCFjKJ4zyWkqomQMHDoxEIqn6UDU11b34dM09t0TXrVEVu/pfcOgxpf98mEF2XcGiUJsn4MHexTsmvGmyJ2YzvnvdddfddNNNKP7VV18NGzbMXo/jUdq7jogoQAIkQAKtkYDm0gCPgl3uMXRhSO3CSSuvGFz7vSHf626wZ5/C404rPPbU4DY9zWXhy3vLLbdozsQmCSzkFve7MB1CBqavYU0NZ4/eaLT+3dfhwND0c/OQtpUq67xAoPiiq4sv+Vsyk926FHNJoA0T8GDvgtKaNWvs/Xe7detmCfPBBx+88MILcej999/fb7/9LGU8ZdLe9YSLwiRAAiTQWghcdtll99yjmrlW88YwvvvnjU9irHerxg2pdioYjIw6QPZzOOhIc8xaMYtOP4Lb0NAQ97hwqtvGrze6cX3dC0/UTXss+tsqJzXG48Gu25Te8Z/IPgcaD3CfBEggOQFv9m5yPXZHpk6dqqyghunz8QCHduKujtHedYWJQiRAAiTQCgloXrxofJJ5Y8XRmnPWP3TxukmdpfrUuxgoLYuM3D+y92jYkcHe/ZIpTN27t/GLT2qfmVL/5kypwU+zCw7/U+nEuwMdOiZrIfNJgAQsCWTc3n3yySfPPPNM1P3ss8+efPLJlo1AJt4czZ079+23304mYMinvWsAwl0SIAESyCcC3bt3X716dbxHyeeNlUarxreLnNu+oHvY2hnXBxPYu5F9xkT2GR0ZsR/sYKEhwa83iRUuC5uiNzz4r7sa/vc+oow1fPBOdNUKodBTAtPsSm+8u+Co4zyVojAJkIBCILP27lNPPXXGGWegpkceeWT8+PGW0OHyO2nSJMTihasTQhhaypgzae+amTCHBEiABPKJQMIor23HBg8c+OWdE2sff6Dxmy9tBT0eDEcQ1SE0cEhowKAPflt/wv/9Y3M0Jquw8rLQq4bHRZ8fr99u5cODCoIHFIdHlBUEmpr0Al7Tkb0PKL3jweDW3b0WpDwJkIBCIIP2rvDZRU1XXHGFgThWWYOz/9q1a2fPno1wvDjqaTFG2rsGntwlARIggfwjAF9erMFmMzMM88Yw7Hr33XcrfW/8+vPax/9T/9ZMqcl/DAcbjGsaY+tCHTe023ljqNPGcKffQ7JfQVGsrjBah8+CWH3XhnXb1y/pXb8S0SRs9Lg/FCguKb56YtFp53JqmntolCQBM4FM2bu33377//3f/5nrS5aDIGUbNmwoKChIJmDIp71rAMJdEiABEshXAghShoAJS5cuRRB3hLbE939hYWG/fv3wVhCHzL2Orl5V+9TDdc9Pdb8Yr1lJy+cEgwgfUXzZ3zFBreUbwxaQQCsnkBF7Vwug6JrOpZdeKh7Q3RSiveuGEmVIgARIoM0SiNXU1L/+Ut1/n2qc979WByGy75iSa24KDdip1bWcDSaB3CSQEXt3jz32wCJqnjr82WefoZT7IrR33bOiJAmQAAm0ZQJNyxbD6q1/6VmvCzq0CLTQwKEl196EKGktUjsrJYF8JZARezcLsGjvZgEyqyABEiCB/CHQ1NQw95266U/Wv/eW1NiQg/0K9d226KKrC485UQoGc7B5bBIJtGoCtHdb9elj40mABEiABLwRwFoP9TOm1U1/qmnxj95KZkg6FCo44NDCU89B9F9OSssQY6olAdq7vAZIgARIgATaIgEEc6if+ULDB7Obli9pkf4Hu3QtPOHMwpPPtlzTuEWaxEpJIF8J0N7N1zPLfpEACZAACbgiEF25TF4MAn+fzI1VyfExM7oFytvBPbfg8HEFBx8lhSMZrYvKSYAEFAK0d3klkAAJkAAJkEAzgabGxq/nyYbvR+82LpgvpbZIhJ4pgqhFhgyL7HsQ1isO7zJcCoX0R5kmARLINAHau5kmTP0kQAIkQAKtj0Cstqbp5x+aflzY9OOCtR/PbVi0oEvIw5LFW4Iliwt6/7Lxh1/q67+vb7rw0acPOeHE1keBLSaBfCFAezdfziT7QQIkQAIkkDECO++88/IF38Hk7dzz8M79Tu/c9HuXxt/LmyqigVBtoLA+UFAbLKwLFNYGi1aHuy0u7Lc60i02/zJp2RNo0dChQ7/55puMNY2KSYAEnAmEnUUoQQIkQAIkQAJtm8CECRNOPPHEzdHY4qWvSkU7SwOudODx412KsQsxlHUQ5mESIIEME2CQvwwDpnoSIAESIIHWTwBrF5933nnxfiy6RZp/qdSw2bpbyMdRyDRvKIWy1pLMJQESyBYB+jNkizTrIQESIAESaOUExo0b9/LLL8c7ES6X+p4ldTtEaj9YirSXzd/NC6Q1b0nLpkqN8SAPY8eOnTFjRivvNJtPAvlAgPZuPpxF9oEESIAESCA7BM4///yHHnrITV0Y2Z08ebIbScqQAAlkmgD9GTJNmPpJgARIgATyhwBM2Oeffx5T0Gy6hKOQobFrg4iHSCDLBDi+m2XgrI4ESIAESCAfCLz22muzZs365JNPlixZUlVVVVZW1r9//xEjRhx11FFHHHFEPvSQfSCBPCJAezePTia7QgIkQAIkQAIkQAIkYCJAfwYTEmaQAAmQAAmQAAmQAAnkEQHau3l0MtkVEiABEiABEiABEiABEwHauyYkzCABEiABEiABEiABEsgjArR38+hksiskQAIkQAIkQAIkQAImArR3TUiYQQIkQAIkQAIkQAIkkEcEaO/m0clkV0iABEiABEiABEiABEwEaO+akDCDBEiABEiABEiABEggjwjQ3s2jk8mukAAJkAAJkAAJkAAJmAjQ3jUhYQYJkAAJkAAJkAAJkEAeEaC9m0cnk10hARIgARIgARIgARIwEaC9a0LCDBIgARIgARIgARIggTwiQHs3j04mu0ICJEACJEACJEACJGAiQHvXhIQZJEACJEACJEACJEACeUSA9m4enUx2hQRIgARIgARIgARIwESA9q4JCTNIgARIgARIgARIgATyiADt3Tw6mewKCZAACZAACZAACZCAiQDtXRMSZpAACZAACZAACZAACeQRAdq7eXQy2RUSIAESIAESIAESIAETAdq7JiTMIAESIAESIAESIAESyCMCtHfz6GSyKyRAAiRAAiRAAiRAAiYCtHdNSJhBAiRAAiRAAiRAAiSQRwRo7+bRyWRXSIAESIAESIAESIAETARo75qQMIMESIAESIAESIAESCCPCNDezaOTya6QAAmQAAmQAAmQAAmYCNDeNSFhBgmQAAmQAAmQAAmQQB4RoL2bRyeTXSEBEiABEiABEiABEjARoL1rQsIMEiABEiABEiABEiCBPCJAezePTia7QgIkQAIkQAIkQAIkYCJAe9eEhBkkQAIkQAIkQAIkQAJ5RID2bh6dTHaFBEiABEiABEiABEjARID2rgkJM0iABEiABEiABEiABPKIAO3dPDqZ7AoJkAAJkAAJkAAJkICJAO1dExJmkAAJkAAJkAAJkAAJ5BEB2rt5dDLZFRIgARIgARIgARIgARMB2rsmJMwgARIgARIgARIgARLIIwK0d/PoZLIrJEACJEACJEACJEACJgK0d01ImEECJEACJEACJEACJJBHBGjv5tHJZFdIgARIgARIgARIgARMBGjvmpAwgwRIgARIgARIgARIII8I0N7No5PJrpAACZAACZAACZAACZgI0N41IWEGCZAACZAACZAACZBAHhGgvZtHJ5NdIQESIAESIAESIAESMBGgvWtCwgwSIAESIAESIAESIIE8IkB7N49OJrtCAiRAAiRAAiRAAiRgIkB714SEGSRAAiRAAiRAAiRAAnlEgPZuHp1MdoUESIAESIAESIAESMBEgPauCQkzSIAESIAESIAESIAE8ogA7d08OpnsCgmQAAmQAAmQAAmQgIkA7V0TEmaQAAmQAAmQAAmQAAnkEQHau3l0MtkVEiABEiABEiABEiABEwHauyYkzCABEiABEiABEiABEsgjArR38+hksiskQAIkQAIkQAIkQAImArR3TUiYQQIkQAIkQAIkQAIkkEcEaO/m0clkV0iABEiABEiABEiABEwEaO+akDCDBEiABEiABEiABEggjwjQ3s2jk8mukAAJkAAJkAAJkAAJmAjQ3jUhYQYJkAAJkAAJkAAJkEAeEaC9m0cnk10hARIgARIgARIgARIwEaC9a0LCDBIgARIgARIgARIggTwiQHs3j04mu0ICJEACJEACJEACJGAiQHvXhIQZJEACJEACJEACJEACeUSA9m4enUx2hQRIgARIgARIgARIwESA9q4JCTNIgARIgARIgARIgATyiADt3Tw6mewKCZAACZAACZAACZCAiQDtXRMSZpAACZAACZAACZAACeQRAdq7eXQy2RUSIAESIAESIAESIAETAdq7JiTMIAESIAESIAESIAESyCMCtHfz6GSyKyRAAiRAAiRAAiRAAiYCtHdNSJhBAiRAAiRAAiRAAiSQRwRo7+bRyWRXSIAESIAESIAESIAETARo75qQMIMESIAESIAESIAESCCPCNDezaOTya6QAAmQAAmQAAmQAAmYCNDeNSFhBgmQAAmQAAmQAAmQQB4RoL2bRyeTXSEBEiABEiABEiABEjARCJty0p9RXV09derUL774YuHChXV1dTs3bwcddNDQoUPTXxk1kgAJkAAJkAAJkAAJkICOQCAWi+l205+cPn36X//613Xr1plV33fffTgUCATMhxxzRKlMt9+xJRQgARIgARIgARIgARLIZQKZtXdh7J5wwgk2/Ye9e//999sIJDtEezcZGeaTAAmQAAmQAAmQAAnoCWTQ3v3888/33HNPVFZeXn7mmWf27t175cqVM2bMWLVqlb4FH3/88ciRI/U5btK0d91QogwJkAAJkAAJkAAJkECm7F24GcCK/fTTT//yl7/cddddMHkV1lVVVVddddXkyZMF+vHjxz/yyCNi12WC9q5LUBQjARIgARIgARIggTZOIFPxGWbOnAlj95prrnnooYeEsQvWZWVlkyZNGjVqlOD+9ddfizQTJEACJEACJEACJEACJJBeApmyd7ds2XLKKafcfPPN5uaGQqEbbrhB5GPEV6SZIAESIAESIAESIAESIIH0EsiUP4N9K1esWNGnTx9Fhv4M9qxa9ij9RrLDn5zJOTsEslMLr2dyzg6B7NTC6zk/OGdqfNeezvr164XAxRdfLNJMkAAJkAAJkAAJkAAJkEB6CbSMvfvRRx8p3cCqE1h9Ir1dojYSIAESIAESIAESIAESEARaxt597bXX0IL+/fs/+eSToilMkAAJkAAJkAAJkAAJkEDaCbSAvfvwww+/8847Xbt2nTNnTrdu3dLeJSokARIgARIgARIgARIgAUEgq/ZuY2PjjTfeeN5556H6Dh06VFdXi3YwQQIkQAIkQAIkQAIkQAKZIJCl+AwIsvvcc89NnTp13bp1+m7A/L3uuuv0OS7TnC/pElSKYuScIkCXxcnZJagUxcg5RYAui5OzS1ApipFzigBdFidnl6BSFMs053CK7XNT/KWXXjr22GMtJa+//nrk+zN5LRUykwRIgARIgARIgARIgAT0BLIxvou1J+bPn48h3s8+++ytt94yDPGiNfPmzdt99931zXJMZ/o5wLEBbUSAnLNzosmZnLNDIDu18Hom5+wQyE4tvJ7zg3M27F09qdra2n/+85+GAd1x48ZhDFgv5pjm9eeIKC0C5JwWjI5KyNkRUVoEyDktGB2VkLMjorQIkHNaMDoqIWdHRGkRyDRnD/ZuNBqdMmUK5pwl61g4HD733HODQec5cD/++OPw4cMrKyuFqoaGBhQXu44JwcVRkgIkQAIkQAIkQAIkQAKtgkAsFstIO6HX5Qa3BMcWIOSCS23Tpk3Ta1uyZInLgoqYvizTJEACJEACJEACJEACeUDAkzXoXth5LDZD7E466aSePXsK5WvXrhVpJkiABEiABEiABEiABEggXQRa0oXgwAMPfOKJJ5SedO/e3VOXYNF7kqcwCZAACZAACZAACZBA2yTgwd4tKipavXq1vf9uSUmJe4577bWXsHd79erlviAlSYAESIAESIAESIAESMAlAQ/2LjSmd/lfGNBKK0eNGsX5Zy5PGMVIgARIgARIgARIgAQ8EWgx/1208ttvv1Xaetxxx3lqNIVJgARIgARIgARIgARIwCUBD/HIXGp0KbZixYo+ffpAeIcddvjuu+8KCgpcFqQYCZAACZAACZAACZAACbgn4M2fwb1ejN0iWG9TU9Po0aPHjh1riK2L0GbnnHOOou3BBx+kseseLCVJgARIgARIgARIgAQ8EcjI+C7M3L59+65atUppCkZwJ0yYcOKJJxYWFmK62xdffHHmmWf+9NNPOHr//ff/9a9/9dRiCpMACZAACZAACZAACZCAewLZsHdFa/r37491JZTd8vLyxx9//NhjjxVHmSABEiABEiABEiABEiCBtBPIiL2LVs6aNevoo4+2bO6gQYNOO+00DOvC5LUU8JSJFd2mTp2KMeOFCxfW1dXt3LwddNBBQ4cO9aSHwgg299JLLy1YsGD+/PlwOAHAIUOGjBw5cu+99yacFiGAZbfvvPPOjz766NNPP+3YsWOLtCGfKn3ttddeeeUVXN740th+++3hZ3XCCSd4CqGYTzQy2hdeupnDyy/qzLHVa6ZpoaeR5fQjjzxy2223odLLL7/8oosuSlvt7pdi8ypZWVn5/vvvv/DCC3BauOeee5566qnXX3995cqVXvXYyEN5165dLVncd9990WjUpiwPCQLwP3n00UeTPX6ccsopWP1OCDORBQKYwQns4sL+7bffslBpHlexfPlyBD0UPEUCSzx+9tlnedzx7HeNl27mmPOLOnNsDZppWhiAZHN30aJF4iv6b3/7WxqrltKoK8uqcEUKKJYJDCFnuUmttLrzzz/fEqDIhCmMCYittHetq9lfffXV8ccfL8grCdq7qZzEZcuWiaXL8Wbp559//uabb66//noBee7cuanoZ1mFAC/dTF8J/KLONGFFP02L7HC2rAVv6XfddVfx5Ux7V6aEURmFCEwx2LV47XvxxReLXzUB6+OPP7ZkykxBAG94BS4k4GNtOWQOLxS83xGlmMgEgWS/Z7R3fdPGy1/xtYAhc/07H7x0Elc+bGLfVbAgCPDSzfRlwC/qTBNW9NO0yA7nZLX84x//EF/LSNDejeFHC2sRg8Vf/vKXiooKAQ4eFIav3fHjx4ujTJgJ/P7774obAz7xzCBgwoEBzw/6yw7pq666yqyBOWkkMH36dLj9rFmz5sknn9TDp73rG7L+CwExv/V68HYYoWMUzhdccIH+ENNeCfDS9UrMkzy/qD3h8i1M08I3urQUxACl/ocPadq7sZdffhkgrrnmGjNixDvTO+phYNwswxxBQHlxgwHdH374QWSKhOG1DsTEISYySgBfu8pziHLz0971R1us4AiMmPdgVvLAAw8ohPHJIV4zHx85vHR9QHMswi9qR0RpEaBpkRaM/pRs3rxZvIsTX8vptXdbcj1h0SWvCUQPwKvJm2++2VwwFArdcMMNIr+qqkqkmTATmD17NjLffPPNAQMGmI/CkRSRkkX+unXrMPQodpnIHIFAINCvX7/M6W8jmvWvxsaMGWPu9RFHHCEyb7/9dpFmwjcBXrq+0dkU5Be1DZw0HqJpkUaYXlVddtllWLQBAz1Yg8xrWZfyrdLePfnkk5955hnDmm2iw+IdJXL22Wcfkc+EgQAewvA4iyeHYcOGGQ6J3VtvvVWkkcAwsH6X6cwR0I/vZq6WPNaM0QK9y6PiAWXoL5Y0F5wnT56MIV6DAHd9EBBIfZRlETMBflGbmWQoh6ZFhsA6qp0xY8Zjjz0GMYSKwteyo7w/gVZp79p3df369ULA7IQqDjGBkRiMkd900002KLp3766fvlZaWmojzENpJBCJRNKorQ2qQjBE0WvMtkwWwHj//fcXYnBCFWkmfBPgpesbnWVBflFbYsl+Jk2LDDGHw57yJvmss84yhydKY6V5aO8iPr8CCKtOYPWJNMLKP1XnnnsuAjLY90sv0KNHD3thHk0XgWAwD+/NdMFxowdeOkLMZsBg9913F2Ji9UeRw4QPArx0fUCzL8Ivans+2TlK0yITnPH64pxzzkGwATjv3nvvvZmoQujMw99UrKKE7sFKM0xyF31mwhMBLFynyAPpNtts46kshX0TgCe677IsCAJvv/224NClSxeRNiQ6d+4scpYuXSrSTPgmwEvXN7pUCvKLOhV6bsrStHBDyasMvHXfeOMNlHr++efbtWvntbgn+Xyzdx9++OF33nkHr+DnzJnTrVs3TywobCaAhanw4KXkn3HGGXizZpZhDgnkIAH9YK2Nvdu+fXvReCxFIdJMkEArIsAv6kyfLJoWmSCMpdSU5YJvvPHGkSNHZqIKvc78sXcRiQzIzjvvPHSvQ4cOWBxB30+m/RGYP3++KHj22WeLNBMkkMsEampq9M3r1KmTflef1k+ugomMrxH9UaZJoFUQ4Bd15k4TTYsMsa2vr8eCl1COycSIO5ahWvRq88He/frrrxGLF66lIhLZTz/9tNNOO02cOFHfVaZ9EJgyZYpSCjB79+7tQwOLkED2CSA+v75SG3u3rKxML/nrr7/qd5kmgVZBgF/UmThNNC0yQVXoxFx5LEKOXayylCzclhBOSyKcFi0tqOSll1469thjLRtw/fXXI/+6666zPMpMRwLvvfee4rEER/IrrrjCUZ4CJJAjBIQTjtIeG3sXq6zp24yVBW0mt+klmSaBHCHAL+pMnAiaFpmgKnRiKTVlCYXHH398u+22E/kZTbT68d1DDz0U4CZNmnT66afrI2cp1GDyfvHFFxklmK/KYQdceeWVSu+wDFVJSUm+9pT9yj8C7kcLEGFe331e53oaTOc+AX5RZ+gc0bTIEFioraioOOmkk5DAYCVikGWuIoPmVm/v4vcJbs5weUY0Bvjsm30YDCsmGPrP3WQEpk2bprxruPbaa48++uhkYswngRwkAA9+fatsIgYYHP1tRoL1CpkmgRwhwC/qDJ0ImhYZAgu1l1xyCZZSwwDlQw89lLlazJpzxZ8Bq67DA8lmsggGbBCD0D6yY1FREVYQPeGEE4YPHy5eaGLdDqh1P95jZtS6ctJCcuXKlRdeeCE6jgVXLddtbl1Mst/atJyF7Dc7b2rURxlDp/74449kXXM/sy2ZBuaTQEsR4Bd1dsjTtEgjZziKTJ06FQqxSq7hizqNtViqCiDYr+WBLGfiV8fxTSJGYhxllGY/99xzWBhQdAHTrvv16yd28zuROsm6ujqswzxv3jwE3P3yyy8NQ2X5TS9dvUv9LBx88MGIrKe0B8vPMPKx11Oz7bbbipBkd9xxx9VXX22pARHOL730UnEoR74PRXtaY4KXbnbOGr+os8NZX0tbNi30HHyn4T+GQLHKcORhhx1mqWfx4sUIOaAcwhjwbrvtpqTvuusurJRpWcRlZq6M77psrksxuIZcddVVGDBX5DEHpe3Yuy4RJRPD7z1GdmHsIk4TVqiisZsMFPNznEDfvn2FvWsI16Bv+bp168Tu0KFDRZoJEshlAvyibpGzQ9MiRewYCRLv3pVlJuwV4vtZiGFCUYr2bq7476Z9IYMDDzxQcOzevbtI530iRZKY4ffYY4+B0ty5c7fffvu8x5WhDqZ4FjLUqjalVv/NiCfeZH3/7rvvxKHDDz9cpJkggVwmwC/qljo7bda0aCngaaw3V8Z34R+zevVqe/9dl84MCh1EMH7iiSeUdK9evdKILMdVpUISK/shJB46+P777w8bNizHe5rLzUvlLORyv1pR2+DRhLAtSoNnz56drOUIsSkOHXTQQSLNBAnkLAF+UbfgqWmzpkVamMOKGz9+vCEKpEEz1rlE0C0lE06V++67r5JOfQWAXLF30Z/0Lv8Lg0NhNGrUqLY22OaPJFzIlTlqs2bN2m+//RR6/PRNwN9Z8F0dCxoIjBgxAt+ViksDXJuWLl1qdmrCmzXh9YTiWVjQ0tBI7pKAVwL8ovZKLL3ybdm0SJ1kcXHxI488Yq8HDgziVRscSG655RZ7efdHc8WfwX2LXUp+++23iuRxxx3nskhbFkM0N2W54GefffbII49MhgJXHiajJDvK/DQSsH8CTmNF+aoKT7kXXHCB6N1HH30k0iLxzTffiPTFF18sfslEJhM+CPDS9QHNZRF+UbsElTkxmhaZY5tpzflp765YseLuu+8Gux122EEZs8w0x1atH6v5nXnmmegCHrz0cS30nUJwDExy//vf/96xY0d9PtMZIoDJ10KzjZ+PkGHCTOCUU04RmZh8KdIigYA4Ij1hwgSRZiIVArx0U6FnU5Zf1DZwsnOIpkV2OGeolhzyZ3DfQzxgIVgvRhFGjx49duxYQ2xdBLw455xzFG3wcyooKHCvuQ1KApF4JFi0aJFYU01BAci1tbWY7gMPSGVa5RlnnNEGKWW/y5jHKio1rAEm8pmwJ4CJqlhu5m9/+xvE8OICQc732GMPUQSeDJMnT1Z24ba+9dZbi0NMpEKAl24q9JKV5Rd1MjJpzKdpkUaYuagKYU1a14axrp49ewqUGMHFvDTYZOhFQ0PDJ598ghzl6P3339+6upb91t52222CpJsEgpRh8Cb77WxrNRrWR3j66afbGoF09RffCZhfolzbiNggrt7NmzeL/HHjxon8dNXbZvXw0s3EqecXdSaoGnTStDAAaand119/XVgjGK1IYzOkNOrKjirDRSm4YG6KSMMs++9//5ud9rTeWhDRRhBzmUBk/tbb39xv+caNG7HGxOOPP77rrrsazsjtt9/+6quvIgp37vci11oIqlhwUeGJ6OXwyfn3v/+NhJJzzDHH0NhN/ZTx0k2dYTIN/KJORia9+TQt0svTtzbauwnoZs6cabAGxC6GcPAGs6KiIqEAd6wICCNA0HNMfPbZZ1aamJceAmJBtWQn4vLLL09PTW1MC1xxzOur4TURHCLxI9fGYGSku7x0M4K1WSm/qDPH1qCZpoUBSIvsvvvuu+IXcOLEiWlsQ66sJyy65zJRVVWFpW6x9gZcS+FjilWYsQ0ZMkTv6uBSFcVIgATaAgF8XeBLAxHKEBNn8ODBO++8c2FhYVvoOPtIAiTgkgBNC5egWqNYa7V3WyNrtpkESIAESIAESIAESCD7BPIzHln2ObJGEiABEiABEiABEiCB3CRAezc3zwtbRQIkQAIkQAIkQAIkkB4CtHfTw5FaSIAESIAESIAESIAEcpMA7d3cPC9sFQmQAAmQAAmQAAmQQHoI0N5ND0dqIQESIAESIAESIAESyE0CtHdz87ywVSRAAiRAAiRAAiRAAukhQHs3PRyphQRIgARIgARIgARIIDcJ0N7NzfPCVpEACZAACZAACZAACaSHAO3d9HCkFhIgARIgARIgARIggdwk8P8BY9yjN/dYDsIAAAAASUVORK5CYII=;" vertex="1" parent="1">
          <mxGeometry x="-10" y="30" width="933" height="793" as="geometry" />
        </mxCell>
        <mxCell id="SBjkh8qZUJ7-Q7mnqAF4-3" value="" style="ellipse;whiteSpace=wrap;html=1;aspect=fixed;labelBackgroundColor=default;fontFamily=Times New Roman;fontSize=42;fillColor=#0050ef;strokeColor=#000000;fontColor=#ffffff;strokeWidth=3;" vertex="1" parent="1">
          <mxGeometry x="104" y="59" width="20" height="20" as="geometry" />
        </mxCell>
        <mxCell id="SBjkh8qZUJ7-Q7mnqAF4-4" value="" style="ellipse;whiteSpace=wrap;html=1;aspect=fixed;labelBackgroundColor=default;fontFamily=Times New Roman;fontSize=42;fillColor=#008a00;strokeColor=#005700;fontColor=#ffffff;strokeWidth=3;" vertex="1" parent="1">
          <mxGeometry x="104" y="109" width="20" height="20" as="geometry" />
        </mxCell>
        <mxCell id="SBjkh8qZUJ7-Q7mnqAF4-5" value="" style="ellipse;whiteSpace=wrap;html=1;strokeColor=#ed220d;strokeWidth=5;" vertex="1" parent="1">
          <mxGeometry x="90" y="159" width="60" height="30" as="geometry" />
        </mxCell>
        <mxCell id="SBjkh8qZUJ7-Q7mnqAF4-6" value="训练数据" style="text;html=1;strokeColor=none;fillColor=none;align=center;verticalAlign=middle;whiteSpace=wrap;rounded=0;fontSize=32;fontFamily=宋体;" vertex="1" parent="1">
          <mxGeometry x="170" y="54" width="140" height="30" as="geometry" />
        </mxCell>
        <mxCell id="SBjkh8qZUJ7-Q7mnqAF4-7" value="支持向量" style="text;html=1;strokeColor=none;fillColor=none;align=center;verticalAlign=middle;whiteSpace=wrap;rounded=0;fontSize=32;fontFamily=宋体;" vertex="1" parent="1">
          <mxGeometry x="170" y="104" width="140" height="30" as="geometry" />
        </mxCell>
        <mxCell id="SBjkh8qZUJ7-Q7mnqAF4-8" value="支持向量数据描述" style="text;html=1;strokeColor=none;fillColor=none;align=center;verticalAlign=middle;whiteSpace=wrap;rounded=0;fontSize=32;fontFamily=宋体;" vertex="1" parent="1">
          <mxGeometry x="170" y="154" width="270" height="30" as="geometry" />
        </mxCell>
        <mxCell id="SBjkh8qZUJ7-Q7mnqAF4-19" value="" style="ellipse;whiteSpace=wrap;html=1;aspect=fixed;labelBackgroundColor=default;fontFamily=Times New Roman;fontSize=42;fillColor=#008a00;strokeColor=#005700;fontColor=#ffffff;strokeWidth=3;" vertex="1" parent="1">
          <mxGeometry x="740" y="183" width="20" height="20" as="geometry" />
        </mxCell>
        <mxCell id="SBjkh8qZUJ7-Q7mnqAF4-20" value="" style="ellipse;whiteSpace=wrap;html=1;aspect=fixed;labelBackgroundColor=default;fontFamily=Times New Roman;fontSize=42;fillColor=#008a00;strokeColor=#005700;fontColor=#ffffff;strokeWidth=3;" vertex="1" parent="1">
          <mxGeometry x="636" y="200" width="20" height="20" as="geometry" />
        </mxCell>
        <mxCell id="SBjkh8qZUJ7-Q7mnqAF4-21" value="" style="ellipse;whiteSpace=wrap;html=1;aspect=fixed;labelBackgroundColor=default;fontFamily=Times New Roman;fontSize=42;fillColor=#008a00;strokeColor=#005700;fontColor=#ffffff;strokeWidth=3;" vertex="1" parent="1">
          <mxGeometry x="741" y="209" width="20" height="20" as="geometry" />
        </mxCell>
        <mxCell id="SBjkh8qZUJ7-Q7mnqAF4-22" value="" style="ellipse;whiteSpace=wrap;html=1;aspect=fixed;labelBackgroundColor=default;fontFamily=Times New Roman;fontSize=42;fillColor=#008a00;strokeColor=#005700;fontColor=#ffffff;strokeWidth=3;" vertex="1" parent="1">
          <mxGeometry x="762" y="239" width="20" height="20" as="geometry" />
        </mxCell>
        <mxCell id="SBjkh8qZUJ7-Q7mnqAF4-23" value="" style="ellipse;whiteSpace=wrap;html=1;aspect=fixed;labelBackgroundColor=default;fontFamily=Times New Roman;fontSize=42;fillColor=#008a00;strokeColor=#005700;fontColor=#ffffff;strokeWidth=3;" vertex="1" parent="1">
          <mxGeometry x="782" y="259" width="20" height="20" as="geometry" />
        </mxCell>
        <mxCell id="SBjkh8qZUJ7-Q7mnqAF4-24" value="" style="ellipse;whiteSpace=wrap;html=1;aspect=fixed;labelBackgroundColor=default;fontFamily=Times New Roman;fontSize=42;fillColor=#008a00;strokeColor=#005700;fontColor=#ffffff;strokeWidth=3;" vertex="1" parent="1">
          <mxGeometry x="772" y="249" width="20" height="20" as="geometry" />
        </mxCell>
        <mxCell id="SBjkh8qZUJ7-Q7mnqAF4-25" value="" style="ellipse;whiteSpace=wrap;html=1;aspect=fixed;labelBackgroundColor=default;fontFamily=Times New Roman;fontSize=42;fillColor=#008a00;strokeColor=#005700;fontColor=#ffffff;strokeWidth=3;" vertex="1" parent="1">
          <mxGeometry x="636" y="291" width="20" height="20" as="geometry" />
        </mxCell>
        <mxCell id="SBjkh8qZUJ7-Q7mnqAF4-26" value="" style="ellipse;whiteSpace=wrap;html=1;aspect=fixed;labelBackgroundColor=default;fontFamily=Times New Roman;fontSize=42;fillColor=#008a00;strokeColor=#005700;fontColor=#ffffff;strokeWidth=3;" vertex="1" parent="1">
          <mxGeometry x="561" y="286" width="20" height="20" as="geometry" />
        </mxCell>
        <mxCell id="SBjkh8qZUJ7-Q7mnqAF4-27" value="" style="ellipse;whiteSpace=wrap;html=1;aspect=fixed;labelBackgroundColor=default;fontFamily=Times New Roman;fontSize=42;fillColor=#008a00;strokeColor=#005700;fontColor=#ffffff;strokeWidth=3;" vertex="1" parent="1">
          <mxGeometry x="603" y="345" width="19" height="19" as="geometry" />
        </mxCell>
        <mxCell id="SBjkh8qZUJ7-Q7mnqAF4-28" value="" style="ellipse;whiteSpace=wrap;html=1;aspect=fixed;labelBackgroundColor=default;fontFamily=Times New Roman;fontSize=42;fillColor=#008a00;strokeColor=#005700;fontColor=#ffffff;strokeWidth=3;" vertex="1" parent="1">
          <mxGeometry x="581" y="382" width="19" height="19" as="geometry" />
        </mxCell>
        <mxCell id="SBjkh8qZUJ7-Q7mnqAF4-29" value="" style="ellipse;whiteSpace=wrap;html=1;aspect=fixed;labelBackgroundColor=default;fontFamily=Times New Roman;fontSize=42;fillColor=#008a00;strokeColor=#005700;fontColor=#ffffff;strokeWidth=3;" vertex="1" parent="1">
          <mxGeometry x="508" y="467" width="19" height="19" as="geometry" />
        </mxCell>
        <mxCell id="SBjkh8qZUJ7-Q7mnqAF4-30" value="" style="ellipse;whiteSpace=wrap;html=1;aspect=fixed;labelBackgroundColor=default;fontFamily=Times New Roman;fontSize=42;fillColor=#008a00;strokeColor=#005700;fontColor=#ffffff;strokeWidth=3;" vertex="1" parent="1">
          <mxGeometry x="463" y="464" width="19" height="19" as="geometry" />
        </mxCell>
        <mxCell id="SBjkh8qZUJ7-Q7mnqAF4-31" value="" style="ellipse;whiteSpace=wrap;html=1;aspect=fixed;labelBackgroundColor=default;fontFamily=Times New Roman;fontSize=42;fillColor=#008a00;strokeColor=#005700;fontColor=#ffffff;strokeWidth=3;" vertex="1" parent="1">
          <mxGeometry x="426" y="543" width="19" height="19" as="geometry" />
        </mxCell>
        <mxCell id="SBjkh8qZUJ7-Q7mnqAF4-32" value="" style="ellipse;whiteSpace=wrap;html=1;aspect=fixed;labelBackgroundColor=default;fontFamily=Times New Roman;fontSize=42;fillColor=#008a00;strokeColor=#005700;fontColor=#ffffff;strokeWidth=3;" vertex="1" parent="1">
          <mxGeometry x="366" y="558" width="19" height="19" as="geometry" />
        </mxCell>
        <mxCell id="SBjkh8qZUJ7-Q7mnqAF4-33" value="" style="ellipse;whiteSpace=wrap;html=1;aspect=fixed;labelBackgroundColor=default;fontFamily=Times New Roman;fontSize=42;fillColor=#008a00;strokeColor=#005700;fontColor=#ffffff;strokeWidth=3;" vertex="1" parent="1">
          <mxGeometry x="343" y="534" width="19" height="19" as="geometry" />
        </mxCell>
        <mxCell id="SBjkh8qZUJ7-Q7mnqAF4-34" value="" style="ellipse;whiteSpace=wrap;html=1;aspect=fixed;labelBackgroundColor=default;fontFamily=Times New Roman;fontSize=42;fillColor=#008a00;strokeColor=#005700;fontColor=#ffffff;strokeWidth=3;" vertex="1" parent="1">
          <mxGeometry x="309" y="479" width="19" height="19" as="geometry" />
        </mxCell>
        <mxCell id="SBjkh8qZUJ7-Q7mnqAF4-35" value="" style="ellipse;whiteSpace=wrap;html=1;aspect=fixed;labelBackgroundColor=default;fontFamily=Times New Roman;fontSize=42;fillColor=#008a00;strokeColor=#005700;fontColor=#ffffff;strokeWidth=3;" vertex="1" parent="1">
          <mxGeometry x="319" y="436" width="19" height="19" as="geometry" />
        </mxCell>
        <mxCell id="SBjkh8qZUJ7-Q7mnqAF4-36" value="" style="ellipse;whiteSpace=wrap;html=1;aspect=fixed;labelBackgroundColor=default;fontFamily=Times New Roman;fontSize=42;fillColor=#008a00;strokeColor=#005700;fontColor=#ffffff;strokeWidth=3;" vertex="1" parent="1">
          <mxGeometry x="280" y="425" width="19" height="19" as="geometry" />
        </mxCell>
        <mxCell id="SBjkh8qZUJ7-Q7mnqAF4-37" value="" style="ellipse;whiteSpace=wrap;html=1;aspect=fixed;labelBackgroundColor=default;fontFamily=Times New Roman;fontSize=42;fillColor=#008a00;strokeColor=#005700;fontColor=#ffffff;strokeWidth=3;" vertex="1" parent="1">
          <mxGeometry x="199" y="399" width="19" height="19" as="geometry" />
        </mxCell>
        <mxCell id="SBjkh8qZUJ7-Q7mnqAF4-38" value="" style="ellipse;whiteSpace=wrap;html=1;aspect=fixed;labelBackgroundColor=default;fontFamily=Times New Roman;fontSize=42;fillColor=#008a00;strokeColor=#005700;fontColor=#ffffff;strokeWidth=3;" vertex="1" parent="1">
          <mxGeometry x="173" y="414" width="19" height="19" as="geometry" />
        </mxCell>
        <mxCell id="SBjkh8qZUJ7-Q7mnqAF4-39" value="" style="ellipse;whiteSpace=wrap;html=1;aspect=fixed;labelBackgroundColor=default;fontFamily=Times New Roman;fontSize=42;fillColor=#008a00;strokeColor=#005700;fontColor=#ffffff;strokeWidth=3;" vertex="1" parent="1">
          <mxGeometry x="183" y="435" width="19" height="19" as="geometry" />
        </mxCell>
        <mxCell id="SBjkh8qZUJ7-Q7mnqAF4-40" value="" style="ellipse;whiteSpace=wrap;html=1;aspect=fixed;labelBackgroundColor=default;fontFamily=Times New Roman;fontSize=42;fillColor=#008a00;strokeColor=#005700;fontColor=#ffffff;strokeWidth=3;" vertex="1" parent="1">
          <mxGeometry x="219" y="543" width="19" height="19" as="geometry" />
        </mxCell>
        <mxCell id="SBjkh8qZUJ7-Q7mnqAF4-41" value="" style="ellipse;whiteSpace=wrap;html=1;aspect=fixed;labelBackgroundColor=default;fontFamily=Times New Roman;fontSize=42;fillColor=#008a00;strokeColor=#005700;fontColor=#ffffff;strokeWidth=3;" vertex="1" parent="1">
          <mxGeometry x="228.5" y="575" width="15" height="15" as="geometry" />
        </mxCell>
        <mxCell id="SBjkh8qZUJ7-Q7mnqAF4-42" value="" style="ellipse;whiteSpace=wrap;html=1;aspect=fixed;labelBackgroundColor=default;fontFamily=Times New Roman;fontSize=42;fillColor=#008a00;strokeColor=#005700;fontColor=#ffffff;strokeWidth=3;" vertex="1" parent="1">
          <mxGeometry x="232.5" y="599" width="19" height="19" as="geometry" />
        </mxCell>
        <mxCell id="SBjkh8qZUJ7-Q7mnqAF4-43" value="" style="ellipse;whiteSpace=wrap;html=1;aspect=fixed;labelBackgroundColor=default;fontFamily=Times New Roman;fontSize=42;fillColor=#008a00;strokeColor=#005700;fontColor=#ffffff;strokeWidth=3;" vertex="1" parent="1">
          <mxGeometry x="276" y="619" width="19" height="19" as="geometry" />
        </mxCell>
        <mxCell id="SBjkh8qZUJ7-Q7mnqAF4-44" value="" style="ellipse;whiteSpace=wrap;html=1;aspect=fixed;labelBackgroundColor=default;fontFamily=Times New Roman;fontSize=42;fillColor=#008a00;strokeColor=#005700;fontColor=#ffffff;strokeWidth=3;" vertex="1" parent="1">
          <mxGeometry x="336" y="609" width="19" height="19" as="geometry" />
        </mxCell>
        <mxCell id="SBjkh8qZUJ7-Q7mnqAF4-45" value="" style="ellipse;whiteSpace=wrap;html=1;aspect=fixed;labelBackgroundColor=default;fontFamily=Times New Roman;fontSize=42;fillColor=#008a00;strokeColor=#005700;fontColor=#ffffff;strokeWidth=3;" vertex="1" parent="1">
          <mxGeometry x="440" y="600" width="19" height="19" as="geometry" />
        </mxCell>
        <mxCell id="SBjkh8qZUJ7-Q7mnqAF4-46" value="" style="ellipse;whiteSpace=wrap;html=1;aspect=fixed;labelBackgroundColor=default;fontFamily=Times New Roman;fontSize=42;fillColor=#008a00;strokeColor=#005700;fontColor=#ffffff;strokeWidth=3;" vertex="1" parent="1">
          <mxGeometry x="463" y="609" width="19" height="19" as="geometry" />
        </mxCell>
        <mxCell id="SBjkh8qZUJ7-Q7mnqAF4-47" value="" style="ellipse;whiteSpace=wrap;html=1;aspect=fixed;labelBackgroundColor=default;fontFamily=Times New Roman;fontSize=42;fillColor=#008a00;strokeColor=#005700;fontColor=#ffffff;strokeWidth=3;" vertex="1" parent="1">
          <mxGeometry x="513" y="619" width="19" height="19" as="geometry" />
        </mxCell>
        <mxCell id="SBjkh8qZUJ7-Q7mnqAF4-48" value="" style="ellipse;whiteSpace=wrap;html=1;aspect=fixed;labelBackgroundColor=default;fontFamily=Times New Roman;fontSize=42;fillColor=#008a00;strokeColor=#005700;fontColor=#ffffff;strokeWidth=3;" vertex="1" parent="1">
          <mxGeometry x="542" y="633" width="19" height="19" as="geometry" />
        </mxCell>
        <mxCell id="SBjkh8qZUJ7-Q7mnqAF4-49" value="" style="ellipse;whiteSpace=wrap;html=1;aspect=fixed;labelBackgroundColor=default;fontFamily=Times New Roman;fontSize=42;fillColor=#008a00;strokeColor=#005700;fontColor=#ffffff;strokeWidth=3;" vertex="1" parent="1">
          <mxGeometry x="553" y="645" width="19" height="19" as="geometry" />
        </mxCell>
        <mxCell id="SBjkh8qZUJ7-Q7mnqAF4-50" value="" style="ellipse;whiteSpace=wrap;html=1;aspect=fixed;labelBackgroundColor=default;fontFamily=Times New Roman;fontSize=42;fillColor=#008a00;strokeColor=#005700;fontColor=#ffffff;strokeWidth=3;" vertex="1" parent="1">
          <mxGeometry x="603" y="659" width="19" height="19" as="geometry" />
        </mxCell>
        <mxCell id="SBjkh8qZUJ7-Q7mnqAF4-51" value="" style="ellipse;whiteSpace=wrap;html=1;aspect=fixed;labelBackgroundColor=default;fontFamily=Times New Roman;fontSize=42;fillColor=#008a00;strokeColor=#005700;fontColor=#ffffff;strokeWidth=3;" vertex="1" parent="1">
          <mxGeometry x="753" y="464" width="19" height="19" as="geometry" />
        </mxCell>
        <mxCell id="SBjkh8qZUJ7-Q7mnqAF4-52" value="" style="ellipse;whiteSpace=wrap;html=1;aspect=fixed;labelBackgroundColor=default;fontFamily=Times New Roman;fontSize=42;fillColor=#008a00;strokeColor=#005700;fontColor=#ffffff;strokeWidth=3;" vertex="1" parent="1">
          <mxGeometry x="740" y="382" width="19" height="19" as="geometry" />
        </mxCell>
      </root>
    </mxGraphModel>
  </diagram>
</mxfile>
